<svg xmlns="http://www.w3.org/2000/svg" xmlns:xlink="http://www.w3.org/1999/xlink" width="166.966" height="20.227" viewBox="0 0 166.966 20.227">
  <defs>
    <clipPath id="clip-path">
      <path id="Clip_16" data-name="Clip 16" d="M0,0H19.051V19.765H0Z" transform="translate(0 0.092)" fill="none"/>
    </clipPath>
  </defs>
  <g id="Ackermans_logo" data-name="Ackermans logo" transform="translate(0 -0.106)">
    <path id="Fill_1" data-name="Fill 1" d="M16.031,19.621c-.151-2.721-.3-5.429-.457-8.218-.246.279-.444.5-.635.721l-4.078,4.732c-.226.262-.256.26-.472.018L5.61,11.524a1.737,1.737,0,0,0-.151-.123L5,19.624H0c0-.25-.011-.5,0-.74.025-.471.067-.941.1-1.412q.106-1.775.206-3.55.11-1.942.212-3.886Q.592,8.7.672,7.362l.212-3.55Q.989,2.036,1.1.288A.634.634,0,0,1,1.189.015C4.349,3.483,7.451,7,10.6,10.515L19.827,0l.085.03c.026.222.065.444.076.667.059,1.09.106,2.181.169,3.27.047.857.106,1.714.152,2.571q.106,1.826.212,3.653.073,1.261.152,2.52c.081,1.293.168,2.587.246,3.88.045.772.076,1.545.116,2.318.013.23.033.459.052.712Z" transform="translate(90.952 0.233)"/>
    <path id="Fill_3" data-name="Fill 3" d="M10.51,19.287a.362.362,0,0,1-.333-.221q-.644-1.148-1.291-2.3l-.005-.009c-.6-1.065-1.22-2.167-1.826-3.252a.456.456,0,0,0-.435-.29H6.58c-.173.009-.362.013-.594.013l-.421,0c-.146,0-.293,0-.443,0v6.035H0V.028L.1.021C.153.017.2.013.257.013c.768,0,1.548,0,2.3-.007S4.093,0,4.861,0C6.288,0,7.446.012,8.507.039a7.218,7.218,0,0,1,4.971,1.956,6.036,6.036,0,0,1,1.769,3.371,7.568,7.568,0,0,1-.081,3.223,5.608,5.608,0,0,1-3.122,3.765l-.073.039-.1.053,3.989,6.818-.1.008c-.05,0-.089.008-.13.008-1.67,0-3.4,0-5.095.007ZM5.366,4.337a.273.273,0,0,0-.2.056.288.288,0,0,0-.055.216c.006.52,0,1.05,0,1.562,0,.213,0,.424,0,.636V9.083c0,.144.014.247.192.247h.009c.3-.007.609-.01.906-.012.61,0,1.238-.01,1.854-.055A2.8,2.8,0,0,0,9.185,8.9a2.433,2.433,0,0,0,1.006-2.521,2.243,2.243,0,0,0-.578-1.294,2.616,2.616,0,0,0-1.922-.74c-.247-.009-.513-.013-.839-.013l-.54,0-.547,0Z" transform="translate(73.393 0.595)"/>
    <path id="Fill_5" data-name="Fill 5" d="M4.847,10.1v9.591H.013c0-.089-.013-.18-.013-.271V.308A1.263,1.263,0,0,1,.078,0,1.208,1.208,0,0,1,.4.133q1.86,1.523,3.711,3.052L10.182,8.2,12.154,9.82c.1.081.2.159.345.274V.476h4.828c0,.085.013.176.013.267V19.886a1.4,1.4,0,0,1-.06.289,1.116,1.116,0,0,1-.317-.124q-2.459-2.01-4.91-4.027L5.117,10.312c-.07-.054-.142-.106-.27-.212" transform="translate(133.068 0.159)"/>
    <path id="Fill_7" data-name="Fill 7" d="M5.127,19.259H0V.022C.106.017.194.007.285.007,1.793.007,3.3.015,4.81,0c.275,0,.324.089.323.338-.008,2.405,0,4.81,0,7.215v.393c.106-.116.173-.172.223-.239q2.153-2.887,4.3-5.777c.423-.573.846-1.15,1.286-1.713a.529.529,0,0,1,.347-.2C13.025,0,14.758.008,16.491.008a.961.961,0,0,1,.153.012c-.205.275-.389.529-.579.773q-2.819,3.677-5.642,7.352a.309.309,0,0,0-.015.423q1.931,2.92,3.847,5.85,1.525,2.319,3.046,4.642c.037.056.067.116.115.2-.09.007-.153.017-.218.017H11.586a.368.368,0,0,1-.354-.193Q9.083,15.793,6.921,12.5c-.042-.063-.09-.124-.161-.222-.161.188-.312.357-.455.529-.343.423-.692.836-1.017,1.269a.8.8,0,0,0-.153.441c-.012,1.474-.006,2.948-.006,4.422Z" transform="translate(37.898 0.601)"/>
    <path id="Fill_9" data-name="Fill 9" d="M5.134,4.276v3.2H12.08v4.1H5.135c-.005.118-.014.212-.014.3,0,.914.008,1.828-.006,2.741,0,.255.08.317.324.317q4.048-.012,8.1,0c.337,0,.338,0,.338.336v3.964H0V0H13.478V4.276Z" transform="translate(56.623 0.635)"/>
    <path id="Fill_11" data-name="Fill 11" d="M18.119,4.09,14.228,6.734c-.288-.329-.544-.653-.831-.946a4.5,4.5,0,0,0-2.8-1.286,4.723,4.723,0,0,0-2.714.392A4.526,4.526,0,0,0,5.638,7.51a6.24,6.24,0,0,0-.4,2.2,5.789,5.789,0,0,0,1.586,4.336A4.244,4.244,0,0,0,9.44,15.254a5.633,5.633,0,0,0,2.8-.382,4.5,4.5,0,0,0,2.115-1.94l.182-.306,4,2.566c-.438.575-.829,1.151-1.282,1.673a8.157,8.157,0,0,1-5.354,2.75,11.116,11.116,0,0,1-5.912-.677A9.528,9.528,0,0,1,.521,13.122a9.752,9.752,0,0,1-.5-2.777,10.034,10.034,0,0,1,.93-4.826,9.455,9.455,0,0,1,3.5-3.978A9.171,9.171,0,0,1,8.715.05,9.944,9.944,0,0,1,16.6,2.415a22.491,22.491,0,0,1,1.52,1.674" transform="translate(17.986 0.373)"/>
    <path id="Fill_13" data-name="Fill 13" d="M14.375,2.544,11.462,5.6c-.269-.212-.507-.44-.774-.619a4.257,4.257,0,0,0-3.421-.635A1.235,1.235,0,0,0,6.239,5.834a1.085,1.085,0,0,0,.708.889c.732.294,1.481.554,2.221.808a19.448,19.448,0,0,1,3.067,1.2,5.444,5.444,0,0,1,2.666,2.73,6.346,6.346,0,0,1,.351,2.914,5.805,5.805,0,0,1-.731,2.475,5.449,5.449,0,0,1-3.2,2.454,11.244,11.244,0,0,1-4.051.452,10.249,10.249,0,0,1-4.92-1.429A8.411,8.411,0,0,1,.143,16.4C.1,16.35.062,16.3,0,16.21l3.712-2.787c.1.106.192.2.28.3a4.823,4.823,0,0,0,4.933,1.668,1.41,1.41,0,0,0,1.269-1.5,1.116,1.116,0,0,0-.635-1,14.825,14.825,0,0,0-1.586-.677c-1.014-.378-2.056-.687-3.054-1.1a5.907,5.907,0,0,1-3-2.532,5.486,5.486,0,0,1-.664-2.49,5.893,5.893,0,0,1,.364-2.456A5.32,5.32,0,0,1,4.567.651,7.644,7.644,0,0,1,7.31.016a10.38,10.38,0,0,1,4.584.729A6.6,6.6,0,0,1,14.18,2.307c.066.069.122.147.2.237" transform="translate(151.682 0.374)"/>
    <g id="Group_17" data-name="Group 17" transform="translate(0 0.026)">
      <path id="Clip_16-2" data-name="Clip 16" d="M0,0H19.051V19.765H0Z" transform="translate(0 0.092)" fill="none"/>
      <g id="Group_17-2" data-name="Group 17" clip-path="url(#clip-path)">
        <path id="Fill_15" data-name="Fill 15" d="M4.721,19.765c-.624-.007-1.288-.01-2.155-.01H0L.164,19.4c.105-.227.2-.441.307-.655C2.141,15.26,3.833,11.73,5.5,8.255L9.216.481A3.1,3.1,0,0,1,9.373.157C9.409.1,9.488,0,9.547,0s.138.088.174.164c.432.9.885,1.844,1.347,2.817l.648,1.36L13.079,7.2q1.818,3.821,3.64,7.639.811,1.7,1.624,3.4l.022.046.565,1.184.015.034c.032.074.064.148.106.239l-.119.006c-.049,0-.095.006-.139.006H14.008a.328.328,0,0,1-.045,0,.332.332,0,0,1-.318-.241c-.14-.334-.289-.67-.433-1-.13-.294-.264-.6-.391-.9a.3.3,0,0,0-.287-.214l-.042,0c-1.043,0-2.1,0-3.143,0s-2.1,0-3.143,0l-.04,0a.277.277,0,0,0-.267.2c-.141.359-.291.72-.435,1.069-.1.251-.211.51-.315.768A.4.4,0,0,1,4.721,19.765Zm4.6-10.187-1.736,4.1h3.5l-1.763-4.1Z" transform="translate(0 0.092)"/>
      </g>
    </g>
    <path id="Fill_18" data-name="Fill 18" d="M13.959,19.777a.339.339,0,0,1-.324-.241c-.134-.317-.274-.637-.41-.947s-.277-.63-.41-.947a.284.284,0,0,0-.272-.206l-.033,0c-1.047,0-2.108,0-3.155,0s-2.11,0-3.155,0l-.035,0a.279.279,0,0,0-.27.206c-.136.338-.279.682-.418,1.014-.122.292-.247.593-.368.89-.052.126-.106.223-.29.223-.679,0-1.365,0-1.954,0H.136a.613.613,0,0,1-.074-.006L0,19.751.022,19.7c.156-.334.3-.65.453-.965Q2.263,15,4.054,11.269c1.561-3.262,3.159-6.6,4.885-10.218.051-.106.1-.213.15-.319.084-.179.17-.364.26-.541A.918.918,0,0,1,9.536,0c.02.02.043.039.064.058a.458.458,0,0,1,.123.136c.536,1.111,1.076,2.239,1.6,3.352l2.041,4.287,1.808,3.8,1.808,3.8c.618,1.3,1.281,2.685,1.946,4.074.028.058.053.116.083.191l.027.066-.125.006c-.056,0-.105.006-.154.006-1.56,0-3.173,0-4.759.005ZM9.311,9.593,7.577,13.687h3.5Z" transform="translate(112.86 0.106)"/>
  </g>
</svg>
