<svg xmlns="http://www.w3.org/2000/svg" xmlns:xlink="http://www.w3.org/1999/xlink" width="181.772" height="26.318" viewBox="0 0 181.772 26.318">
  <defs>
    <clipPath id="clip-path">
      <path id="Clip_4" data-name="Clip 4" d="M0,26.318H181.772V0H0Z" transform="translate(0 0)" fill="none"/>
    </clipPath>
  </defs>
  <g id="Clickatell" transform="translate(0 0)">
    <path id="Fill_1" data-name="Fill 1" d="M20.826,21.533A12.639,12.639,0,0,1,20,22.7a8.622,8.622,0,0,1-1.7,1.6,11.048,11.048,0,0,1-2.673,1.413,10.6,10.6,0,0,1-3.76.6,11.582,11.582,0,0,1-4.847-1A11.065,11.065,0,0,1,3.26,22.551,12.449,12.449,0,0,1,.848,18.373,15.639,15.639,0,0,1,0,13.141,15.267,15.267,0,0,1,.848,8,12.752,12.752,0,0,1,3.26,3.824a11.206,11.206,0,0,1,3.761-2.8A11.4,11.4,0,0,1,11.868,0a10.575,10.575,0,0,1,3.76.6A11.065,11.065,0,0,1,18.3,2.017a8.622,8.622,0,0,1,1.7,1.6,12.789,12.789,0,0,1,.83,1.168L19.5,5.725q-.219-.3-.719-.96a7.1,7.1,0,0,0-1.4-1.336,9.7,9.7,0,0,0-2.23-1.206,8.686,8.686,0,0,0-3.207-.527,9.724,9.724,0,0,0-4.22.885A9.2,9.2,0,0,0,4.57,5.007,10.845,10.845,0,0,0,2.6,8.64a14.407,14.407,0,0,0-.682,4.5,14.066,14.066,0,0,0,.7,4.5,11.3,11.3,0,0,0,1.991,3.652,9.04,9.04,0,0,0,3.17,2.447,9.926,9.926,0,0,0,4.276.886,8.109,8.109,0,0,0,3.04-.53,9.709,9.709,0,0,0,2.213-1.2,8.19,8.19,0,0,0,1.437-1.338q.533-.658.755-.96Z" transform="translate(49.155 0)" fill="#070707"/>
    <path id="Clip_4-2" data-name="Clip 4" d="M0,26.318H181.772V0H0Z" transform="translate(0 0)" fill="none"/>
    <g id="Clickatell-2" data-name="Clickatell" clip-path="url(#clip-path)">
      <path id="Fill_3" data-name="Fill 3" d="M0,25.109H1.659V0H0Z" transform="translate(74.404 0.604)" fill="#070707"/>
      <path id="Fill_5" data-name="Fill 5" d="M1.988,23.415H.329V6.1h1.66V23.414ZM2.322,2.447H0V0H2.322V2.446Z" transform="translate(80.898 2.298)" fill="#070707"/>
      <path id="Fill_6" data-name="Fill 6" d="M15.223,15.211a8.2,8.2,0,0,1-2.782,2.164,8.757,8.757,0,0,1-3.926.846A8.252,8.252,0,0,1,2.4,15.6a8.6,8.6,0,0,1-1.77-2.9A10.179,10.179,0,0,1,0,9.112a9.89,9.89,0,0,1,.646-3.6,8.824,8.824,0,0,1,1.786-2.9A8.716,8.716,0,0,1,12.328.81,7.989,7.989,0,0,1,15,3.05l-1.254.979a6.153,6.153,0,0,0-2.118-1.788,6.714,6.714,0,0,0-3.115-.658,6.083,6.083,0,0,0-2.71.6A6.829,6.829,0,0,0,3.666,3.8a7.272,7.272,0,0,0-1.4,2.39,8.45,8.45,0,0,0-.5,2.917,8.231,8.231,0,0,0,.514,2.917A7.551,7.551,0,0,0,3.7,14.418a6.816,6.816,0,0,0,2.138,1.62,6.015,6.015,0,0,0,2.673.6,7.5,7.5,0,0,0,3.261-.678,6.029,6.029,0,0,0,2.268-1.807Z" transform="translate(87.192 7.946)" fill="#070707"/>
      <path id="Fill_7" data-name="Fill 7" d="M0,0H1.659V16.446l8.7-8.661h2.176l-6.49,6.438L13.822,25.1h-1.99L4.866,15.427,1.659,18.589V25.1H0Z" transform="translate(106.286 0.603)" fill="#070707"/>
      <path id="Fill_8" data-name="Fill 8" d="M5.973,18.225A10.362,10.362,0,0,1,3.836,18a5.255,5.255,0,0,1-1.917-.811A4.413,4.413,0,0,1,.537,15.61,5.386,5.386,0,0,1,0,13.069,6.778,6.778,0,0,1,.41,10.716,4.809,4.809,0,0,1,1.7,8.8a6.265,6.265,0,0,1,2.284-1.28,10.7,10.7,0,0,1,3.144-.474l.249,0c1.02,0,1.95.037,2.764.109s1.5.162,2.063.265V6.447a7.161,7.161,0,0,0-.328-2.371,3.4,3.4,0,0,0-1-1.5A3.812,3.812,0,0,0,9.259,1.78a9.687,9.687,0,0,0-2.083-.227H7.047c-.111,0-.224-.008-.335-.008a7.449,7.449,0,0,0-3,.628,9.75,9.75,0,0,0-1.9,1.187L.929,2.194A8.869,8.869,0,0,1,3.2.769,8.709,8.709,0,0,1,6.757.013c.084,0,.169,0,.253,0C7.179.005,7.35,0,7.519,0a7.887,7.887,0,0,1,4.558,1.442c1.187.946,1.788,2.541,1.788,4.743v9.392c0,.453.011.829.035,1.148.023.371.047.725.074,1.053l-1.582,0a7.311,7.311,0,0,1-.037-.753,8.717,8.717,0,0,1-.036-.9V14.874a7.81,7.81,0,0,1-1.457,1.64A6.929,6.929,0,0,1,9.2,17.549a7.718,7.718,0,0,1-1.7.526A8.717,8.717,0,0,1,5.973,18.225ZM7.035,8.47a7.764,7.764,0,0,0-2.677.475,4.32,4.32,0,0,0-1.678,1.169,3.446,3.446,0,0,0-.737,1.506,7.4,7.4,0,0,0-.167,1.449,3.108,3.108,0,0,0,1.235,2.748,5.356,5.356,0,0,0,2.931.87c.073,0,.148,0,.221,0H6.2a6.161,6.161,0,0,0,2.319-.452,6.459,6.459,0,0,0,1.934-1.207,5.742,5.742,0,0,0,1.31-1.712,4.323,4.323,0,0,0,.478-1.94V8.928a16.072,16.072,0,0,0-1.933-.32c-.895-.088-1.8-.133-2.695-.133H7.344c-.1,0-.206-.006-.308-.006Z" transform="translate(121.68 7.939)" fill="#070707"/>
      <path id="Fill_9" data-name="Fill 9" d="M3.4,7.3H0V5.722H3.4V0h1.66V5.722h5.6V7.3h-5.6V17.316a10.883,10.883,0,0,0,.219,2.466,3.15,3.15,0,0,0,.646,1.392A1.994,1.994,0,0,0,6.9,21.8a4.66,4.66,0,0,0,1.218.151A3.437,3.437,0,0,0,9.7,21.609a4.265,4.265,0,0,0,1.328-1.168l1.031,1.016a5.418,5.418,0,0,1-1.676,1.506,4.983,4.983,0,0,1-2.45.526,6.588,6.588,0,0,1-1.844-.244,3,3,0,0,1-1.436-.9,4.54,4.54,0,0,1-.922-1.768A10.149,10.149,0,0,1,3.4,17.731Z" transform="translate(138.715 2.673)" fill="#070707"/>
      <path id="Fill_10" data-name="Fill 10" d="M8.575,18.221a9.051,9.051,0,0,1-3.4-.658A7.772,7.772,0,0,1,2.434,15.7,8.618,8.618,0,0,1,.644,12.819,10.819,10.819,0,0,1,.609,5.571a9.287,9.287,0,0,1,1.675-2.9A7.639,7.639,0,0,1,8.091,0h.166a8.269,8.269,0,0,1,3.151.62,7.143,7.143,0,0,1,2.578,1.825,8.431,8.431,0,0,1,1.7,2.993,12.781,12.781,0,0,1,.608,4.123H1.84a7.912,7.912,0,0,0,.548,2.767,7.232,7.232,0,0,0,1.4,2.259,6.3,6.3,0,0,0,2.12,1.507,6.687,6.687,0,0,0,2.658.549h.083a8.148,8.148,0,0,0,3.207-.678,8.3,8.3,0,0,0,1.419-.79,5.093,5.093,0,0,0,1.087-1.017l1.189,1.013a7.379,7.379,0,0,1-3,2.24,9.828,9.828,0,0,1-3.889.809ZM8.1,1.581a5.92,5.92,0,0,0-2.411.508A5.832,5.832,0,0,0,3.756,3.481a7.062,7.062,0,0,0-1.309,2.07,7.552,7.552,0,0,0-.572,2.542H14.481a7.785,7.785,0,0,0-1.99-4.856A5.805,5.805,0,0,0,8.413,1.577c-.078,0-.158,0-.236,0Z" transform="translate(152.841 7.944)" fill="#070707"/>
      <path id="Fill_11" data-name="Fill 11" d="M0,25.109H1.659V0H0Z" transform="translate(173.367 0.604)" fill="#070707"/>
      <path id="Fill_12" data-name="Fill 12" d="M0,25.109H1.66V0H0Z" transform="translate(180.113 0.604)" fill="#070707"/>
      <path id="Fill_13" data-name="Fill 13" d="M17.757,1.41A11.888,11.888,0,0,0,1.666,6.279q-.141.265-.27.536a12.952,12.952,0,0,0,5.144,17.1,11.6,11.6,0,0,0,9.2.844l.014.011a6.658,6.658,0,0,0,2.1-.987,9.57,9.57,0,0,1-2.709-3.25.038.038,0,0,0-.008-.027A7.741,7.741,0,0,1,8.4,20.175,8.646,8.646,0,0,1,4.964,8.76,7.936,7.936,0,0,1,15.531,4.973c.121.056.239.116.356.179a8.424,8.424,0,0,1,4.257,6.259l4.092,2.225A12.791,12.791,0,0,0,17.752,1.412" transform="translate(0 0.541)" fill="#070707"/>
      <path id="Fill_14" data-name="Fill 14" d="M6.583,23.96a11.89,11.89,0,0,0,16.07-4.947q.14-.265.266-.535A12.952,12.952,0,0,0,17.7,1.4,11.6,11.6,0,0,0,8.493.6L8.479.589a6.686,6.686,0,0,0-2.1.986A9.6,9.6,0,0,1,9.1,4.817l.008.026a7.745,7.745,0,0,1,6.744.3,8.648,8.648,0,0,1,3.483,11.4A7.938,7.938,0,0,1,8.782,20.385c-.121-.057-.24-.115-.357-.179a8.417,8.417,0,0,1-4.284-6.238l-4.1-2.206A12.784,12.784,0,0,0,6.576,23.955" transform="translate(15.537 0.514)" fill="#070707"/>
    </g>
  </g>
</svg>
