<svg id="Coricraft" xmlns="http://www.w3.org/2000/svg" xmlns:xlink="http://www.w3.org/1999/xlink" width="170" height="16.319" viewBox="0 0 170 16.319">
  <defs>
    <clipPath id="clip-path">
      <path id="Clip_8" data-name="Clip 8" d="M0,16.319H170V0H0Z" fill="none"/>
    </clipPath>
  </defs>
  <path id="Fill_1" data-name="Fill 1" d="M12.5,16.194a16.427,16.427,0,0,1-8.837-2.368C1.3,12.3,0,10.264,0,8.1S1.3,3.9,3.658,2.368A16.426,16.426,0,0,1,12.5,0a16.426,16.426,0,0,1,8.837,2.368C23.692,3.9,24.991,5.93,24.991,8.1s-1.3,4.2-3.659,5.729A16.427,16.427,0,0,1,12.5,16.194Zm0-12A7.512,7.512,0,0,0,8.359,5.326a3.388,3.388,0,0,0-1.7,2.77,3.4,3.4,0,0,0,1.716,2.753A7.466,7.466,0,0,0,12.5,12,7.453,7.453,0,0,0,16.6,10.864,3.472,3.472,0,0,0,18.332,8.1a3.4,3.4,0,0,0-1.716-2.753A7.462,7.462,0,0,0,12.5,4.19Z" transform="translate(19.277 0.002)" fill="#020203"/>
  <path id="Fill_3" data-name="Fill 3" d="M0,8.1c0,4.48,4.4,8.1,11.923,8.1a17.763,17.763,0,0,0,5.837-.9V10.113A7.366,7.366,0,0,1,12.578,12c-3.165,0-5.755-1.769-5.755-3.9,0-2.178,2.589-3.9,5.755-3.9a7.367,7.367,0,0,1,5.179,1.891V.906A17.765,17.765,0,0,0,11.923,0C4.4,0,0,3.617,0,8.1" transform="translate(0 0)" fill="#020203"/>
  <path id="Fill_5" data-name="Fill 5" d="M0,8.1c0,4.48,4.4,8.1,11.923,8.1a17.763,17.763,0,0,0,5.837-.9V10.113A7.367,7.367,0,0,1,12.581,12c-3.165,0-5.755-1.769-5.755-3.9,0-2.178,2.589-3.9,5.755-3.9A7.367,7.367,0,0,1,17.76,6.085V.906A17.763,17.763,0,0,0,11.923,0C4.4,0,0,3.617,0,8.1" transform="translate(75.546 0)" fill="#020203"/>
  <path id="Clip_8-2" data-name="Clip 8" d="M0,16.319H170V0H0Z" fill="none"/>
  <g id="Coricraft-2" data-name="Coricraft" clip-path="url(#clip-path)">
    <path id="Fill_7" data-name="Fill 7" d="M0,16.072H6.371V0H0Z" transform="translate(67.408 0.207)" fill="#020203"/>
    <path id="Fill_9" data-name="Fill 9" d="M16.112,0H0V4.522H4.85V16.112h6.371V4.522h4.892Z" transform="translate(153.888 0.207)" fill="#020203"/>
    <path id="Fill_10" data-name="Fill 10" d="M2.219,0H0V16.112H6.371v-6h5.8V6.33h-5.8V4.522h6.824V0Z" transform="translate(139.008 0.207)" fill="#020203"/>
    <path id="Fill_11" data-name="Fill 11" d="M6.371,16.07H0V0H11.633A5.863,5.863,0,0,1,15.3,1.372a4.345,4.345,0,0,1,1.721,3.314v.655a4.869,4.869,0,0,1-3.577,4.276l6.494,6.414H11.756l-4.933-5.3H6.371v5.341Zm0-12.618V7.236h2.32a2.012,2.012,0,0,0,2-1.769V5.222a2.011,2.011,0,0,0-2-1.769H6.371Z" transform="translate(45.871 0.248)" fill="#020203"/>
    <path id="Fill_12" data-name="Fill 12" d="M25.112,16.073H11.756l-4.933-5.3H6.371v5.3H0V0H11.635A5.863,5.863,0,0,1,15.3,1.372,4.345,4.345,0,0,1,17.02,4.685v.658c0,2.126-1.777,3.72-3.538,4.357l4.973,4.891L27.127,0h6.536l9.621,16.071-7.562,0-1.769-3.29h-7.07l-1.77,3.29Zm5.3-9.865L28.73,9.373H32.1ZM6.329,3.494V7.277h2.32a2.011,2.011,0,0,0,2-1.769V5.263a2.011,2.011,0,0,0-2-1.769H6.329Z" transform="translate(95.03 0.207)" fill="#020203"/>
  </g>
</svg>
