<svg xmlns="http://www.w3.org/2000/svg" width="113.852" height="55.676" viewBox="0 0 113.852 55.676">
  <g id="Engen_logo" data-name="Engen logo" transform="translate(0 0)">
    <path id="Fill_1" data-name="Fill 1" d="M49.534,5.015l-24.288,12.6-4.171-2.573,17.61-9.083C34.5,4.208,28.005,4.342,28.005,4.342c-19.763.942-19.292,10.7-19.292,10.7,0,2.3,2.2,9.6,19.292,10.462,20.705-.656,21.664-11.168,18.922-14.263l6.442-3.414a10.636,10.636,0,0,1,3.5,7.216c.067,5.18-6.8,14.129-28.863,14.8C5.972,28.562.068,20.287,0,15.039-.067,9.842,6.308.726,28.005,0,42.6-.132,49.534,5.015,49.534,5.015" transform="translate(28.492 0)"/>
    <path id="Fill_3" data-name="Fill 3" d="M56.934,17.543a25.568,25.568,0,0,1-7.468-1.011c-2.377-.77-3.633-1.891-3.633-3.244V4.255c0-1.353,1.256-2.474,3.633-3.244A25.568,25.568,0,0,1,56.934,0a25.492,25.492,0,0,1,7.453,1.011c2.375.77,3.631,1.892,3.631,3.244v.538a.837.837,0,0,1-.875.791h-5.08a.8.8,0,0,1-.874-.757V4.793c0-.4-.384-.739-1.111-.992a12.973,12.973,0,0,0-6.29,0c-.727.253-1.111.6-1.111.992v7.956c0,.4.384.74,1.111.993a13,13,0,0,0,6.29,0c.727-.253,1.111-.6,1.111-.993V11.1a.415.415,0,0,0-.437-.386H57.826a.865.865,0,0,1-.892-.808V8.09a.844.844,0,0,1,.875-.807h9.335a.844.844,0,0,1,.875.807v5.2c0,1.352-1.256,2.474-3.631,3.244A25.492,25.492,0,0,1,56.934,17.543Zm56.094-.236h-5.2a.848.848,0,0,1-.2-.016,1.121,1.121,0,0,1-.319-.151c-.051-.034-8.743-8.743-8.831-8.831v8.276a.769.769,0,0,1-.807.723H92.458a.769.769,0,0,1-.807-.723V.959a.76.76,0,0,1,.807-.723h5.214l.071,0a.661.661,0,0,1,.485.187l8.8,8.8V.959a.76.76,0,0,1,.807-.723h5.215a.76.76,0,0,1,.806.723V16.584A.779.779,0,0,1,113.028,17.307Zm-25.365,0H72.223a.76.76,0,0,1-.807-.723V.959a.76.76,0,0,1,.807-.723H87.681a.76.76,0,0,1,.807.723V2.893a.784.784,0,0,1-.807.757H78.648a.368.368,0,0,0-.4.354V6.694a.383.383,0,0,0,.4.37h7.317a.761.761,0,0,1,.807.724V9.755a.761.761,0,0,1-.807.724H78.648a.383.383,0,0,0-.4.37V13.54a.381.381,0,0,0,.4.354h9.032a.777.777,0,0,1,.807.74v1.951A.779.779,0,0,1,87.664,17.307Zm-46.035,0h-5.2a.841.841,0,0,1-.2-.016.932.932,0,0,1-.319-.151c-.066-.033-8.473-8.471-8.83-8.83v8.275a.779.779,0,0,1-.823.723h-5.2a.779.779,0,0,1-.824-.723V.959a.779.779,0,0,1,.824-.723h5.2l.07,0a.724.724,0,0,1,.5.187l8.78,8.8V.959a.779.779,0,0,1,.824-.723h5.2a.779.779,0,0,1,.824.723V16.584A.779.779,0,0,1,41.629,17.307Zm-25.364,0H.823A.779.779,0,0,1,0,16.584V.959A.769.769,0,0,1,.807.236H16.265a.779.779,0,0,1,.823.723V2.893a.8.8,0,0,1-.823.757H7.232a.382.382,0,0,0-.4.354V6.694a.393.393,0,0,0,.4.37h7.333a.761.761,0,0,1,.807.724V9.755a.78.78,0,0,1-.824.724H7.232a.393.393,0,0,0-.4.37V13.54a.391.391,0,0,0,.4.354h9.032a.786.786,0,0,1,.823.74v1.951A.779.779,0,0,1,16.265,17.307Z" transform="translate(0 38.133)" fill="#030303"/>
  </g>
</svg>
