<svg xmlns="http://www.w3.org/2000/svg" width="128.872" height="57.26" viewBox="0 0 128.872 57.26">
  <g id="Flash_logo" data-name="Flash logo" transform="translate(0 0)">
    <path id="Fill_1" data-name="Fill 1" d="M44.42,16.607a8.377,8.377,0,0,1-4.078-1.076,7.571,7.571,0,0,1-1.7-1.284.919.919,0,0,1-.048-1.22L40.078,11.3a.9.9,0,0,1,.6-.31c.03,0,.06,0,.089,0a.884.884,0,0,1,.6.243,5.917,5.917,0,0,0,.976.73,5.156,5.156,0,0,0,1.074.477,3.489,3.489,0,0,0,1.038.169h.014a2.91,2.91,0,0,0,1.027-.15.892.892,0,0,0,.444-.319.853.853,0,0,0,.124-.468.688.688,0,0,0-.114-.421,1.414,1.414,0,0,0-.479-.365c-.277-.147-.579-.276-.87-.4l-.2-.086-1.966-.852a8.149,8.149,0,0,1-1.174-.624,5.587,5.587,0,0,1-1.1-.943,4.492,4.492,0,0,1-.826-1.323,4.6,4.6,0,0,1-.321-1.734,4.458,4.458,0,0,1,.447-1.984,4.776,4.776,0,0,1,1.225-1.56A5.741,5.741,0,0,1,42.489.362,6.78,6.78,0,0,1,44.713,0h.01a6.955,6.955,0,0,1,1.858.253,7.4,7.4,0,0,1,1.707.715,6.7,6.7,0,0,1,1.453,1.111.869.869,0,0,1,.257.6.9.9,0,0,1-.194.585L48.516,4.885a.908.908,0,0,1-.707.34.88.88,0,0,1-.566-.209,4.964,4.964,0,0,0-1.207-.762A3.38,3.38,0,0,0,44.714,4a2.308,2.308,0,0,0-.85.128.837.837,0,0,0-.393.275.655.655,0,0,0-.11.382.48.48,0,0,0,.125.335,1.832,1.832,0,0,0,.542.379c.3.155.627.29.94.42l.11.046,1.948.812a7.651,7.651,0,0,1,1.317.707,5.175,5.175,0,0,1,1.1.98,4.356,4.356,0,0,1,.749,1.321,4.973,4.973,0,0,1,.272,1.686,4.763,4.763,0,0,1-.437,2.019,4.863,4.863,0,0,1-1.235,1.639,5.78,5.78,0,0,1-1.905,1.086,7.46,7.46,0,0,1-2.453.392Zm-20.208-.26c-.032,0-.064,0-.1,0a1.07,1.07,0,0,1-.362-.089.712.712,0,0,1-.377-.4,1,1,0,0,1,.017-.69L28.046.884a.89.89,0,0,1,.347-.459A.9.9,0,0,1,28.9.263h2.972a.87.87,0,0,1,.544.187.9.9,0,0,1,.31.434l4.65,14.273a1.046,1.046,0,0,1,.031.1l.009.034a1.02,1.02,0,0,1,.029.377.714.714,0,0,1-.264.478.993.993,0,0,1-.657.2H33.86A.905.905,0,0,1,33,15.694l-.928-3.217H28.615l-.928,3.217a.873.873,0,0,1-.329.472.891.891,0,0,1-.533.178H24.273Zm6.136-10-.642,2.348H31l-.651-2.348Zm33.627,10H61.44a.844.844,0,0,1-.49-.156.969.969,0,0,1-.3-.332.873.873,0,0,1-.111-.41V10.009H56.549v5.438a.851.851,0,0,1-.154.487.931.931,0,0,1-.335.3.877.877,0,0,1-.41.111H53.117a.851.851,0,0,1-.487-.154.949.949,0,0,1-.3-.329.843.843,0,0,1-.113-.415V1.159a.851.851,0,0,1,.153-.487.967.967,0,0,1,.329-.3.852.852,0,0,1,.415-.112h2.534a.856.856,0,0,1,.487.152.972.972,0,0,1,.3.327.859.859,0,0,1,.113.418V6.008h3.994V1.159A.861.861,0,0,1,60.7.672a.954.954,0,0,1,.333-.3A.85.85,0,0,1,61.44.263h2.534a.847.847,0,0,1,.487.152.965.965,0,0,1,.3.327.859.859,0,0,1,.113.418V15.447a.863.863,0,0,1-.153.488.952.952,0,0,1-.332.3A.876.876,0,0,1,63.975,16.345Zm-42.644,0H12.855a.851.851,0,0,1-.487-.154.949.949,0,0,1-.3-.329.843.843,0,0,1-.113-.415V1.159A.851.851,0,0,1,12.11.672a.967.967,0,0,1,.329-.3.852.852,0,0,1,.415-.112h2.533a.862.862,0,0,1,.488.152.966.966,0,0,1,.3.33.853.853,0,0,1,.113.414v11.25h5.045a.851.851,0,0,1,.487.153.973.973,0,0,1,.3.329.848.848,0,0,1,.113.415v2.14a.857.857,0,0,1-.153.487.973.973,0,0,1-.33.3A.851.851,0,0,1,21.331,16.345Zm-17.9,0H.9a.851.851,0,0,1-.487-.154.949.949,0,0,1-.3-.329A.843.843,0,0,1,0,15.447V1.159A.842.842,0,0,1,.153.672a.973.973,0,0,1,.329-.3A.857.857,0,0,1,.9.263H9.527a.856.856,0,0,1,.487.152.96.96,0,0,1,.3.327.859.859,0,0,1,.113.418V3.3a.85.85,0,0,1-.155.491.97.97,0,0,1-.333.3.866.866,0,0,1-.41.111h-5.2V6.445h4.3a.857.857,0,0,1,.487.153.959.959,0,0,1,.3.326.86.86,0,0,1,.113.419V9.483a.857.857,0,0,1-.153.487.952.952,0,0,1-.335.3.872.872,0,0,1-.41.111h-4.3v5.066a.856.856,0,0,1-.152.487.937.937,0,0,1-.336.3A.875.875,0,0,1,3.432,16.345Z" transform="translate(64 22)" fill="#000200"/>
    <path id="Fill_1-2" data-name="Fill 1" d="M32.151,3.192c0,2.792,1.514,5.632,3.683,6.138,1.789.722-1.065.414-2.438.508C22.837,10.561,13.64,7.621,6.861,8.344-3.112,9.408.726,20.9.726,27.743c0,1.832-.491,3.038-.491,6.138,0,2.619,2.04,1.108,1.263,7.893a14.6,14.6,0,0,0,.21,3.646,4.1,4.1,0,0,0,3.437-.245c0-1.891-.491-3.681-.491-5.647,0-2.712.611-7.043,1.473-8.839,2.809.75.379,3.671,1.822,3.3.875-.224.131-.724,1.615-.847.1.433.186.907.273,1.377.372,2.009.741.685,1.307-.189,1.819,2.716,4.312,7.589,4.312,12.07a7.638,7.638,0,0,0,4.173,0c-.38-4.574-3.928-6.557-3.928-12.275,2.294,0,3,.491,5.4.491l2.938,4.427a20.536,20.536,0,0,1,3,8.295c.248,1.712.057,3,.2,3.31.44.971,1.475.517,1.475,6.064a9.581,9.581,0,0,0,5.647.245c0-2.254-.952-3.983-1.65-5.715-3.044-7.558-.986-8.326-.088-12.717C33.3,35.213,34.5,28.265,38.154,27.11c1.467-.463,1.714-.1,3.572-.1,2.077,0,1.036-.962,2.74.188,3.512,2.369,9.535.58,9.535-3.625,0-1.149-4.419-4.851-4.419-8.1,0-3.452.491-3.194.491-4.174,0-1.117-2.007-.287-2.455-1.964,3.78-.881,5.232-7.606,2.455-8.347,0,1.877-.306,3.166-1.274,4.127-2.97,2.95-12.926.9-13.556.391-1.277-1.03-.651-4.98-2.6-5.5a15.3,15.3,0,0,0-.491,3.192" transform="translate(0 0)" fill="#000200"/>
  </g>
</svg>
