<svg id="Hertex" xmlns="http://www.w3.org/2000/svg" xmlns:xlink="http://www.w3.org/1999/xlink" width="196.541" height="33" viewBox="0 0 196.541 33">
  <defs>
    <clipPath id="clip-path">
      <path id="Clip_2" data-name="Clip 2" d="M0,0H27V29H0Z" fill="none"/>
    </clipPath>
    <clipPath id="clip-path-2">
      <path id="Clip_7" data-name="Clip 7" d="M0,0H13.541V19.164H0Z" transform="translate(0 0.23)" fill="none"/>
    </clipPath>
    <clipPath id="clip-path-3">
      <path id="Clip_10" data-name="Clip 10" d="M0,0H14.459V19.308H0Z" transform="translate(0 0.2)" fill="none"/>
    </clipPath>
  </defs>
  <g id="Group_3" data-name="Group 3" transform="translate(0 2)">
    <path id="Clip_2-2" data-name="Clip 2" d="M0,0H27V29H0Z" fill="none"/>
    <g id="Group_3-2" data-name="Group 3" clip-path="url(#clip-path)">
      <path id="Fill_1" data-name="Fill 1" d="M0,.271V0H7.6V.271c-.055,0-.055.054-.109.054-.219.054-.437.054-.6.108C5.848.6,5.466,1.03,5.466,2.06v11.6H21.48V3.469a12.518,12.518,0,0,0-.219-2.06A1.129,1.129,0,0,0,20.113.434c-.219,0-.437-.054-.711-.054V.108h7.215c.219,0,.383,0,.273.325a3.223,3.223,0,0,0-.711.108,1.266,1.266,0,0,0-1.257,1.247c.055.65,0,1.518,0,2.331V24.826c0,.759.055,1.572.109,2.331.055,1.084.765,1.409,1.585,1.464H27V29H19.512v-.271c.383-.108.82-.163,1.148-.271.547-.163.656-.65.711-1.138.055-.65.164-1.247.164-1.9v-10.9H5.52V26.507a3.307,3.307,0,0,0,.055.7,1.526,1.526,0,0,0,1.64,1.409h.437V29H.055v-.325a1.862,1.862,0,0,0,1.64-.542,2.074,2.074,0,0,0,.437-1.409V3.686c0-.7-.055-1.464-.109-2.168A1.12,1.12,0,0,0,.984.434C.6.379.328.325,0,.271"/>
    </g>
  </g>
  <g id="Group_6" data-name="Group 6" transform="translate(57 7)">
    <path id="Fill_4" data-name="Fill 4" d="M2.524,19.165H0V0H3.442A39.113,39.113,0,0,1,8.607.23,4.9,4.9,0,0,1,11.49,1.65a4.6,4.6,0,0,1,1.248,2.71A5.924,5.924,0,0,1,12.106,7.9a4.873,4.873,0,0,1-2.7,2.081c-.057,0-.086.028-.129.071a.76.76,0,0,1-.215.157c1.262,2.986,2.662,6.018,4.016,8.95H10.557c-.116,0-.356-.242-.459-.346-.475-1.043-.935-2.1-1.38-3.121-.626-1.437-1.274-2.923-1.947-4.337-.218-.436-.439-.689-.918-.689H2.524v8.492ZM5.134,2.243c-.442,0-.893.013-1.33.026s-.863.025-1.28.025v6.2c.544,0,1.079.013,1.6.026s1,.025,1.5.025c.568,0,1.044-.016,1.5-.052,1.151-.1,2.392-.4,2.869-1.836A4.644,4.644,0,0,0,10.1,4.474,2.069,2.069,0,0,0,8.491,2.638,6.526,6.526,0,0,0,6.426,2.3C6.049,2.26,5.626,2.243,5.134,2.243Z" transform="translate(53.017 0.23)"/>
    <g id="Group_8" data-name="Group 8">
      <path id="Clip_7-2" data-name="Clip 7" d="M0,0H13.541V19.164H0Z" transform="translate(0 0.23)" fill="none"/>
      <g id="Group_8-2" data-name="Group 8" clip-path="url(#clip-path-2)">
        <path id="Fill_6" data-name="Fill 6" d="M2.525,8.033h8.492V0h2.525V19.164H11.016V10.328H2.525v8.836H0V0H2.525Z" transform="translate(0 0.23)"/>
      </g>
    </g>
    <g id="Group_11" data-name="Group 11" transform="translate(125.082)">
      <path id="Clip_10-2" data-name="Clip 10" d="M0,0H14.459V19.308H0Z" transform="translate(0 0.2)" fill="none"/>
      <g id="Group_11-2" data-name="Group 11" clip-path="url(#clip-path-3)">
        <path id="Fill_9" data-name="Fill 9" d="M.344.03H2.984c.23,0,.344.23.574.458C4.7,2.439,5.967,4.5,7.115,6.571c.23-.345.459-.689.689-1.033C8.721,3.93,9.639,2.209,10.672.6c.23-.459.459-.69,1.033-.574H14C13.426,1.061,12.852,1.98,12.393,2.9c-1.148,1.951-2.18,4.016-3.443,5.967a.682.682,0,0,0,0,.8c1.721,2.985,3.443,5.854,5.164,8.837a5.6,5.6,0,0,1,.344.8H11.7a.517.517,0,0,1-.344-.344c-1.377-2.3-2.754-4.59-4.131-7.115-.574.918-1.033,1.721-1.492,2.525-.8,1.492-1.721,2.984-2.525,4.474-.115.116-.23.345-.459.345H0c.459-.919.918-1.607,1.377-2.41,1.377-2.41,2.639-4.7,4.016-7.116a.859.859,0,0,0,0-1.032C3.672,5.882,2.066,3.013.459.259A.4.4,0,0,1,.344.03" transform="translate(0 0.2)"/>
      </g>
    </g>
    <path id="Fill_12" data-name="Fill 12" d="M2.525,10.328V17.1h9.639v2.067H0V0H11.7V2.179H2.525V8.033H9.066v2.3Z" transform="translate(28 0.23)"/>
    <path id="Fill_14" data-name="Fill 14" d="M2.411,2.179V8.033H8.952v2.3H2.411V17.1h9.754v2.067H0V0H11.591V2.179Z" transform="translate(102.589 0.23)"/>
    <path id="Fill_16" data-name="Fill 16" d="M5.623,2.179H0V0H13.77V2.064H8.146v17.1H5.623Z" transform="translate(76.656 0.23)"/>
  </g>
  <path id="Fill_18" data-name="Fill 18" d="M32.96.772H.564c-.262,0-.7.2-.524-.5h32.4c.263-.1.7-.2.525.5" transform="translate(42) rotate(90)"/>
</svg>
