<svg xmlns="http://www.w3.org/2000/svg" xmlns:xlink="http://www.w3.org/1999/xlink" width="199.963" height="34.768" viewBox="0 0 199.963 34.768">
  <defs>
    <clipPath id="clip-path">
      <path id="Clip_21" data-name="Clip 21" d="M0,34.768H199.963V0H0Z" transform="translate(0 0.097)" fill="none"/>
    </clipPath>
  </defs>
  <g id="Imagemakers_logo" data-name="Imagemakers logo" transform="translate(0 -0.317)">
    <path id="Fill_1" data-name="Fill 1" d="M0,15.708H1.6V0H0Z" transform="translate(38.948 6.301)" fill="#231f20"/>
    <path id="Fill_2" data-name="Fill 2" d="M7.743,12.78,13.046,0h2.441V15.708h-1.6V2.13h-.044L8.165,15.708H7.322L1.642,2.13H1.6V15.708H0V0H2.441Z" transform="translate(44.916 6.301)" fill="#231f20"/>
    <path id="Fill_3" data-name="Fill 3" d="M1.864,15.709H0L6.834,0H8.387l6.832,15.707H13.357l-1.731-4.127H3.595L1.864,15.709ZM7.61,1.864,4.193,10.117h6.812L7.61,1.864Z" transform="translate(62.643 6.301)" fill="#231f20"/>
    <g id="Group_38" data-name="Group 38" transform="translate(0 0.22)">
      <path id="Fill_4" data-name="Fill 4" d="M12.669,3.284a5.835,5.835,0,0,0-1.908-1.331,6.345,6.345,0,0,0-2.574-.488,6.373,6.373,0,0,0-2.707.555A6.146,6.146,0,0,0,3.45,3.506,6.539,6.539,0,0,0,2.174,5.669a7.75,7.75,0,0,0,0,5.17A6.539,6.539,0,0,0,3.45,13a6.142,6.142,0,0,0,2.03,1.487,6.368,6.368,0,0,0,2.707.555,9.027,9.027,0,0,0,2.341-.3,8.329,8.329,0,0,0,2.008-.81V8.675H8.786V7.211h5.347v7.7A11.44,11.44,0,0,1,11.216,16.1a12.1,12.1,0,0,1-3.029.41,8.4,8.4,0,0,1-3.25-.621A7.8,7.8,0,0,1,.621,11.559,8.6,8.6,0,0,1,0,8.254,8.6,8.6,0,0,1,.621,4.948,7.8,7.8,0,0,1,4.937.621,8.4,8.4,0,0,1,8.187,0a9.112,9.112,0,0,1,3.25.521,6.88,6.88,0,0,1,2.429,1.586Z" transform="translate(79.039 5.682)" fill="#231f20"/>
      <path id="Fill_6" data-name="Fill 6" d="M1.6,14.244h8.409v1.464H0V0H9.74V1.464H1.6V6.811h7.61V8.276H1.6Z" transform="translate(97.477 6.082)" fill="#231f20"/>
      <path id="Fill_8" data-name="Fill 8" d="M7.744,12.78,13.046,0h2.441V15.708h-1.6V2.13h-.044L8.165,15.708H7.322L1.642,2.13H1.6V15.708H0V0H2.441Z" transform="translate(110.744 6.082)" fill="#231f20"/>
      <path id="Fill_10" data-name="Fill 10" d="M1.863,15.709H0L6.834,0H8.386l6.833,15.707H13.356l-1.731-4.127H3.594L1.863,15.709ZM7.61,1.864,4.193,10.117H11L7.609,1.864Z" transform="translate(128.472 6.082)" fill="#231f20"/>
      <path id="Fill_12" data-name="Fill 12" d="M1.6,6.811h.222L9.208,0h2.286L3.572,7.122l8.365,8.586H9.585L1.864,7.61H1.6v8.1H0V0H1.6Z" transform="translate(145.933 6.082)" fill="#231f20"/>
      <path id="Fill_14" data-name="Fill 14" d="M1.6,14.244h8.409v1.464H0V0H9.74V1.464H1.6V6.811h7.61V8.276H1.6Z" transform="translate(160.021 6.082)" fill="#231f20"/>
      <path id="Fill_16" data-name="Fill 16" d="M1.6,15.71H0V0H4.838A6.181,6.181,0,0,1,8.619,1.043a3.7,3.7,0,0,1,1.387,3.15A3.94,3.94,0,0,1,8.975,6.955a4.45,4.45,0,0,1-2.984,1.3l4.526,7.453-1.952,0-4.3-7.3H1.6v7.3Zm0-14.245v5.48h2.84a6.439,6.439,0,0,0,1.809-.221,3.351,3.351,0,0,0,1.186-.589,2.142,2.142,0,0,0,.644-.865,2.885,2.885,0,0,0,.2-1.076,2.824,2.824,0,0,0-.2-1.054,2.228,2.228,0,0,0-.644-.876,3.144,3.144,0,0,0-1.186-.589,6.751,6.751,0,0,0-1.809-.211Z" transform="translate(173.289 6.082)" fill="#231f20"/>
      <path id="Fill_18" data-name="Fill 18" d="M8.453,3a3.447,3.447,0,0,0-3.04-1.531,4.536,4.536,0,0,0-1.22.166,3.36,3.36,0,0,0-1.076.51,2.546,2.546,0,0,0-.765.887A2.683,2.683,0,0,0,2.063,4.3a2.211,2.211,0,0,0,.6,1.653,4.735,4.735,0,0,0,1.487.965A16.439,16.439,0,0,0,6.09,7.6a8.92,8.92,0,0,1,1.941.8,4.633,4.633,0,0,1,1.487,1.32,3.731,3.731,0,0,1,.6,2.241,4.02,4.02,0,0,1-.455,1.919,4.411,4.411,0,0,1-1.2,1.431A5.628,5.628,0,0,1,6.8,16.2a5.758,5.758,0,0,1-1.853.311,7.017,7.017,0,0,1-2.74-.544A5.21,5.21,0,0,1,0,14.177l1.464-1.043A3.8,3.8,0,0,0,2.88,14.521a4.229,4.229,0,0,0,2.145.522,3.936,3.936,0,0,0,1.194-.189A3.422,3.422,0,0,0,7.292,14.3a3.066,3.066,0,0,0,.785-.9,2.382,2.382,0,0,0,.31-1.22,2.509,2.509,0,0,0-.344-1.365,2.969,2.969,0,0,0-.91-.91A5.76,5.76,0,0,0,5.846,9.3q-.721-.244-1.487-.488T2.874,8.254a5.116,5.116,0,0,1-1.287-.788,3.529,3.529,0,0,1-.91-1.2A4.19,4.19,0,0,1,.333,4.46,4.271,4.271,0,0,1,.765,2.485a4.1,4.1,0,0,1,1.154-1.4A4.909,4.909,0,0,1,3.55.266,6.6,6.6,0,0,1,5.414,0,6.645,6.645,0,0,1,7.832.422,5.217,5.217,0,0,1,9.851,1.908Z" transform="translate(185.536 5.682)" fill="#231f20"/>
      <path id="Clip_21-2" data-name="Clip 21" d="M0,34.768H199.963V0H0Z" transform="translate(0 0.097)" fill="none"/>
      <g id="Group_38-2" data-name="Group 38" clip-path="url(#clip-path)">
        <path id="Fill_20" data-name="Fill 20" d="M1.77,13.712H.2V3.956H1.77v9.755ZM.976,1.933A.857.857,0,0,1,0,.976.865.865,0,0,1,.976,0,.881.881,0,0,1,1.987.976C1.987,1.611,1.647,1.933.976,1.933Z" transform="translate(6.691 3.902)" fill="#231f20"/>
        <path id="Fill_22" data-name="Fill 22" d="M0,.181H1.3l.108,1.138H1.5a13.908,13.908,0,0,1,1.969-1A4.333,4.333,0,0,1,5.041,0,2.281,2.281,0,0,1,7.371,1.337h.072A11.81,11.81,0,0,1,9.449.307,4.539,4.539,0,0,1,11.021,0a2.583,2.583,0,0,1,1.906.659,2.744,2.744,0,0,1,.659,2.015V9.937H12.014V3.216a2.116,2.116,0,0,0-.388-1.436,1.554,1.554,0,0,0-1.2-.424,3.64,3.64,0,0,0-1.274.271,11.372,11.372,0,0,0-1.545.741v7.57H6.016V3.216a2.114,2.114,0,0,0-.389-1.436,1.553,1.553,0,0,0-1.2-.424,3.618,3.618,0,0,0-1.31.289A11.7,11.7,0,0,0,1.572,2.4V9.937H0Z" transform="translate(11.316 7.678)" fill="#231f20"/>
        <path id="Fill_23" data-name="Fill 23" d="M4.936,1.572a1.817,1.817,0,0,0-.7-.551A2.079,2.079,0,0,0,3.364.827a2.341,2.341,0,0,0-1,.207A2.289,2.289,0,0,0,1.6,1.6a2.576,2.576,0,0,0-.492.841A3.012,3.012,0,0,0,.938,3.475a2.859,2.859,0,0,0,.165.974,2.442,2.442,0,0,0,.478.809,2.237,2.237,0,0,0,.763.551,2.464,2.464,0,0,0,1.021.2,2.026,2.026,0,0,0,.984-.23,2.106,2.106,0,0,0,.717-.643l.745.56a2.963,2.963,0,0,1-.258.29,2.571,2.571,0,0,1-.487.377,3.448,3.448,0,0,1-.73.331,3.125,3.125,0,0,1-.989.142,3.21,3.21,0,0,1-1.392-.294A3.407,3.407,0,0,1,0,3.475,3.807,3.807,0,0,1,.248,2.082,3.288,3.288,0,0,1,.942.979,3.1,3.1,0,0,1,2.013.258,3.591,3.591,0,0,1,3.392,0,3.382,3.382,0,0,1,4.655.248a2.362,2.362,0,0,1,1.016.763Z" transform="translate(112.581 28.027)" fill="#231f20"/>
        <path id="Fill_24" data-name="Fill 24" d="M3.392,6.839a3.526,3.526,0,0,1-1.37-.262A3.2,3.2,0,0,1,.951,5.855a3.343,3.343,0,0,1-.7-1.084A3.576,3.576,0,0,1,0,3.419,3.573,3.573,0,0,1,.253,2.068,3.356,3.356,0,0,1,.951.984,3.207,3.207,0,0,1,2.022.262,3.541,3.541,0,0,1,3.392,0,3.539,3.539,0,0,1,4.761.262,3.206,3.206,0,0,1,5.832.984a3.356,3.356,0,0,1,.7,1.084,3.573,3.573,0,0,1,.253,1.351A3.576,3.576,0,0,1,6.53,4.771a3.343,3.343,0,0,1-.7,1.084,3.2,3.2,0,0,1-1.071.722A3.523,3.523,0,0,1,3.392,6.839Zm0-6.011a2.362,2.362,0,0,0-1.784.762,2.462,2.462,0,0,0-.5.823A2.887,2.887,0,0,0,.938,3.419a2.89,2.89,0,0,0,.175,1.007,2.462,2.462,0,0,0,.5.823,2.367,2.367,0,0,0,1.784.763,2.366,2.366,0,0,0,1.783-.763,2.462,2.462,0,0,0,.5-.823,2.975,2.975,0,0,0,0-2.013,2.462,2.462,0,0,0-.5-.823A2.362,2.362,0,0,0,3.392.828Z" transform="translate(119.052 28.026)" fill="#231f20"/>
        <path id="Fill_25" data-name="Fill 25" d="M.882,6.509H0V0H2.289a2.691,2.691,0,0,1,1.03.17A1.767,1.767,0,0,1,3.957.6a1.482,1.482,0,0,1,.326.589,2.334,2.334,0,0,1,.092.629,1.66,1.66,0,0,1-.11.6,1.712,1.712,0,0,1-.317.524,1.828,1.828,0,0,1-.506.4,1.757,1.757,0,0,1-.667.2L4.622,6.506l-1.1,0L1.866,3.641H.882V6.508Zm0-5.737v2.1H2.04a3.232,3.232,0,0,0,.51-.041A1.389,1.389,0,0,0,3,2.675a.833.833,0,0,0,.317-.317,1.076,1.076,0,0,0,.12-.538,1.074,1.074,0,0,0-.12-.537A.835.835,0,0,0,3,.965,1.385,1.385,0,0,0,2.551.814,3.13,3.13,0,0,0,2.04.772Z" transform="translate(127.104 28.192)" fill="#231f20"/>
        <path id="Fill_26" data-name="Fill 26" d="M.882,6.508H0V0H2.289a2.691,2.691,0,0,1,1.03.17A1.767,1.767,0,0,1,3.957.6a1.482,1.482,0,0,1,.326.589,2.334,2.334,0,0,1,.092.629,2.337,2.337,0,0,1-.092.63,1.491,1.491,0,0,1-.326.589,1.754,1.754,0,0,1-.639.431,2.673,2.673,0,0,1-1.03.171H.882V6.507Zm0-5.736v2.1H2.04a3.232,3.232,0,0,0,.51-.04A1.389,1.389,0,0,0,3,2.675a.833.833,0,0,0,.317-.317,1.076,1.076,0,0,0,.12-.538,1.074,1.074,0,0,0-.12-.537A.835.835,0,0,0,3,.965,1.385,1.385,0,0,0,2.551.814,3.13,3.13,0,0,0,2.04.772Z" transform="translate(132.72 28.192)" fill="#231f20"/>
        <path id="Fill_27" data-name="Fill 27" d="M3.392,6.839a3.526,3.526,0,0,1-1.37-.262A3.2,3.2,0,0,1,.951,5.855a3.343,3.343,0,0,1-.7-1.084A3.576,3.576,0,0,1,0,3.419,3.573,3.573,0,0,1,.253,2.068,3.356,3.356,0,0,1,.951.984,3.207,3.207,0,0,1,2.022.262,3.541,3.541,0,0,1,3.392,0,3.539,3.539,0,0,1,4.761.262,3.206,3.206,0,0,1,5.832.984a3.356,3.356,0,0,1,.7,1.084,3.573,3.573,0,0,1,.253,1.351A3.576,3.576,0,0,1,6.53,4.771a3.343,3.343,0,0,1-.7,1.084,3.2,3.2,0,0,1-1.071.722A3.523,3.523,0,0,1,3.392,6.839Zm0-6.011a2.362,2.362,0,0,0-1.784.762,2.462,2.462,0,0,0-.5.823A2.887,2.887,0,0,0,.938,3.419a2.89,2.89,0,0,0,.175,1.007,2.462,2.462,0,0,0,.5.823,2.367,2.367,0,0,0,1.784.763,2.366,2.366,0,0,0,1.783-.763,2.462,2.462,0,0,0,.5-.823,2.975,2.975,0,0,0,0-2.013,2.462,2.462,0,0,0-.5-.823A2.362,2.362,0,0,0,3.392.828Z" transform="translate(137.766 28.026)" fill="#231f20"/>
        <path id="Fill_28" data-name="Fill 28" d="M.882,6.509H0V0H2.289a2.691,2.691,0,0,1,1.03.17A1.767,1.767,0,0,1,3.957.6a1.482,1.482,0,0,1,.326.589,2.334,2.334,0,0,1,.092.629,1.66,1.66,0,0,1-.11.6,1.712,1.712,0,0,1-.317.524,1.828,1.828,0,0,1-.506.4,1.757,1.757,0,0,1-.667.2L4.622,6.506l-1.1,0L1.866,3.641H.882V6.508Zm0-5.737v2.1H2.04a3.232,3.232,0,0,0,.51-.041A1.389,1.389,0,0,0,3,2.675a.833.833,0,0,0,.317-.317,1.076,1.076,0,0,0,.12-.538,1.074,1.074,0,0,0-.12-.537A.835.835,0,0,0,3,.965,1.385,1.385,0,0,0,2.551.814,3.13,3.13,0,0,0,2.04.772Z" transform="translate(145.818 28.192)" fill="#231f20"/>
        <path id="Fill_29" data-name="Fill 29" d="M1.029,6.509H0L2.868,0h.8L6.452,6.507H5.423L4.771,4.9h-3.1L1.03,6.508ZM3.218,1.139,1.985,4.127H4.449L3.236,1.139H3.218Z" transform="translate(150.607 28.192)" fill="#231f20"/>
        <path id="Fill_30" data-name="Fill 30" d="M2.1.827H0V0H5.074V.827h-2.1V6.508H2.1Z" transform="translate(156.324 28.192)" fill="#231f20"/>
        <path id="Fill_31" data-name="Fill 31" d="M0,0H4.2V.827H.882V2.767H3.971v.827H.882V5.681H4.366v.827H0Z" transform="translate(162.335 28.192)" fill="#231f20"/>
        <path id="Fill_32" data-name="Fill 32" d="M0,0H.919L2.358,5.2h.018L3.906,0H4.918l1.53,5.2h.018L7.9,0h.919L6.93,6.508H5.993L4.421,1.195H4.4L2.84,6.508H1.9Z" transform="translate(169.679 28.192)" fill="#231f20"/>
        <path id="Fill_33" data-name="Fill 33" d="M0,0H4.2V.827H.882V2.767H3.971v.827H.882V5.681H4.366v.827H0Z" transform="translate(179.349 28.192)" fill="#231f20"/>
        <path id="Fill_34" data-name="Fill 34" d="M1.029,6.509H0L2.867,0h.8L6.452,6.507H5.423L4.771,4.9h-3.1L1.03,6.508ZM3.217,1.139,1.985,4.127H4.449L3.236,1.139H3.217Z" transform="translate(184.138 28.192)" fill="#231f20"/>
        <path id="Fill_35" data-name="Fill 35" d="M.882,6.509H0V0H2.289a2.691,2.691,0,0,1,1.03.17A1.761,1.761,0,0,1,3.957.6a1.482,1.482,0,0,1,.326.589,2.3,2.3,0,0,1,.093.629,1.683,1.683,0,0,1-.111.6,1.712,1.712,0,0,1-.317.524,1.828,1.828,0,0,1-.506.4,1.757,1.757,0,0,1-.666.2L4.622,6.506l-1.1,0L1.867,3.641H.882V6.508Zm0-5.737v2.1H2.04a3.232,3.232,0,0,0,.51-.041A1.389,1.389,0,0,0,3,2.675a.833.833,0,0,0,.317-.317,1.068,1.068,0,0,0,.12-.538,1.066,1.066,0,0,0-.12-.537A.835.835,0,0,0,3,.965,1.385,1.385,0,0,0,2.551.814,3.13,3.13,0,0,0,2.04.772Z" transform="translate(191.436 28.192)" fill="#231f20"/>
        <path id="Fill_36" data-name="Fill 36" d="M2.122,4.244A2.039,2.039,0,0,1,1.3,4.076,2.156,2.156,0,0,1,.168,2.947,2.039,2.039,0,0,1,0,2.122,2.039,2.039,0,0,1,.168,1.3,2.186,2.186,0,0,1,.625.625,2.2,2.2,0,0,1,1.3.168,2.039,2.039,0,0,1,2.122,0a2.039,2.039,0,0,1,.824.168A2.156,2.156,0,0,1,4.076,1.3a2.039,2.039,0,0,1,.168.824,2.039,2.039,0,0,1-.168.824A2.156,2.156,0,0,1,2.947,4.076,2.039,2.039,0,0,1,2.122,4.244Zm0-3.868a1.708,1.708,0,0,0-.679.138A1.775,1.775,0,0,0,.887.887a1.754,1.754,0,0,0-.373.556,1.743,1.743,0,0,0,0,1.358,1.774,1.774,0,0,0,.373.556,1.792,1.792,0,0,0,.556.374,1.756,1.756,0,0,0,1.359,0,1.745,1.745,0,0,0,.93-.93,1.754,1.754,0,0,0,0-1.358A1.745,1.745,0,0,0,2.8.514,1.708,1.708,0,0,0,2.122.376ZM1.751,3.321H1.307V.9h.935a.953.953,0,0,1,.648.188.7.7,0,0,1,.208.543.643.643,0,0,1-.164.479.686.686,0,0,1-.412.188l.626,1.025-.467,0-.6-.993H1.751V3.32Zm0-2.048v.679h.325c.073,0,.14,0,.206-.009A.619.619,0,0,0,2.468,1.9.315.315,0,0,0,2.6,1.8a.31.31,0,0,0,.051-.188A.311.311,0,0,0,2.6,1.42a.329.329,0,0,0-.134-.1.568.568,0,0,0-.185-.04c-.068,0-.137-.005-.206-.005Z" transform="translate(195.718 2.83)" fill="#231f20"/>
        <path id="Fill_37" data-name="Fill 37" d="M30.772,27.982H0V0H30.772V27.981ZM1.268,22.23v4.484H29.5V22.23Zm0-20.962V20.963H29.5V1.268Z" transform="translate(0 0.097)" fill="#231f20"/>
      </g>
    </g>
  </g>
</svg>
