<svg id="KIA" xmlns="http://www.w3.org/2000/svg" width="104" height="50.661" viewBox="0 0 104 50.661">
  <path id="Fill_1" data-name="Fill 1" d="M52,50.661C23.328,50.661,0,39.3,0,25.329S23.328,0,52,0s52,11.361,52,25.329S80.673,50.661,52,50.661" fill="#231f20"/>
  <path id="Fill_3" data-name="Fill 3" d="M.088,1.742H1a.563.563,0,0,1,.569.569V28.286a.6.6,0,0,0,.609.609h6.8a.6.6,0,0,0,.612-.609V.61A.613.613,0,0,0,8.983,0H.088C0,0,0,.084,0,.15V1.594c0,.062,0,.148.088.148" transform="translate(47.395 10.348)" fill="#fefefe"/>
  <path id="Fill_5" data-name="Fill 5" d="M.563,28.9H7.241a.93.93,0,0,0,.8-.6l5.7-17.931s.065-.25.278-.25.271.248.273.25l5.757,17.931a.927.927,0,0,0,.805.6h6.676a.524.524,0,0,0,.441-.212.638.638,0,0,0,.1-.533L18.776.4a.769.769,0,0,0-.807-.4H7.307a.159.159,0,0,0-.152.15V1.594a.161.161,0,0,0,.152.148h.785a.507.507,0,0,1,.569.5.974.974,0,0,1-.067.328L.021,28.152a.612.612,0,0,0,.1.529.536.536,0,0,0,.439.215" transform="translate(62.257 10.348)" fill="#fefefe"/>
  <path id="Fill_7" data-name="Fill 7" d="M1.066,1.742a.565.565,0,0,1,.572.569V28.286a.6.6,0,0,0,.606.609H8.857a.607.607,0,0,0,.6-.609V17.363c0-.238.109-.375.3-.375a.492.492,0,0,1,.418.277.433.433,0,0,0,.027.039L18,28.232a1.456,1.456,0,0,0,1.061.663H26.91a.578.578,0,0,0,.411-.948c-.024-.035-9.845-13.924-9.944-14.064-.029-.043-.042-.07-.06-.1a.452.452,0,0,1-.05-.125.373.373,0,0,1-.017-.094.874.874,0,0,1,.12-.363l.008-.016L25.688.88a.58.58,0,0,0,0-.585A.554.554,0,0,0,25.209,0H17.756a1.476,1.476,0,0,0-1.068.663l-6.48,9.162c-.2.3-.4.316-.438.316H9.764a.287.287,0,0,1-.3-.306V.61a.609.609,0,0,0-.6-.61H.151A.157.157,0,0,0,0,.15V1.594a.158.158,0,0,0,.151.148Z" transform="translate(16.314 10.348)" fill="#fefefe"/>
</svg>
