<svg id="KitchenAid" xmlns="http://www.w3.org/2000/svg" width="199.546" height="16.987" viewBox="0 0 199.546 16.987">
  <path id="Fill_1" data-name="Fill 1" d="M0,9.857H8.038V0H0Z" transform="translate(27.651 6.795)" fill="#1a1919"/>
  <path id="Fill_2" data-name="Fill 2" d="M4.061,4.6c2.242,0,4.06-1.03,4.06-2.3S6.3,0,4.061,0,0,1.03,0,2.3,1.818,4.6,4.061,4.6" transform="translate(27.514 1.244)" fill="#1a1919"/>
  <path id="Fill_3" data-name="Fill 3" d="M0,9.857H8.038V0H0Z" transform="translate(164.416 6.795)" fill="#1a1919"/>
  <path id="Fill_4" data-name="Fill 4" d="M4.061,4.6C6.3,4.6,8.12,3.572,8.12,2.3S6.3,0,4.061,0,0,1.03,0,2.3,1.818,4.6,4.061,4.6" transform="translate(164.279 1.244)" fill="#1a1919"/>
  <path id="Fill_5" data-name="Fill 5" d="M0,0V15.12H8.23V10.144a1.654,1.654,0,0,1,1.818-1.626c.861,0,1.722-.288,1.722,1.818V15.12h7.656V8.8c0-1.626-.671-3.954-4.785-4.018A14.217,14.217,0,0,0,8.23,6.125V0H0" transform="translate(73.784 1.531)" fill="#1a1919"/>
  <path id="Fill_6" data-name="Fill 6" d="M0,3.158V6.412H2.679V9.57c0,1.435,1.149,3.445,4.786,3.445a13.489,13.489,0,0,0,6.22-1.244V9.379c-.574.192-3.349,1.339-3.349-.957V6.412h3.349V3.158H10.336V0H2.679V3.158H0" transform="translate(38.854 3.636)" fill="#1a1919"/>
  <path id="Fill_8" data-name="Fill 8" d="M16.173,1.531C14.355.431,12.2,0,9,0S0,1.387,0,5.407s5.072,5.455,8.326,5.455,7.081-.717,7.847-1.245V6.842c-.957.574-7.847,1.913-7.847-1.292,0-1.722,2.775-2.105,3.588-2.105a11.927,11.927,0,0,1,4.259.909V1.531" transform="translate(54.931 6.125)" fill="#1a1919"/>
  <path id="Fill_10" data-name="Fill 10" d="M0,.576v9.857H8.23V5.456a1.814,1.814,0,0,1,1.819-1.818c1.579,0,1.723.1,1.723,2.01v4.784h7.655V4.116C19.427,2.2,18.566-.069,14.45,0A15.223,15.223,0,0,0,8.23,1.437V.576H0" transform="translate(116.13 6.219)" fill="#1a1919"/>
  <path id="Fill_11" data-name="Fill 11" d="M4.5,16.651H0L8.04,1.913a1.257,1.257,0,0,0-.182-.98C7.605.443,7.239.05,6.986,0H17.418L25.5,16.649H15.121L13.3,12.919H6.364L4.5,16.651Zm5.551-11.1L7.871,9.905h4L10.049,5.55Z" transform="translate(137.04)" fill="#1a1919"/>
  <path id="Fill_12" data-name="Fill 12" d="M19.906,15.12H12.249v-.909a13.006,13.006,0,0,1-5.311.909,10.013,10.013,0,0,1-4.2-.921A4.658,4.658,0,0,1,0,9.761,4.455,4.455,0,0,1,2.829,5.545a11.461,11.461,0,0,1,4.588-.951,14.523,14.523,0,0,1,4.831.91V0h7.657V15.119ZM10.48,7.753c-.536,0-2.632.487-2.632,1.866,0,1.447,1.184,1.632,2.216,1.632.1,0,.2,0,.293,0l.218,0c.83,0,1.674-.557,1.674-.957V8.852C12.249,7.86,11.012,7.753,10.48,7.753Z" transform="translate(175.128 1.531)" fill="#1a1919"/>
  <path id="Fill_13" data-name="Fill 13" d="M10.192,11.1c-4.111,0-7.4-.939-9.015-2.576A3.9,3.9,0,0,1,0,5.646a4.861,4.861,0,0,1,3.092-4.33A15.609,15.609,0,0,1,9.809,0c3.551.021,6.107.83,7.6,2.4A5.687,5.687,0,0,1,18.9,6.459H7.895a3.17,3.17,0,0,0,3.4,2.058c.246.006.494.01.737.01a17.56,17.56,0,0,0,6.393-.966l-.431,2.3C17.7,10.065,15.957,11.1,10.192,11.1Zm-.43-8.421A1.656,1.656,0,0,0,7.943,4.21h3.349a1.578,1.578,0,0,0-.368-1.162A1.574,1.574,0,0,0,9.761,2.679Z" transform="translate(95.322 5.55)" fill="#1a1919"/>
  <path id="Fill_14" data-name="Fill 14" d="M0,0V16.651H8.709V11.58c.67,0,1.962-.431,3.014,1.2l2.44,3.876H24.882L20.1,9.092c-.67-.958-.909-1.914-3.4-2.153L22.824,0H16.652l-4.69,5.885c-.526.622-.287,1.2-3.253,1.2V0H0" fill="#1a1919"/>
  <path id="Fill_15" data-name="Fill 15" d="M1.608,3.229a1.556,1.556,0,0,1-1.14-.475A1.572,1.572,0,0,1,0,1.609,1.556,1.556,0,0,1,.473.471,1.552,1.552,0,0,1,1.608,0,1.569,1.569,0,0,1,2.751.471a1.553,1.553,0,0,1,.473,1.139,1.572,1.572,0,0,1-.473,1.145A1.565,1.565,0,0,1,1.608,3.229Zm0-3.011a1.34,1.34,0,0,0-.98.41,1.345,1.345,0,0,0-.4.982,1.367,1.367,0,0,0,.4.989,1.34,1.34,0,0,0,.983.409A1.34,1.34,0,0,0,2.591,2.6,1.363,1.363,0,0,0,3,1.609a1.345,1.345,0,0,0-.4-.982A1.343,1.343,0,0,0,1.608.218Z" transform="translate(196.322 1.824)" fill="#1a1919"/>
  <path id="Fill_16" data-name="Fill 16" d="M.312,1.772H0V0H.62A1.36,1.36,0,0,1,1.1.064a.439.439,0,0,1,.275.448A.386.386,0,0,1,1.2.861.681.681,0,0,1,.947.948a.434.434,0,0,1,.306.173.484.484,0,0,1,.1.275v.13c0,.046,0,.089,0,.131a.244.244,0,0,0,.015.093l.01.02H1.087a.057.057,0,0,0,0-.017V1.746s0-.008,0-.013l-.006-.057v-.14A.436.436,0,0,0,.905,1.13a.752.752,0,0,0-.347-.058H.312v.7Zm0-1.559V.855H.593a.858.858,0,0,0,.3-.04A.274.274,0,0,0,1.073.538.272.272,0,0,0,.955.279.811.811,0,0,0,.578.213Z" transform="translate(197.28 2.543)" fill="#1a1919"/>
</svg>
