<svg id="Motorhappy" xmlns="http://www.w3.org/2000/svg" width="163.945" height="36.667" viewBox="0 0 163.945 36.667">
  <path id="Fill_1" data-name="Fill 1" d="M19.25,10.542A26.509,26.509,0,0,1,0,2.36L2.452,0A23.307,23.307,0,0,0,35.406.642c.218-.209.432-.424.642-.642L38.5,2.349a26.494,26.494,0,0,1-19.25,8.193" transform="translate(25.174 26.125)"/>
  <path id="Fill_3" data-name="Fill 3" d="M16.076,0V20.671H12.639V11.882l-9.2-.034v8.823H0V0H3.438V8.525l9.2.034V0Z" transform="translate(78.994)"/>
  <path id="Fill_6" data-name="Fill 6" d="M5.175,14.763A5.9,5.9,0,0,1,1.537,13.5,4.082,4.082,0,0,1,0,10.256,4.724,4.724,0,0,1,.528,7.965a4.335,4.335,0,0,1,1.581-1.7,4.036,4.036,0,0,1,1.548-.562A18.844,18.844,0,0,1,5.95,5.536H8.171a.9.9,0,0,0,.7-.233.745.745,0,0,0,.138-.6c-.171-1.131-1.143-1.753-2.74-1.753H6.192A4.25,4.25,0,0,0,4.3,3.393a3.781,3.781,0,0,0-1.467,1.5L.266,3.531A6.6,6.6,0,0,1,3,.792,8.132,8.132,0,0,1,6.492,0h.176a6.84,6.84,0,0,1,2.856.63h.012a5.008,5.008,0,0,1,2.119,1.845,5.284,5.284,0,0,1,.78,2.888v9.165H9V13.337a5.154,5.154,0,0,1-1.628,1.056,5.518,5.518,0,0,1-1.978.366H5.377C5.31,14.761,5.242,14.763,5.175,14.763Zm.372-2.868h0c.067,0,.134.005.2.005a3.958,3.958,0,0,0,2.239-.692,2.916,2.916,0,0,0,1.067-2.2V8.194H6c-.071,0-.143-.006-.214-.006a3.594,3.594,0,0,0-1.907.545,1.69,1.69,0,0,0-.743,1.42,1.423,1.423,0,0,0,.686,1.317A3.18,3.18,0,0,0,5.41,11.9Z" transform="translate(98.712 6.255)"/>
  <path id="Fill_8" data-name="Fill 8" d="M3.621,21.118H0V.493H3.621V1.948A5.824,5.824,0,0,1,5.693.493,6.433,6.433,0,0,1,8.134,0h.06a6.676,6.676,0,0,1,3.378.917l-.011.046A6.535,6.535,0,0,1,14.07,3.656a8.259,8.259,0,0,1,.848,4.171,8.6,8.6,0,0,1-1.075,3.9A6.489,6.489,0,0,1,8.2,15.012h-.1a6.213,6.213,0,0,1-2.434-.493A5.9,5.9,0,0,1,3.621,13.1v8.02ZM7.6,2.968A3.806,3.806,0,0,0,4.892,4.114,4.48,4.48,0,0,0,3.667,7.322v.572a4.589,4.589,0,0,0,.607,2.2,3.827,3.827,0,0,0,1.432,1.4,3.752,3.752,0,0,0,1.834.48h.044a3.876,3.876,0,0,0,2.763-1.146v.024a4.611,4.611,0,0,0,1.283-3.277A5.383,5.383,0,0,0,11.091,5.1,3.873,3.873,0,0,0,9.624,3.506a3.815,3.815,0,0,0-1.954-.538Z" transform="translate(114.882 6.187)"/>
  <path id="Fill_10" data-name="Fill 10" d="M3.621,21.119H0V.493H3.621V1.949A5.826,5.826,0,0,1,5.7.493,6.541,6.541,0,0,1,8.146,0H8.22a6.623,6.623,0,0,1,3.363.918l-.022.046a6.544,6.544,0,0,1,2.509,2.693,8.114,8.114,0,0,1,.847,4.171,8.47,8.47,0,0,1-1.076,3.9,6.451,6.451,0,0,1-5.617,3.29h-.12a6.152,6.152,0,0,1-2.422-.493A5.959,5.959,0,0,1,3.621,13.1v8.02ZM7.606,2.968A3.812,3.812,0,0,0,4.892,4.114,4.559,4.559,0,0,0,3.667,7.322v.572a4.686,4.686,0,0,0,.607,2.2,3.9,3.9,0,0,0,1.432,1.4,3.8,3.8,0,0,0,1.846.481h.04a3.856,3.856,0,0,0,2.756-1.147l.011.024a4.554,4.554,0,0,0,1.283-3.277A5.267,5.267,0,0,0,11.1,5.1,3.789,3.789,0,0,0,7.709,2.968h-.1Z" transform="translate(132.883 6.187)"/>
  <path id="Fill_12" data-name="Fill 12" d="M15.5,0,7.241,20.5H3.654l2.681-6.634L0,0H3.621L8,9.751,11.9,0Z" transform="translate(148.443 6.691)"/>
  <path id="Fill_14" data-name="Fill 14" d="M20.625,0V20.671H17.188V8.708L12.02,20.671H8.605L3.415,8.708V20.671H0V0H3.415L10.3,16.534,17.188,0Z"/>
  <path id="Fill_17" data-name="Fill 17" d="M7.2,14.85H7.109a6.7,6.7,0,0,1-3.532-1.008A7.423,7.423,0,0,1,0,7.517,7.556,7.556,0,0,1,.93,3.736a7.262,7.262,0,0,1,2.6-2.727A6.76,6.76,0,0,1,7.087,0h.1a6.643,6.643,0,0,1,3.523,1.009,7.287,7.287,0,0,1,2.566,2.7,7.589,7.589,0,0,1,.951,3.747,7.4,7.4,0,0,1-.94,3.748,7.094,7.094,0,0,1-2.567,2.669A6.869,6.869,0,0,1,7.2,14.85Zm-.015-3.2h0q.074,0,.148,0a3.367,3.367,0,0,0,2.533-1.149,4.349,4.349,0,0,0,1-2.957A4.581,4.581,0,0,0,9.856,4.538V4.526A3.3,3.3,0,0,0,7.3,3.321l-.113,0-.13,0a3.346,3.346,0,0,0-2.6,1.229A4.416,4.416,0,0,0,3.416,7.54a4.512,4.512,0,0,0,.47,2.039,3.821,3.821,0,0,0,1.328,1.5,3.437,3.437,0,0,0,1.9.573Z" transform="translate(24.015 6.256)"/>
  <path id="Fill_19" data-name="Fill 19" d="M5.89,7.276v6.772c0,.5.1.825.321.963a1.94,1.94,0,0,0,1.02.206H8.663V18.4H5.477a2.714,2.714,0,0,1-2.292-1.008,4.5,4.5,0,0,1-.733-2.773V7.276H0V4.423H2.452V0H5.89V4.423H8.663V7.276Z" transform="translate(39.68 2.269)"/>
  <path id="Fill_21" data-name="Fill 21" d="M7.2,14.793H7.108a6.7,6.7,0,0,1-3.532-1.009A7.5,7.5,0,0,1,.951,3.736,7.141,7.141,0,0,1,3.541,1.009,6.758,6.758,0,0,1,7.093,0H7.2a6.637,6.637,0,0,1,3.523,1.009,7.291,7.291,0,0,1,2.567,2.7,7.6,7.6,0,0,1,.951,3.747,7.415,7.415,0,0,1-.951,3.69,7.089,7.089,0,0,1-2.567,2.669A6.861,6.861,0,0,1,7.2,14.793Zm-.015-3.2h0q.073,0,.146,0a3.368,3.368,0,0,0,2.535-1.15,4.348,4.348,0,0,0,1-2.956A4.582,4.582,0,0,0,9.855,4.48V4.469A3.3,3.3,0,0,0,7.3,3.264l-.116,0-.132,0A3.343,3.343,0,0,0,4.458,4.492,4.424,4.424,0,0,0,3.415,7.483a4.525,4.525,0,0,0,.47,2.039,3.831,3.831,0,0,0,1.329,1.5,3.434,3.434,0,0,0,1.9.574Z" transform="translate(50.542 6.313)"/>
  <path id="Fill_23" data-name="Fill 23" d="M7.459.021h.676V3.114a4.474,4.474,0,0,0-1.054-.126A3.279,3.279,0,0,0,4.537,4.134,4.421,4.421,0,0,0,3.392,6.941v7.1H0V.066H3.438V1.728A4.586,4.586,0,0,1,7.459.021" transform="translate(67.902 6.648)"/>
  <path id="Fill_25" data-name="Fill 25" d="M20.625,0V20.671H17.188V8.708L12.02,20.671H8.605L3.415,8.708V20.671H0V0H3.415L10.3,16.534,17.188,0Z"/>
  <path id="Fill_28" data-name="Fill 28" d="M5.89,7.276v6.772c0,.5.1.825.321.963a1.94,1.94,0,0,0,1.02.206H8.663V18.4H5.477a2.714,2.714,0,0,1-2.292-1.008,4.5,4.5,0,0,1-.733-2.773V7.276H0V4.423H2.452V0H5.89V4.423H8.663V7.276Z" transform="translate(39.68 2.269)"/>
  <path id="Fill_30" data-name="Fill 30" d="M7.459.021h.676V3.114a4.474,4.474,0,0,0-1.054-.126A3.279,3.279,0,0,0,4.537,4.134,4.421,4.421,0,0,0,3.392,6.941v7.1H0V.066H3.438V1.728A4.586,4.586,0,0,1,7.459.021" transform="translate(67.902 6.648)"/>
</svg>
