<svg xmlns="http://www.w3.org/2000/svg" width="124.868" height="48.704" viewBox="0 0 124.868 48.704">
  <g id="MTN_logo" data-name="MTN logo" transform="translate(-0.092 -0.093)">
    <path id="Fill_1" data-name="Fill 1" d="M0,24.354C0,10.9,27.954,0,62.432,0s62.436,10.9,62.436,24.354S96.914,48.7,62.432,48.7,0,37.8,0,24.354" transform="translate(0.092 0.093)" fill="#231f20"/>
    <path id="Fill_5" data-name="Fill 5" d="M0,24.187,6.482,0H16.709V14.226h.065L23.711,0H34.1L27.623,24.187H20.868L25.023,8.672h-.068L16.709,24.187H11.3V8.672h-.11L7.037,24.187Z" transform="translate(22.973 12.096)" fill="#fefefe"/>
    <path id="Fill_7" data-name="Fill 7" d="M0,3.619.92.182H8.371l-.92,3.437Z" transform="translate(58.904 33.143)" fill="#fefefe"/>
    <path id="Fill_9" data-name="Fill 9" d="M3.007,20.263,6.778,6.2H0L1.661,0h21L21,6.2H14.23L10.462,20.259Z" transform="translate(57.074 12.096)" fill="#fefefe"/>
    <path id="Fill_11" data-name="Fill 11" d="M0,24.187,6.478,0H13.8l3.3,12.941h.065L20.628,0H27.4L20.917,24.187H13.956L10.371,10.976H10.3L6.767,24.187Z" transform="translate(74.924 12.096)" fill="#fefefe"/>
  </g>
</svg>
