<svg xmlns="http://www.w3.org/2000/svg" width="67.879" height="60.655" viewBox="0 0 67.879 60.655">
  <g id="Nedbank_logo" data-name="Nedbank logo" transform="translate(0)">
    <path id="Fill_1" data-name="Fill 1" d="M11.784,46.273h0L0,38.513V7.76L11.785,0l11.5,7.76L34.777,0l11.5,7.76V38.513l-11.5,7.759-11.5-7.759-11.5,7.76Zm0-15.521V43.388l9.2-6.318Zm0-27.882L2.293,9.188l41.4,27.594V8.9L34.777,2.87v15.52L11.785,2.87Z" transform="translate(10.717 0)" fill="#050505"/>
    <path id="Fill_2" data-name="Fill 2" d="M61.62,8.988H59.254V0H61.62V3.621L64.65,0h3L64.1,4.183l3.778,4.8-3.028,0L61.62,4.89v4.1Zm-10.53,0H48.725V0h2.841l3.592,5.438V0h2.365V8.986H54.682L51.09,3.592V8.986Zm-48.725,0H0V0H2.827L6.419,5.438V0H8.784V8.986H5.943L2.365,3.592V8.986Zm37.979,0H37.979L41.325,0H44.6l3.375,8.985H45.494l-.663-1.775H41.008l-.663,1.775Zm2.51-6.708L41.672,5.395h2.48L42.97,2.279ZM34.561,8.986H29.512V0h4.846c2.1,0,3.073.765,3.073,2.408A1.836,1.836,0,0,1,35.772,4.27,2.042,2.042,0,0,1,37.7,6.548C37.7,8.28,36.794,8.986,34.561,8.986Zm-2.7-3.592V7.082h2.25c.861,0,.98-.395.98-.822,0-.575-.33-.866-.98-.866Zm0-3.5V3.505h1.976c.814,0,.981-.317.981-.794,0-.427-.119-.822-.981-.822Zm-8.035,7.1H19.415V.014h4.414c3.083,0,4.458,1.383,4.458,4.486a4.592,4.592,0,0,1-1.1,3.422A4.576,4.576,0,0,1,23.828,8.986ZM21.781,1.9V7.1h1.846c1.378,0,2.048-.849,2.048-2.6s-.67-2.6-2.048-2.6Zm-4.1,7.083H10.516V0h7.168V1.89h-4.8V3.505h4.025v1.9H12.881V7.1h4.8V8.986Z" transform="translate(0 51.668)" fill="#050505"/>
  </g>
</svg>
