<svg id="Pearson" xmlns="http://www.w3.org/2000/svg" width="177" height="54" viewBox="0 0 177 54">
  <path id="Fill_13" data-name="Fill 13" d="M5.225.1a.4.4,0,0,1,.271.1.393.393,0,0,1,.136.287v2.9S7.159,0,12.045,0h.034C15.132,0,16.9,1.815,16.9,5.03v9.964c0,.891.238,1.178,1.73,1.242a.393.393,0,0,1,.374.382.381.381,0,0,1-.407.382H11.976a.38.38,0,0,1-.407-.382.372.372,0,0,1,.373-.382c1.188-.1,1.391-.382,1.391-1.242V5.985c0-2.961-.916-4.139-3.223-4.139C8.55,1.846,7.26,3.12,6.48,4.2a7.225,7.225,0,0,0-.848,1.369l.034,9.391c0,.86.2,1.146,1.357,1.242a.418.418,0,0,1,.373.382.38.38,0,0,1-.407.382H.407A.38.38,0,0,1,0,16.586.393.393,0,0,1,.373,16.2c1.493-.1,1.73-.382,1.73-1.242V2.642c0-.732-.2-1.4-1.764-1.624A.385.385,0,0,1,0,.637V.573A.38.38,0,0,1,.407.191Z" transform="translate(158 23)"/>
  <path id="Fill_16" data-name="Fill 16" d="M38.376,3.491C49.714,10,52.359,24.555,44.458,39.306,37.517,52.263,22.345,57.811,11.073,51.2c-11.3-6.611-13.486-25.017-8.66-35.615C9.486.2,25.815-3.718,38.376,3.491"/>
  <path id="Fill_18" data-name="Fill 18" d="M13.531,38a3.49,3.49,0,0,1-.786-.116l-.082-.019a2.648,2.648,0,0,1-1.167-.709,2.132,2.132,0,0,1-.467-1.081,2.761,2.761,0,0,1,.467-1.96A2.471,2.471,0,0,1,13.464,33a1.636,1.636,0,0,1,.4.033A2.531,2.531,0,0,1,15,33.575,2.7,2.7,0,0,1,16,35.7a2.16,2.16,0,0,1-.8,1.723A2.553,2.553,0,0,1,13.531,38Zm-.49-7h-.17a1.893,1.893,0,0,1-1.09-.517,1.861,1.861,0,0,1-.443-1.1L11.3,29c-.034-.175-.154-4.608-.252-8.653s-.188-8.413-.159-8.446c.056-1.594,2.055-2.16,3.75-2.16a6.344,6.344,0,0,1,1.325.13c1.492.29,1.412,1.931,1.31,4.007-.019.4-.039.807-.05,1.232,0,.035-.07,3.543-.239,7.238a13.449,13.449,0,0,0,5.72-1.585,8.457,8.457,0,0,0,5.175-8.134,7.554,7.554,0,0,0-2.673-5.536,11.312,11.312,0,0,0-7.78-2.667c-6.509,0-9.5,1.521-13.04,4.515-.356.295-.667.583-.968.863-.318.3-.619.575-.9.792a1.771,1.771,0,0,1-1.019.288,1.42,1.42,0,0,1-1.364-.77c-.47-1.154.374-2.439.919-3.1A18.789,18.789,0,0,1,6.027,2.876,21.522,21.522,0,0,1,15.867.014C16.239,0,16.583,0,16.917,0a21.847,21.847,0,0,1,6.629.908A14.7,14.7,0,0,1,30.3,5.288a11.823,11.823,0,0,1,2.588,9.306,11.4,11.4,0,0,1-1.881,4.967,13.574,13.574,0,0,1-4.179,3.959A19.418,19.418,0,0,1,16.82,25.934c0,.083-.011.193-.018.322-.045.794-.127,2.273-.186,2.539a1.825,1.825,0,0,1-.443.965,3.241,3.241,0,0,1-1.7,1.034A5.959,5.959,0,0,1,13.041,31Z" transform="translate(8 9)" fill="#fff"/>
  <path id="Fill_1" data-name="Fill 1" d="M4.775,18A4.917,4.917,0,0,1,1.06,16.663,3.967,3.967,0,0,1,0,13.9a4.153,4.153,0,0,1,2.271-3.866,24.112,24.112,0,0,1,6.01-1.967,19.055,19.055,0,0,0,1.87-.5v-2.3a5.631,5.631,0,0,0-.739-3.275A2.7,2.7,0,0,0,7.046.967a4.385,4.385,0,0,0-3.172,1.1c1.117,1.251,1.221,2.416.3,3.367a2.21,2.21,0,0,1-1.61.743c-.064,0-.129,0-.194-.009A2,2,0,0,1,.6,4.033C.6,1.771,3.549,0,7.312,0c4.188,0,6.312,1.806,6.312,5.367v9.1c0,1,.2,1.635.6,1.9a1.122,1.122,0,0,0,.638.166,3.3,3.3,0,0,0,.6-.066h.067a.34.34,0,0,1,.066-.006.406.406,0,0,1,.369.24.517.517,0,0,1-.008.412.357.357,0,0,1-.226.188,5.3,5.3,0,0,1-2.538.634c-1.925,0-2.7-.777-2.871-2.866C8.514,17.068,6.752,18,4.775,18ZM10,9c-4.542,1.1-6,2.111-6,4.169C4,14.46,4.461,16,6.656,16,8.23,16,9.519,14.455,10,13.791V9Z" transform="translate(94 22)"/>
  <path id="Fill_5" data-name="Fill 5" d="M10.967,24H.4a.381.381,0,0,1-.4-.387v-.065a.416.416,0,0,1,.366-.386c2.871-.243,3.267-1.305,3.267-2.417V3.221c0-1.912-1.432-2.083-2.477-2.207A3.755,3.755,0,0,1,.366.869.486.486,0,0,1,.033.419V.387A.381.381,0,0,1,.433,0H10.3C15.181,0,21,1.224,21,7.055a6.318,6.318,0,0,1-2.4,5.026c-1.9,1.517-4.787,2.287-8.567,2.287H7.5v6.378c0,1.324.586,2.189,3.5,2.417a.392.392,0,0,1,.367.386v.065A.381.381,0,0,1,10.967,24ZM8,1V13H10.76c2.523,0,4.136-.5,5.079-1.586C16.653,10.478,17,9.111,17,6.842,17,3.953,16.27,1,10.858,1Z" transform="translate(56 16)"/>
  <path id="Fill_7" data-name="Fill 7" d="M8.569,19C3.6,19,0,15.085,0,9.691,0,4.347,3.844,0,8.569,0a7.362,7.362,0,0,1,5.553,2.188,7.858,7.858,0,0,1,1.851,5.975v.1a.074.074,0,0,1-.068.069h-12v.973c0,5.762,3.134,7.816,6.067,7.816,2.307,0,3.657-1.134,5.21-3.091a.423.423,0,0,1,.332-.155.4.4,0,0,1,.251.086l.069.034a.429.429,0,0,1,.1.556A8.213,8.213,0,0,1,8.569,19ZM8.234,1C5.91,1,4.406,3.131,4,7H11.96c.168-2.376-.186-4.061-1.05-5.007A3.5,3.5,0,0,0,8.234,1Z" transform="translate(76 22)"/>
  <path id="Fill_11" data-name="Fill 11" d="M2.025,15.888c0,.939-.229,1.24-1.666,1.307A.4.4,0,0,0,0,17.6a.382.382,0,0,0,.392.4H7.48a.4.4,0,0,0,0-.8c-1.633-.067-2.058-.369-2.058-1.341V5.2C6.6,3.218,7.414,2.179,8.852,1.844a3.383,3.383,0,0,0-.1.8A2.085,2.085,0,0,0,10.909,4.86,2.053,2.053,0,0,0,13,2.648,2.569,2.569,0,0,0,10.158,0C8.427,0,6.794,1.006,5.389,3.452V.7A.509.509,0,0,0,4.9.2L.425.335a.4.4,0,0,0-.392.4V.8a.4.4,0,0,0,.327.4c1.5.2,1.7.939,1.7,1.71Z" transform="translate(111 22)"/>
  <path id="Fill_3" data-name="Fill 3" d="M9.017,19C3.877,19,0,14.938,0,9.553A9.787,9.787,0,0,1,2.637,2.8,8.712,8.712,0,0,1,9.017,0,9.108,9.108,0,0,1,18,9.413a9.653,9.653,0,0,1-2.878,7.008A8.9,8.9,0,0,1,9.017,19ZM8.808,1C6.569,1,4,1.964,4,9.482,4,15.214,5.7,18,9.192,18,12.517,18,14,15.373,14,9.482,14,3.775,12.3,1,8.808,1Z" transform="translate(139 22)"/>
  <path id="Fill_9" data-name="Fill 9" d="M6.692,7.364h0C3.6,6.426,2.413,5.488,2.413,3.995a2.842,2.842,0,0,1,2.96-2.918c2.027,0,2.9,1.042,5.019,4.9l.032.035.064.035h.29a.387.387,0,0,0,.386-.417V.069A.072.072,0,0,0,11.1,0h-.386a.4.4,0,0,0-.289.139l-.676.9A7.528,7.528,0,0,0,6.081,0C2.542,0,.064,2.362.064,5.731c0,3.161,1.962,4.377,5.308,5.349,3.282.973,4.44,1.98,4.44,3.856a3.1,3.1,0,0,1-3.185,3.022c-2.477,0-3.507-.973-5.855-5.558L.74,12.331.676,12.3H.386A.387.387,0,0,0,0,12.713v6.218A.072.072,0,0,0,.064,19H.451a.38.38,0,0,0,.289-.139L1.834,17.68a8.9,8.9,0,0,0,4.375,1.285,5.592,5.592,0,0,0,4.376-1.806A6.573,6.573,0,0,0,12,12.921c-.032-2.883-1.448-4.377-5.308-5.558" transform="translate(125 22)"/>
</svg>
