<svg xmlns="http://www.w3.org/2000/svg" width="115.86" height="36.001" viewBox="0 0 115.86 36.001">
  <g id="Pep_logo" data-name="Pep logo" transform="translate(0 0)">
    <path id="Fill_1" data-name="Fill 1" d="M.015,17.774q0-8.05,0-16.1C.015.3.26.028,1.628.024Q9.374,0,17.12,0,20.312,0,23.5.012c.9,0,.941.044.943.959q.007,2.77,0,5.541c0,1.179-.375,1.56-1.549,1.563-4.024.007-8.048,0-12.072.009-1.3,0-1.553.259-1.572,1.563-.015,1,.022,2-.021,3-.025.59.147.794.759.79,3.636-.027,7.273-.014,10.909-.014.129,0,.258,0,.387,0,.842.011.872.039.873.878,0,1.781.009,3.563,0,5.345-.007,1-.38,1.376-1.375,1.377-3.163,0-6.326-.006-9.489-.008-.344,0-.689,0-1.032.025a.93.93,0,0,0-.962.944c-.043,1.519-.032,3.041-.032,4.561,0,.481.37.388.659.389q4.389.005,8.779,0c1.829,0,3.658.013,5.487-.008.565-.007.816.163.806.78-.032,1.977-.013,3.955-.025,5.932-.006.947-.411,1.357-1.336,1.357Q12.245,35,.851,35C.292,35,0,34.89,0,34.2c.028-5.475.015-10.951.015-16.426" transform="translate(58 1)"/>
    <path id="Fill_3" data-name="Fill 3" d="M.784,35h0a.826.826,0,0,1-.609-.176A.847.847,0,0,1,0,34.195c.012-4.182.011-8.434.01-12.546v-.006q0-1.931,0-3.862c0-1.346,0-2.715,0-4.039,0-3.968,0-8.071,0-12.116C.015.359.375.012,1.689.01l3.684,0C6.864,0,8.406,0,9.926,0c2.317,0,4.222.006,6,.019a12.555,12.555,0,0,1,7.585,2.657,11.5,11.5,0,0,1,4.23,6.6,11.326,11.326,0,0,1-1.4,8.31A11.969,11.969,0,0,1,19.82,22.7a14.983,14.983,0,0,1-4.693.651c-.727,0-1.467,0-2.182,0-.672,0-1.366,0-2.048,0-1.134.006-1.5.355-1.5,1.436q0,1.707,0,3.413c0,1.723,0,3.5-.01,5.251-.005,1.132-.407,1.515-1.59,1.518q-1.215,0-2.429,0c-1.493,0-3.037,0-4.554.017ZM10.872,8.1c-1.1,0-1.45.349-1.456,1.436,0,.646,0,1.3,0,1.937q0,.431,0,.862h.009c0,.3,0,.6,0,.9,0,.709.01,1.441-.014,2.161a.712.712,0,0,0,.14.54.716.716,0,0,0,.543.158h.06c.508-.013,1.051-.02,1.658-.02s1.238.007,1.763.013h.2a6.317,6.317,0,0,0,2.05-.284,4.024,4.024,0,0,0,2.705-4.487A4.041,4.041,0,0,0,14.524,8.11c-.585,0-1.179,0-1.753,0h-.623c-.466,0-.873,0-1.246,0Z" transform="translate(25 1)"/>
    <path id="Fill_5" data-name="Fill 5" d="M6.5,35.652c-1.968,0-3.914-.005-5.558-.011-.913,0-.931-.02-.938-.931,0-.045,0-.089,0-.133q0-8.262,0-16.524,0-2.181,0-4.361C0,9.885,0,5.947,0,2.062.005.188.159.036,2.063.033,3.439.031,4.837.024,6.188.017,7.826.009,9.52,0,11.186,0c1.534,0,2.892.007,4.152.022A11.893,11.893,0,0,1,26.587,7,11.847,11.847,0,0,1,16.579,23.741c-1.155.072-2.325.078-3.425.078H12.3c-.41,0-.95,0-1.493.009-1.219.019-1.483.285-1.487,1.5,0,1.418,0,2.859,0,4.254,0,1.479,0,3.005-.005,4.506,0,1.213-.363,1.564-1.6,1.566ZM10.445,16.4c.368,0,.738,0,1.1.007s.733.007,1.1.007c.709,0,1.282-.014,1.8-.043a3.99,3.99,0,0,0,3.63-2.488,3.926,3.926,0,0,0-.291-3.763A4.068,4.068,0,0,0,14.4,8.257c-.567-.008-1.185-.011-1.945-.011l-1.275,0h-.5c-.991,0-1.345.362-1.353,1.372-.006.693,0,1.4,0,2.077q0,.454,0,.909H9.317q0,.455,0,.91c0,.745,0,1.515-.006,2.274a.651.651,0,0,0,.129.487.553.553,0,0,0,.41.127h.016C10.048,16.4,10.237,16.4,10.445,16.4Z" transform="translate(88.151 0.326)"/>
    <path id="Fill_8" data-name="Fill 8" d="M15.769,35c-.095,0-.2,0-.31-.014a16.314,16.314,0,0,1-8.695-3.452A17.344,17.344,0,0,1,1.108,23.8a17.978,17.978,0,0,1-.924-8.842A17.165,17.165,0,0,1,3.458,6.87,16.883,16.883,0,0,1,12.781.5,19.51,19.51,0,0,1,14.863.1l.329-.051A3.418,3.418,0,0,1,15.715,0C16.613,0,17,.5,17,1.66c0,3.866,0,7.785,0,11.574q0,2.17,0,4.34h-.015v4.547c0,3.716,0,7.558,0,11.368C16.982,34.59,16.653,35,15.769,35ZM15.617.261h0c-.054,0-.112,0-.171.006a12.384,12.384,0,0,0-3.44.693,19.791,19.791,0,0,0-4.6,2.356,19.4,19.4,0,0,0-2.785,2.5A15.02,15.02,0,0,0,2.627,8.644,15.582,15.582,0,0,0,.972,12.335a17.93,17.93,0,0,0-.353,9.012A14.9,14.9,0,0,0,1.64,24.62a22.781,22.781,0,0,0,2.374,3.891A18.82,18.82,0,0,0,8.742,32.6a12.046,12.046,0,0,0,2.574,1.174,12.823,12.823,0,0,0,4.349.961h.041a.915.915,0,0,0,1.005-.923,12.565,12.565,0,0,0,.1-1.428c0-3.993,0-8.053,0-11.98V17.378H16.8q0-2.166,0-4.333c0-3.692,0-7.509,0-11.263,0-1.051-.366-1.52-1.183-1.52Z"/>
    <path id="Fill_10" data-name="Fill 10" d="M17,17.376q0,7.619,0,15.237a12.61,12.61,0,0,1-.1,1.45.931.931,0,0,1-1.03.937,13.03,13.03,0,0,1-4.492-.975,12.459,12.459,0,0,1-2.635-1.192A19.193,19.193,0,0,1,3.9,28.678a23.115,23.115,0,0,1-2.431-3.95A15.023,15.023,0,0,1,.425,21.4a18.181,18.181,0,0,1,.361-9.149A15.879,15.879,0,0,1,2.48,8.509a15.154,15.154,0,0,1,2.04-2.864A19.632,19.632,0,0,1,7.372,3.1,20.3,20.3,0,0,1,12.081.71,12.848,12.848,0,0,1,15.6.006c.981-.07,1.383.428,1.385,1.536q.011,7.916,0,15.833Z"/>
  </g>
</svg>
