<svg xmlns="http://www.w3.org/2000/svg" width="119.942" height="38.903" viewBox="0 0 119.942 38.903">
  <g id="Zando" transform="translate(0 -0.14)">
    <path id="Fill_3" data-name="Fill 3" d="M.013,13.931C.013,9.518.022,5.106,0,.693,0,.155.122-.005.682,0c3.635.035,7.271-.018,10.9.055a15.307,15.307,0,0,1,6.36,1.358,7.639,7.639,0,0,1,4.812,7.27c.026,6.248.006,12.5.023,18.743,0,.443-.136.543-.553.536-1.421-.024-2.844-.036-4.264,0-.547.015-.688-.133-.686-.682q.031-8.988.009-17.977A5.417,5.417,0,0,0,16.283,5.7a6.5,6.5,0,0,0-4.6-2.169c-1.834-.218-3.677-.108-5.516-.157-.548-.014-.693.132-.692.684.019,7.711,0,15.422.03,23.133,0,.663-.2.794-.808.774-1.35-.044-2.7-.041-4.054,0-.536.017-.65-.144-.648-.658.021-4.459.012-8.919.012-13.378" transform="translate(46.933 10.126)" fill="#191919"/>
    <path id="Fill_5" data-name="Fill 5" d="M15.783,3.393c-5.1,0-10.067-.014-15.03.017-.63,0-.8-.164-.743-.762A10.953,10.953,0,0,0,.01.769C-.04.178.112,0,.751,0c5.5.03,11,.017,16.5.017,1.188,0,2.377.015,3.565-.008.388-.007.521.092.513.5-.025,1.323-.028,2.648,0,3.971a1.459,1.459,0,0,1-.451.974Q13.573,14.736,6.271,24.02c-.108.137-.289.241-.275.53h.66c3.635.008,7.27.006,10.905.03a8.707,8.707,0,0,1,3.313.729.6.6,0,0,1,.453.672,8.938,8.938,0,0,0,0,1.462c.042.464-.162.521-.561.521q-10.1-.016-20.2,0c-.5,0-.557-.187-.55-.6q.032-1.916,0-3.832a1.467,1.467,0,0,1,.369-1.007q7.51-9.3,15.008-18.612c.111-.138.214-.284.393-.524" transform="translate(0 10.122)" fill="#191919"/>
    <path id="Fill_8" data-name="Fill 8" d="M11.612,29.379c-.143,0-.246,0-.355-.006h-.008c-.1,0-.209-.006-.36-.006-.094,0-.2,0-.312,0h-.084a5.163,5.163,0,0,1-.67-.056l-.3-.036a8.471,8.471,0,0,1-1.891-.443l-.361-.117a12.243,12.243,0,0,1-4.059-2.069A8.722,8.722,0,0,1,.518,22.988a7.972,7.972,0,0,1-.508-3c0-1.049,0-2.111.007-3.139.008-2.327.016-4.734-.017-7.1A8.532,8.532,0,0,1,5.622,1.216,14.3,14.3,0,0,1,11.284,0,13.841,13.841,0,0,1,17.55,1.547a9.788,9.788,0,0,1,3.392,2.628,7.386,7.386,0,0,1,1.545,3.978v.009c0,.053.013.14.042.345V21.193a8.2,8.2,0,0,1-3.365,5.763A11.033,11.033,0,0,1,13.2,29.208a.436.436,0,0,0-.1.014,1.965,1.965,0,0,1-.322.044c-.132.011-.261.032-.386.052a3.984,3.984,0,0,1-.543.06Zm-.386-25.9h-.082A5.312,5.312,0,0,0,5.467,9.129c-.009,1.252-.007,2.526,0,3.757V12.9q0,.865,0,1.73t0,1.715c0,1.264,0,2.571,0,3.859a5.949,5.949,0,0,0,.365,2.112,5.1,5.1,0,0,0,5.3,3.5,11.459,11.459,0,0,0,1.455-.1,4.691,4.691,0,0,0,2.966-1.539,6.257,6.257,0,0,0,1.488-4.44c.01-4,.008-7.237-.005-10.173a8.861,8.861,0,0,0-.167-1.8C16.272,4.959,14.321,3.474,11.226,3.475Z" transform="translate(97.413 9.664)" fill="#191919"/>
    <path id="Fill_10" data-name="Fill 10" d="M22.131,37.953H22.1c-1.513-.015-3.052-.015-4.54-.015-2.111,0-4.291,0-6.434-.042A14.636,14.636,0,0,1,4.778,36.51a9.2,9.2,0,0,1-3.414-2.739A7.082,7.082,0,0,1,.051,29.618C0,25.52-.037,21.826.068,18.124c.087-3.033,1.658-5.286,4.671-6.7a15.593,15.593,0,0,1,6.212-1.393c.939-.027,1.952-.039,3.1-.039.945,0,1.862.009,2.635.017h.026a.634.634,0,0,0,.474-.123.656.656,0,0,0,.122-.486c-.012-1.414-.011-2.852-.011-4.243,0-1.464,0-2.977-.013-4.466a.757.757,0,0,1,.136-.562A.642.642,0,0,1,17.893,0h.073c.672.021,1.361.032,2.05.032S21.393.022,22.09,0h.072a.645.645,0,0,1,.482.132.756.756,0,0,1,.139.554c-.016,4.836-.015,9.754-.014,14.51q0,1.874,0,3.746,0,1.929,0,3.857v.009c0,4.739,0,9.639.013,14.458a.749.749,0,0,1-.135.552A.7.7,0,0,1,22.131,37.953ZM14.324,13.37a22.52,22.52,0,0,0-4.142.288c-2.919.534-4.617,2.37-4.657,5.037-.05,3.272-.023,6.6,0,9.82l.008,1.051A4.271,4.271,0,0,0,7.452,33.1a6.725,6.725,0,0,0,3.019,1.179,32.259,32.259,0,0,0,4.811.256c.436,0,.885,0,1.327.009h.05a.688.688,0,0,0,.514-.134.731.731,0,0,0,.135-.541c-.022-2.461-.019-4.964-.016-7.384v-.026q0-1.243,0-2.486V20.55c0-2.167,0-4.407-.006-6.611A1.235,1.235,0,0,1,17.3,13.8a.427.427,0,0,0-.045-.336.376.376,0,0,0-.291-.09h-.019c-.276,0-.575.007-.915.007q-.428,0-.855,0C14.891,13.372,14.608,13.37,14.324,13.37Z" transform="translate(72.159 0.14)" fill="#191919"/>
    <path id="Fill_13" data-name="Fill 13" d="M22.252,27.881h-.015c-1.54-.015-3.106-.015-4.62-.016-2.13,0-4.33,0-6.492-.042a15.084,15.084,0,0,1-5.716-1.1C2.2,25.352.459,23.278.1,20.381a10.055,10.055,0,0,1,.453-4.813,8.189,8.189,0,0,1,3.037-3.8,15.626,15.626,0,0,1,7.545-2.612,33.133,33.133,0,0,1,3.72-.2c.624,0,1.275.016,1.933.047l.079,0a.435.435,0,0,0,.334-.1.522.522,0,0,0,.081-.4,4.872,4.872,0,0,0-2.83-4.234A10.715,10.715,0,0,0,9.779,3.32C9.159,3.3,8.5,3.286,7.82,3.286c-.639,0-1.3.01-2.024.029H5.738a.584.584,0,0,1-.465-.141.585.585,0,0,1-.066-.482,1.434,1.434,0,0,0,.007-.284c0-.045,0-.089,0-.134V2.263c0-1.417,0-1.444,1.422-1.84A12.716,12.716,0,0,1,10.074,0C11,0,11.934.068,12.8.142a13.989,13.989,0,0,1,5.234,1.328,8.921,8.921,0,0,1,3.5,2.934,7.706,7.706,0,0,1,1.226,4.4c-.009,2.042-.007,4.118,0,6.125q0,1.361,0,2.723h0q0,1.043,0,2.086v.05c0,2.451,0,4.985.006,7.478,0,.222,0,.4-.1.5A.566.566,0,0,1,22.252,27.881Zm-6.9-15.494a16.64,16.64,0,0,0-6,.884c-3.13,1.2-4.283,3.325-3.739,6.875.3,1.975,1.67,3.283,4.065,3.888a18.492,18.492,0,0,0,4.547.44c.373,0,.753,0,1.12-.007h.121c.338,0,.686-.007,1.028-.007l.48,0h.009a.337.337,0,0,0,.26-.083.425.425,0,0,0,.048-.33,1.273,1.273,0,0,1-.009-.133c.006-1.391.006-2.794,0-4.152q0-.639,0-1.278V17.111c0-1.352,0-2.749,0-4.125,0-.04,0-.081,0-.121a.483.483,0,0,0-.066-.36.41.41,0,0,0-.3-.1C16.421,12.4,15.888,12.387,15.354,12.387Z" transform="translate(21.256 10.212)" fill="#191919"/>
  </g>
</svg>
