<svg xmlns="http://www.w3.org/2000/svg" width="91.539" height="80" viewBox="0 0 91.539 80"><path d="M0,0H3.077V3.077H0Z" transform="translate(9.231 6.154)"/><path d="M0,0H3.077V3.077H0Z" transform="translate(15.385 6.154)"/><path d="M0,0H3.077V3.077H0Z" transform="translate(21.538 6.154)"/><path d="M20,18.462H1.538A1.54,1.54,0,0,1,0,16.923V1.538A1.54,1.54,0,0,1,1.538,0H20a1.54,1.54,0,0,1,1.539,1.538V16.923A1.541,1.541,0,0,1,20,18.462ZM3.077,3.077V15.385H18.462V3.077Z" transform="translate(9.231 21.538)"/><path d="M0,0H6.154V3.077H0Z" transform="translate(36.923 21.538)"/><path d="M0,0H24.615V3.077H0Z" transform="translate(46.154 21.538)"/><path d="M0,0H33.846V3.077H0Z" transform="translate(36.923 27.692)"/><path d="M0,0H15.385V3.077H0Z" transform="translate(36.923 33.846)"/><path d="M0,0H9.231V3.077H0Z" transform="translate(55.385 33.846)"/><path d="M0,0H21.538V3.077H0Z" transform="translate(9.231 46.154)"/><path d="M0,0H21.538V3.077H0Z" transform="translate(9.231 52.308)"/><path d="M0,0H21.538V3.077H0Z" transform="translate(9.231 58.462)"/><path d="M0,0H21.538V3.077H0Z" transform="translate(9.231 64.615)"/><path d="M75.385,80H4.615A4.62,4.62,0,0,1,0,75.385V4.615A4.62,4.62,0,0,1,4.615,0h70.77A4.62,4.62,0,0,1,80,4.615V20.173a7.487,7.487,0,0,1,7.692-.033,7.7,7.7,0,0,1,2.815,10.507L80,48.848V75.385A4.62,4.62,0,0,1,75.385,80ZM3.077,15.434V75.385a1.54,1.54,0,0,0,1.538,1.538h70.77a1.54,1.54,0,0,0,1.538-1.538V54.177L71.278,63.95a1.53,1.53,0,0,1-.651.616l-4.554,2.253L64,70.412a4.615,4.615,0,0,1-8.584-2.72H38.462a1.54,1.54,0,0,1-1.538-1.539V47.692a1.54,1.54,0,0,1,1.538-1.538h25.33L76.923,23.409V15.434ZM60.206,64.67h0l-1.539,2.665a1.538,1.538,0,0,0,2.665,1.538l1.538-2.664L60.206,64.67ZM40,49.231V64.615H56.685l1.392-2.407-.326-5.077a1.519,1.519,0,0,1,.2-.868l4.06-7.034Zm20.888,8.725h0l.237,3.692L65.03,63.9l3.314-1.639-7.456-4.307ZM76.36,36.686h0l2.664,1.538L67.487,58.209l2.664,1.538L83.234,37.1l-8-4.616L62.157,55.132l2.665,1.539L76.359,36.687Zm1.175-8.2h0l-.769,1.331,8,4.617.769-1.333-8-4.615Zm6.315-6.3a4.635,4.635,0,0,0-4,2.311l-.77,1.333,8,4.615.769-1.332a4.62,4.62,0,0,0-4-6.927ZM4.615,3.077A1.54,1.54,0,0,0,3.077,4.615v7.742H76.923V4.615a1.54,1.54,0,0,0-1.538-1.538Z" transform="translate(0 0)"/></svg>