<svg xmlns="http://www.w3.org/2000/svg" width="132" height="132" viewBox="0 0 132 132">
    <g fill="none" fill-rule="evenodd" stroke-linecap="round" stroke-linejoin="round">
        <g stroke="#000" stroke-width="4">
            <g transform="translate(-179 -2595) translate(181 2597)">
                <rect width="127.222" height="127.222" x=".389" y=".389" rx="2"/>
                <path d="M0.389 28.046L127.611 28.046"/>
                <rect width="38.72" height="27.657" x="72.297" y="44.64" rx=".5"/>
                <rect width="38.72" height="27.657" x="72.297" y="83.36" rx=".5"/>
                <rect width="38.72" height="44.251" x="16.983" y="44.64" rx=".5"/>
                <circle cx="36.343" cy="64" r="8.297"/>
                <path d="M22.515 88.891c-.694-8.379 5.462-15.765 13.828-16.594 8.367.83 14.522 8.215 13.829 16.594M19.749 99.954L41.875 99.954M19.749 111.017L41.875 111.017M19.749 12.835c.764 0 1.383.619 1.383 1.383 0 .763-.62 1.383-1.383 1.383-.764 0-1.383-.62-1.383-1.383 0-.764.62-1.383 1.383-1.383M36.343 12.835c.764 0 1.383.619 1.383 1.383 0 .763-.62 1.383-1.383 1.383-.764 0-1.383-.62-1.383-1.383 0-.764.62-1.383 1.383-1.383M52.937 12.835c.764 0 1.383.619 1.383 1.383 0 .763-.619 1.383-1.383 1.383-.763 0-1.383-.62-1.383-1.383 0-.764.62-1.383 1.383-1.383"/>
            </g>
        </g>
    </g>
</svg>
