<svg xmlns="http://www.w3.org/2000/svg" width="86.881" height="81.023" viewBox="0 0 86.881 81.023"><g transform="translate(0 -0.61)"><path d="M0,2.44A2.44,2.44,0,1,0,2.44,0,2.44,2.44,0,0,0,0,2.44Z" transform="translate(7.81 7.443)"/><circle cx="2.44" cy="2.44" r="2.44" transform="translate(14.643 7.443)"/><circle cx="2.44" cy="2.44" r="2.44" transform="translate(22.452 7.443)"/><path d="M1.291,20.5a1.291,1.291,0,0,0,1.2-.809L9.67,1.757A1.28,1.28,0,0,0,8.948.091,1.294,1.294,0,0,0,7.271.809L.092,18.743a1.28,1.28,0,0,0,.722,1.666A1.3,1.3,0,0,0,1.291,20.5Z" transform="translate(20.5 24.039)"/><path d="M.595,18.377a1.132,1.132,0,0,0,.6.171,1.18,1.18,0,0,0,1.032-.632l4.45-8.167A1.336,1.336,0,0,0,6.662,8.46L2.212.613A1.152,1.152,0,0,0,.577.182,1.313,1.313,0,0,0,.171,1.921L4.258,9.126l-4.1,7.52a1.311,1.311,0,0,0,.434,1.731Z" transform="translate(36.119 25.015)"/><path d="M6.673,16.646l-4.1-7.52L6.662,1.921A1.313,1.313,0,0,0,6.257.182,1.152,1.152,0,0,0,4.621.613L.171,8.46A1.336,1.336,0,0,0,.16,9.748l4.45,8.167a1.179,1.179,0,0,0,1.032.632,1.132,1.132,0,0,0,.6-.171A1.311,1.311,0,0,0,6.673,16.646Z" transform="translate(8.786 25.015)"/><path d="M13.647,7.829a1.248,1.248,0,0,0-1.469,1.026,4.984,4.984,0,0,1-4.8,4.132A5.047,5.047,0,0,1,2.489,7.81,5.047,5.047,0,0,1,7.383,2.633a4.739,4.739,0,0,1,3.244,1.3,1.2,1.2,0,0,0,1.757-.112,1.37,1.37,0,0,0-.106-1.858A7.149,7.149,0,0,0,7.384,0,7.614,7.614,0,0,0,0,7.81a7.614,7.614,0,0,0,7.384,7.809,7.521,7.521,0,0,0,7.234-6.237,1.317,1.317,0,0,0-.97-1.554Z" transform="translate(49.786 53.324)"/><path d="M4.3,8.786h0a3.545,3.545,0,0,1-1.545-.333,4.315,4.315,0,0,1-2.4-2.363A4.329,4.329,0,0,1,.331,2.73,4.438,4.438,0,0,1,6.1.326,4.036,4.036,0,0,1,8.345,2.487,4.743,4.743,0,0,1,8.519,6.05,4.591,4.591,0,0,1,4.3,8.786Zm.127-6.318A1.925,1.925,0,1,0,6.364,4.393,1.934,1.934,0,0,0,4.424,2.468Z" transform="translate(71.262 26.967)"/><path d="M60.168,81.023H54.946a2.508,2.508,0,0,1-2.5-2.512V76.053A16.919,16.919,0,0,1,49.7,74.905l-1.73,1.74a2.49,2.49,0,0,1-3.533,0l-3.692-3.714a2.523,2.523,0,0,1,0-3.553l1.729-1.739c-.087-.169-.166-.332-.252-.513H17.253a1.283,1.283,0,0,1,0-2.567H37.685a2.519,2.519,0,0,1-1.3-2.2V57.106a2.508,2.508,0,0,1,2.5-2.512h2.445a17.052,17.052,0,0,1,1.14-2.767l-1.73-1.74a2.526,2.526,0,0,1,0-3.553l3.693-3.713a2.49,2.49,0,0,1,3.533,0L49.7,44.56a16.956,16.956,0,0,1,2.751-1.147v-2.46a2.508,2.508,0,0,1,2.5-2.512h5.221a2.508,2.508,0,0,1,2.5,2.512v2.46a16.873,16.873,0,0,1,2.751,1.147l1.729-1.74a2.487,2.487,0,0,1,2.973-.424V40.9l-.253-.1a1.925,1.925,0,0,1-1.045-2.5l.313-.771c-.186-.172-.365-.35-.529-.527l-.764.322a2.4,2.4,0,0,1-.753.129,1.926,1.926,0,0,1-1.746-1.156l-1.048-2.51a1.953,1.953,0,0,1,1.021-2.514l.763-.323c-.011-.247-.012-.5,0-.749l-.766-.315a1.772,1.772,0,0,1-.992-1,2.064,2.064,0,0,1-.054-1.506l1.023-2.52a1.9,1.9,0,0,1,1.77-1.195,1.882,1.882,0,0,1,.719.143l.767.315c.174-.191.351-.37.524-.532l-.32-.769A1.926,1.926,0,0,1,69.766,20.3l.353-.149V17.256H2.551V60.521A4.032,4.032,0,0,0,6.567,64.56h4.8a1.283,1.283,0,0,1,0,2.566h-4.8A6.594,6.594,0,0,1,0,60.52V6.606A6.594,6.594,0,0,1,6.567,0H57.493a1.283,1.283,0,0,1,0,2.566H6.567a4.033,4.033,0,0,0-4.016,4.04v8.083H70.119V6.606A4.033,4.033,0,0,0,66.1,2.566H63.428a1.283,1.283,0,0,1,0-2.566H66.1a6.6,6.6,0,0,1,6.568,6.606V19.125a1.907,1.907,0,0,1,.335-.03,1.874,1.874,0,0,1,.718.142,1.907,1.907,0,0,1,1.039,1.034l.32.768c.148-.006.29-.009.423-.009.108,0,.216,0,.322.006l.313-.771a1.941,1.941,0,0,1,1.849-1.17,1.617,1.617,0,0,1,.641.119l2.506,1.03a1.772,1.772,0,0,1,.992,1,2.066,2.066,0,0,1,.054,1.506l-.313.77c.181.167.359.344.529.527l.764-.322a2.4,2.4,0,0,1,.753-.129A1.926,1.926,0,0,1,85.66,24.75l1.048,2.509a1.927,1.927,0,0,1-1.021,2.515l-.763.322c.011.244.013.5,0,.749l.766.316a1.927,1.927,0,0,1,1.046,2.5l-1.023,2.52a1.942,1.942,0,0,1-1.85,1.171,1.615,1.615,0,0,1-.64-.119l-.767-.315c-.17.187-.347.366-.525.532l.321.768a1.954,1.954,0,0,1-1.021,2.515l-2.5,1.054a1.882,1.882,0,0,1-.737.15,1.906,1.906,0,0,1-1.762-1.177L75.92,40C75.771,40,75.629,40,75.5,40c-.108,0-.216,0-.322-.006l-.313.771a1.973,1.973,0,0,1-1.83,1.189,1.329,1.329,0,0,1-.36-.045v2.91l1.7,1.711a2.526,2.526,0,0,1,0,3.553l-1.73,1.74a17.187,17.187,0,0,1,1.14,2.767h2.444a2.508,2.508,0,0,1,2.5,2.512v5.252a2.508,2.508,0,0,1-2.5,2.512H73.782a17.187,17.187,0,0,1-1.14,2.768l1.729,1.74a2.523,2.523,0,0,1,0,3.553l-3.692,3.714a2.489,2.489,0,0,1-3.533,0l-1.73-1.74a16.834,16.834,0,0,1-2.751,1.147v2.459A2.508,2.508,0,0,1,60.168,81.023ZM49.477,72.029a1.272,1.272,0,0,1,.656.183,14.311,14.311,0,0,0,3.9,1.626A1.281,1.281,0,0,1,55,75.083v3.376h5.114V75.083a1.28,1.28,0,0,1,.966-1.245,14.288,14.288,0,0,0,3.9-1.626,1.269,1.269,0,0,1,1.559.193l2.374,2.388,3.616-3.638-2.374-2.388a1.287,1.287,0,0,1-.192-1.568,14.478,14.478,0,0,0,1.616-3.923,1.275,1.275,0,0,1,1.238-.971h3.356V57.161H72.817a1.275,1.275,0,0,1-1.238-.971,14.478,14.478,0,0,0-1.616-3.923,1.287,1.287,0,0,1,.192-1.568l2.374-2.388-3.616-3.638-2.374,2.389a1.27,1.27,0,0,1-1.559.193,14.287,14.287,0,0,0-3.9-1.626,1.279,1.279,0,0,1-.966-1.245V41.008H55v3.376a1.279,1.279,0,0,1-.967,1.245,14.311,14.311,0,0,0-3.9,1.626,1.269,1.269,0,0,1-1.558-.193L46.2,44.673l-3.616,3.638L44.959,50.7a1.287,1.287,0,0,1,.192,1.568,14.486,14.486,0,0,0-1.616,3.923,1.275,1.275,0,0,1-1.238.971H38.94v5.144H42.3a1.275,1.275,0,0,1,1.238.971A14.5,14.5,0,0,0,45.15,67.2a1.285,1.285,0,0,1-.192,1.567l-2.374,2.388L46.2,74.793,48.575,72.4A1.263,1.263,0,0,1,49.477,72.029Zm19.5-37.872A1.279,1.279,0,0,1,70,34.672a6.864,6.864,0,0,0,1.426,1.421,1.287,1.287,0,0,1,.427,1.52l-.426,1.048,1.316.541.426-1.049a1.272,1.272,0,0,1,1.363-.785,6.794,6.794,0,0,0,2.008-.01,1.272,1.272,0,0,1,1.37.771l.436,1.044,1.311-.554-.436-1.045a1.285,1.285,0,0,1,.411-1.524,6.873,6.873,0,0,0,1.414-1.435,1.277,1.277,0,0,1,1.028-.524,1.26,1.26,0,0,1,.482.1l1.042.427.537-1.324-1.041-.428a1.282,1.282,0,0,1-.78-1.37,6.911,6.911,0,0,0-.011-2.021,1.283,1.283,0,0,1,.767-1.378l1.039-.438-.551-1.319-1.039.438a1.26,1.26,0,0,1-.494.1A1.279,1.279,0,0,1,81,26.364a6.845,6.845,0,0,0-1.426-1.421,1.287,1.287,0,0,1-.426-1.52l.425-1.048-1.316-.541-.426,1.048a1.271,1.271,0,0,1-1.362.785,6.863,6.863,0,0,0-.97-.069,6.781,6.781,0,0,0-1.038.08,1.273,1.273,0,0,1-1.371-.771l-.436-1.044-1.311.553.436,1.044a1.286,1.286,0,0,1-.412,1.524,6.889,6.889,0,0,0-1.413,1.435,1.279,1.279,0,0,1-1.029.525,1.263,1.263,0,0,1-.482-.1l-1.041-.428-.538,1.324,1.041.428a1.282,1.282,0,0,1,.781,1.37,6.873,6.873,0,0,0,.01,2.02,1.282,1.282,0,0,1-.767,1.378l-1.038.439.551,1.319,1.038-.438A1.258,1.258,0,0,1,68.977,34.157Z" transform="translate(0 0.61)"/></g></svg>