<svg xmlns="http://www.w3.org/2000/svg" xmlns:xlink="http://www.w3.org/1999/xlink" width="88.828" height="71" viewBox="0 0 88.828 71"><defs><clipPath id="a"><path d="M0,0H88.828V71H0Z" transform="translate(0 0.126)" fill="none"/></clipPath></defs><g transform="translate(0 -0.126)"><path d="M0,0H88.828V71H0Z" transform="translate(0 0.126)" fill="none"/><g clip-path="url(#a)"><path d="M66.939,71H8.069a7.756,7.756,0,0,1-5.912-2.353A9.343,9.343,0,0,1,0,62.2C0,44.706,0,26.619,0,8.752,0,3.354,3.075,0,8.022,0H81.068C85.884,0,89,3.4,89,8.648c0,17.01,0,35.283,0,53.647a9.2,9.2,0,0,1-2.156,6.349A7.64,7.64,0,0,1,81.023,71ZM3,16V28.7q0,16.954.005,33.908C3.007,66.036,4.816,68,7.969,68c24.344,0,49.075,0,72.992-.005,3.293,0,5.034-1.908,5.035-5.519q0-15.113,0-30.226l0-15.113V16ZM19.864,3c-3.839,0-7.973,0-12.191.009A4.26,4.26,0,0,0,3.326,6.589a32.829,32.829,0,0,0-.275,4.428C3.04,11.667,3.028,12.338,3,13H86V11.54c0-.94,0-1.856,0-2.772a6.38,6.38,0,0,0-1.28-4.327A4.892,4.892,0,0,0,80.878,3H19.864Z" transform="translate(0 0)"/></g><path d="M1.939,40.562h0L.1,38.5l-.07-.079L0,38.379l2.148-2.133L11.93,26.53c-.241-.635-.5-1.241-.742-1.826a20.281,20.281,0,0,1-1.272-3.626,10.821,10.821,0,0,1,2.73-9.941c1.883-2.038,3.9-4.014,5.855-5.925.63-.616,1.281-1.254,1.919-1.885a1.6,1.6,0,0,1,1.11-.535,1.716,1.716,0,0,1,1.176.573c.74.723,1.476,1.479,2.187,2.21q.466.478.933.956L32.2.15l.15-.15,1.1,1.249,0,0,.011.013.849.961L28.084,8.377l.218.214,3.755,3.68,3.727-3.718.009-.009,2.581-2.575L39.5,7.183l.875.946-5.094,5.049-.011.011-1.379,1.367q.5.483.976.943c.72.695,1.4,1.351,2.078,2.021a2.079,2.079,0,0,1,.793,1.392,2.124,2.124,0,0,1-.8,1.42c-2.175,2.17-4.383,4.369-6.564,6.534a12.32,12.32,0,0,1-8.706,3.9,12.933,12.933,0,0,1-7.135-2.3,1.415,1.415,0,0,0-.17-.089l-.118-.057L8.852,33.678,1.939,40.561ZM17.418,10.75c-.321.3-.645.582-.959.857a16.462,16.462,0,0,0-1.877,1.822,8.285,8.285,0,0,0-1.749,7.282,8.488,8.488,0,0,0,6.032,6.642,9.67,9.67,0,0,0,2.87.459,8.493,8.493,0,0,0,5.9-2.454c1.2-1.118,2.379-2.3,3.518-3.451.593-.6,1.206-1.215,1.816-1.816.28-.276.577-.535.815-.743.089-.078.17-.148.238-.209l-2.93-2.914L21.521,6.706,19.741,8.27l-.027.024-.484.426L25.878,15.3l4.006,3.963-.849.933-1.047,1.149-9.159-9.18Z" transform="translate(24.103 24.437)"/><path d="M0,2.766H35.784V0H0Z" transform="translate(44.041 6.453)"/><path d="M0,2.766H2.753V0H0Z" transform="translate(9.175 6.453)"/><path d="M0,2.766H2.753V0H0Z" transform="translate(14.68 6.453)"/><path d="M0,2.766H2.753V0H0Z" transform="translate(21.103 6.453)"/></g></svg>