<?xml version="1.0" encoding="UTF-8"?>
<svg width="118px" height="118px" viewBox="0 0 118 118" version="1.1" xmlns="http://www.w3.org/2000/svg" xmlns:xlink="http://www.w3.org/1999/xlink">
    <title>Group</title>
    <g id="Page-1" stroke="none" stroke-width="1" fill="none" fill-rule="evenodd" stroke-linecap="round" stroke-linejoin="round">
        <g id="Build" transform="translate(-215.000000, -7807.000000)" stroke="#000000" stroke-width="4">
            <g id="cloud-storage-drive" transform="translate(217.000000, 7809.000000)">
                <path d="M92.4440785,68.8961056 C92.4440785,68.8961056 114,66.1398287 114,44.3755953 C114.006163,37.6832384 111.272239,31.2770067 106.42818,26.6330481 C101.584121,21.9890895 95.0477524,19.507971 88.3252093,19.7614012 C81.5696471,5.51476931 65.9632547,-2.3614835 50.4168122,0.629745973 C34.8703696,3.62097544 23.3417258,16.7181732 22.4133893,32.4432336 C16.9321598,31.2961324 11.223206,32.6691486 6.87408987,36.18047 C2.52497372,39.6917914 0,44.9669465 0,50.5390053 C0,69.3201482 19.0082591,69 19.0082591,69" id="Shape"></path>
                <path d="M104,101.5 C104,108.403559 98.4624693,114 91.6315789,114 L22.3684211,114 C15.5375307,114 10,108.403559 10,101.5 L10,89 L104,89 L104,101.5 Z" id="Shape"></path>
                <path d="M10,89 L21.5422105,63.54 C22.9219037,60.8818244 25.5865571,59.1561753 28.5526316,59 L81.7368421,59 C84.744568,59.1779908 87.4938967,60.7765987 89.1578947,63.315 L104,89 L10,89 Z" id="Shape"></path>
                <line x1="72" y1="104" x2="87" y2="104" id="Shape"></line>
            </g>
        </g>
    </g>
</svg>