<?xml version="1.0" encoding="UTF-8"?>
<svg width="37px" height="42px" viewBox="0 0 37 42" version="1.1" xmlns="http://www.w3.org/2000/svg" xmlns:xlink="http://www.w3.org/1999/xlink">
    <title>Group 4</title>
    <g id="Page-1" stroke="none" stroke-width="1" fill="none" fill-rule="evenodd">
        <g id="Who-we-are-" transform="translate(-393.000000, -3624.000000)" fill="#000000" stroke="#000000" stroke-width="0.5">
            <g id="Group-4" transform="translate(394.000000, 3625.000000)">
                <path d="M26.5370675,15.75 C29.8685945,15.75 31.9619787,16.7893998 33.2663513,18.5096274 C34.8279096,20.5690357 35.25,23.6379102 35.25,27.1610516 L35.25,27.1610516 L35.25,40.25 L27.7005886,40.25 L27.7000134,28.2603276 C27.6940981,26.7639849 27.6409939,25.0808488 26.9262681,23.9368538 C26.4355624,23.1514266 25.6190584,22.6437683 24.2854201,22.6437683 C22.784037,22.6437683 21.8295754,23.1610306 21.239691,23.9993276 C20.4569348,25.111719 20.2994234,26.7502675 20.2994234,28.4136319 L20.2994234,28.4136319 L20.2994234,40.25 L12.75,40.25 L12.75,16.3295521 L20.0140033,16.3295521 L20.0140033,18.9380479 C20.6084273,18.132943 21.4336101,17.3583714 22.4798261,16.7743141 C23.588077,16.1556253 24.9444285,15.75 26.5370675,15.75 Z" id="Path"></path>
                <path d="M8.25,15.75 L8.25,40.25 L0.75,40.25 L0.75,15.75 L8.25,15.75 Z" id="Path"></path>
                <path d="M4.50249307,-0.25 C5.80844251,-0.25 6.99598234,0.28321795 7.85667829,1.14391391 C8.71651637,2.00375198 9.25,3.19022354 9.25,4.49750693 C9.25,5.81095363 8.71938348,6.99928501 7.86047839,7.85914233 C7.00194438,8.71862814 5.81536216,9.25 4.50249307,9.25 C3.18869467,9.25 2.00214156,8.71740277 1.14324286,7.85850407 C0.281780704,6.99704192 -0.25,5.8073045 -0.25,4.49750693 C-0.25,3.1879587 0.281551794,1.9997451 1.14266369,1.13958682 C2.00158414,0.281617547 3.18836698,-0.25 4.50249307,-0.25 Z" id="Path"></path>
            </g>
        </g>
    </g>
</svg>