<?xml version="1.0" encoding="UTF-8"?>
<svg width="115px" height="131px" viewBox="0 0 115 131" version="1.1" xmlns="http://www.w3.org/2000/svg" xmlns:xlink="http://www.w3.org/1999/xlink">
    <title>Group</title>
    <g id="Page-1" stroke="none" stroke-width="1" fill="none" fill-rule="evenodd" stroke-linecap="round" stroke-linejoin="round">
        <g id="Build" transform="translate(-659.000000, -7807.000000)" stroke="#000000" stroke-width="4">
            <g id="programming-monitor-type" transform="translate(661.000000, 7809.000000)">
                <path d="M35.450625,85.3213214 L36.9975262,79.9072985 C37.6367588,77.6639763 36.3437135,75.3251079 34.1094288,74.6832896 C31.875144,74.0414714 29.5456978,75.3397467 28.9064651,77.5830689 L27.3705349,83.0081071" id="Shape"></path>
                <path d="M22.7462878,99.250176 L27.3705349,83.0081071 C27.9247711,81.5183086 27.5999003,79.8422787 26.5296472,78.6699131 C25.4593942,77.4975476 23.8246492,77.0269955 22.2983143,77.4519477 C20.7719793,77.8769 19.6120299,79.1255327 19.2959302,80.6838776 L16.9920349,88.8021582" id="Shape"></path>
                <path d="M36.8494186,126.83801 C42.7572645,121.016421 48.9174419,114.060255 48.9174419,114.060255 C50.2495907,112.994259 50.5773488,111.096452 49.6804273,109.642366 C48.7835057,108.188281 46.9452891,107.637339 45.4012587,108.359834 L35.8455785,114.721173 L43.5252297,87.6510587 C43.9569803,86.1937706 43.5754681,84.6159473 42.5262696,83.5196503 C41.477071,82.4233533 39.9220572,81.9777202 38.4545862,82.3527945 C36.9871152,82.7278688 35.8335896,83.8657837 35.4341686,85.3323367 L30.815407,101.56339" id="Shape"></path>
                <path d="M13.5087645,100.985087 L16.970093,88.8021582 C17.3806644,87.3499993 16.9884515,85.788226 15.9411971,84.7051431 C14.8939427,83.6220602 13.3507496,83.1822138 11.8929238,83.5512898 C10.435098,83.9203658 9.28411789,85.0422927 8.87354651,86.4944515 L1.19389535,113.559059 C-0.0992495949,118.062649 0.929454477,122.917115 3.93662791,126.502043" id="Shape"></path>
                <path d="M75.8510756,85.3213214 L74.3096599,79.9072985 C73.7544848,77.6958931 75.0477169,75.4412671 77.2313766,74.8135658 C79.4150363,74.1858645 81.7007021,75.4117226 82.3952355,77.5830689 L83.9311657,83.0081071" id="Shape"></path>
                <path d="M88.5554128,99.250176 L83.9311657,83.0081071 C83.3800062,80.7951907 84.6757214,78.5420599 86.8600684,77.9150118 C89.0444154,77.2879637 91.3305257,78.5128803 92.0277122,80.6838776 L94.3316076,88.8021582" id="Shape"></path>
                <path d="M74.4303401,126.83801 C68.5224942,121.016421 62.3952297,114.060255 62.3952297,114.060255 C61.0697271,112.993292 60.745081,111.10124 61.6385763,109.650446 C62.5320716,108.199652 64.3630013,107.645908 65.9059273,108.359834 L75.4616076,114.721173 L67.7819564,87.6510587 C67.3502058,86.1937706 67.7317179,84.6159473 68.7809165,83.5196503 C69.8301151,82.4233533 71.3851289,81.9777202 72.8525998,82.3527945 C74.3200708,82.7278688 75.4735965,83.8657837 75.8730174,85.3323367 L80.4917791,101.574406" id="Shape"></path>
                <path d="M97.792936,100.985087 L94.3316076,88.8021582 C93.8704604,87.3351137 94.240069,85.7323472 95.2964797,84.6180985 C96.3528904,83.5038497 97.92907,83.0542968 99.4111338,83.4445299 C100.893198,83.8347631 102.046811,85.003081 102.422669,86.4944515 L110.10232,113.559059 C111.395465,118.062649 110.366761,122.917115 107.359587,126.502043" id="Shape"></path>
                <rect id="Rectangle-path" x="19.9980698" y="0.173005102" width="71.3110465" height="55.0765306" rx="1"></rect>
                <line x1="55.653593" y1="55.2495357" x2="55.653593" y2="66.2648418" id="Shape"></line>
                <line x1="19.9980698" y1="44.2342296" x2="91.3091163" y2="44.2342296" id="Shape"></line>
                <line x1="41.9399302" y1="66.2648418" x2="69.3672558" y2="66.2648418" id="Shape"></line>
            </g>
        </g>
    </g>
</svg>