<svg xmlns="http://www.w3.org/2000/svg" width="82.032" height="80.75" viewBox="0 0 82.032 80.75"><path d="M75.815,80.75H17.6a1.6,1.6,0,0,1-1.6-1.6V75.092a5.663,5.663,0,0,1,5.657-5.656h2.627l3.229-6.548H4.184A4.189,4.189,0,0,1,0,58.7V11.489A4.189,4.189,0,0,1,4.184,7.305h8.138l2.7-2.7a3.128,3.128,0,0,1,4.416,0l.251.253a17.923,17.923,0,0,1,3.337-1.383V3.12A3.124,3.124,0,0,1,26.146,0h4.26a3.124,3.124,0,0,1,3.12,3.12v.355a17.954,17.954,0,0,1,3.337,1.383l.249-.251a3.128,3.128,0,0,1,4.418,0l2.7,2.7H77.847a4.189,4.189,0,0,1,4.184,4.184v62.4C82.031,77.672,79.243,80.75,75.815,80.75ZM57.363,31.935c-1.633,0-3.012,1.675-3.012,3.658v38.3c0,1.983,1.379,3.658,3.012,3.658H75.815c1.633,0,3.012-1.675,3.012-3.658v-38.3c0-1.983-1.379-3.658-3.012-3.658H74.167v3.6a3.186,3.186,0,0,1-3.184,3.18H62.2a3.186,3.186,0,0,1-3.184-3.18v-3.6ZM21.65,72.64A2.456,2.456,0,0,0,19.2,75.092v2.453h32.91a7.364,7.364,0,0,1-.96-3.658V72.64H21.65Zm9.428-9.751h0L27.85,69.436h23.3V62.889H31.079ZM3.2,55.2v3.5a.981.981,0,0,0,.98.98H51.147V55.2Zm.98-44.691a.993.993,0,0,0-.98.979V52H51.147v-16.4c0-3.784,2.789-6.862,6.216-6.862H75.815a5.761,5.761,0,0,1,3.012.862v-18.1a.993.993,0,0,0-.98-.979H45.373a3.1,3.1,0,0,1-.833,1.522l-.251.251a18.113,18.113,0,0,1,1.384,3.337h.353a3.128,3.128,0,0,1,3.125,3.125V23a3.126,3.126,0,0,1-3.125,3.12h-.353a18.059,18.059,0,0,1-1.384,3.341l.254.255a3.122,3.122,0,0,1,0,4.409l-3.01,3.01a3.126,3.126,0,0,1-4.415,0l-.25-.249a18.009,18.009,0,0,1-3.339,1.384v.355a3.124,3.124,0,0,1-3.12,3.121h-4.26a3.124,3.124,0,0,1-3.12-3.121V38.27a18.009,18.009,0,0,1-3.339-1.384l-.249.249a3.127,3.127,0,0,1-4.416,0l-3.01-3.01a3.124,3.124,0,0,1,0-4.412l.251-.252a18.059,18.059,0,0,1-1.384-3.341h-.353A3.126,3.126,0,0,1,7.4,23V18.745a3.128,3.128,0,0,1,3.125-3.125h.353a18.113,18.113,0,0,1,1.384-3.337l-.253-.254a3.1,3.1,0,0,1-.832-1.519ZM19.428,33.277a1.6,1.6,0,0,1,.856.248,14.761,14.761,0,0,0,4.693,1.945,1.593,1.593,0,0,1,1.253,1.563v1.507h4.092V37.033a1.593,1.593,0,0,1,1.253-1.563,14.761,14.761,0,0,0,4.693-1.945,1.6,1.6,0,0,1,1.99.221l1.066,1.066,2.892-2.892-1.066-1.07a1.594,1.594,0,0,1-.219-1.987,14.863,14.863,0,0,0,1.946-4.7,1.593,1.593,0,0,1,1.563-1.249h1.507V18.824H44.439a1.593,1.593,0,0,1-1.563-1.249,14.873,14.873,0,0,0-1.946-4.693,1.594,1.594,0,0,1,.219-1.987l1.067-1.072L39.323,6.93,38.26,8a1.6,1.6,0,0,1-1.993.223,14.761,14.761,0,0,0-4.693-1.945,1.594,1.594,0,0,1-1.253-1.564V3.2H26.23V4.712a1.594,1.594,0,0,1-1.253,1.564,14.766,14.766,0,0,0-4.693,1.945A1.6,1.6,0,0,1,18.292,8L17.229,6.93,14.335,9.824,15.4,10.9a1.594,1.594,0,0,1,.219,1.987,14.873,14.873,0,0,0-1.946,4.693,1.593,1.593,0,0,1-1.563,1.249H10.606v4.092h1.507a1.593,1.593,0,0,1,1.563,1.249,14.885,14.885,0,0,0,1.946,4.7,1.594,1.594,0,0,1-.219,1.987l-1.065,1.07,2.891,2.892,1.066-1.065A1.593,1.593,0,0,1,19.428,33.277Zm42.788-1.341v3.577h8.746V31.936Z" transform="translate(0)"/><path d="M11.163,22.325A11.162,11.162,0,1,1,22.329,11.163,11.175,11.175,0,0,1,11.163,22.325Zm0-19.121a7.958,7.958,0,1,0,7.962,7.959A7.968,7.968,0,0,0,11.163,3.2Z" transform="translate(17.111 9.71)"/><path d="M29.282,3.2H22.646a1.6,1.6,0,1,1,0-3.2h6.637a1.6,1.6,0,1,1,0,3.2ZM8.24,3.2H1.6A1.6,1.6,0,1,1,1.6,0H8.24a1.6,1.6,0,1,1,0,3.2Z" transform="translate(51.147 69.436)"/><path d="M1.6,3.2A1.6,1.6,0,0,1,1.6,0h0a1.6,1.6,0,0,1,0,3.2Z" transform="translate(64.983 69.436)"/></svg>