<?xml version="1.0" encoding="UTF-8"?>
<svg width="122px" height="112px" viewBox="0 0 122 112" version="1.1" xmlns="http://www.w3.org/2000/svg" xmlns:xlink="http://www.w3.org/1999/xlink">
    <title>monitor-touch</title>
    <g id="Page-1" stroke="none" stroke-width="1" fill="none" fill-rule="evenodd">
        <g id="monitor-touch" transform="translate(2.000000, 2.000000)" fill="#000000" fill-rule="nonzero">
            <path d="M86.3280409,35.9038462 C90.3064705,35.9038462 93.5441524,39.0722531 93.6720683,43.0261916 L93.6759942,43.2692308 L93.675,67.273 L113.427883,73.0044035 C117.86537,74.2935336 120.556205,78.7730223 119.65463,83.2855531 L119.599749,83.5409934 L119.164423,85.4165701 L115.073239,108.010205 C114.876427,109.097099 113.835778,109.818654 112.748884,109.621842 C111.711394,109.433977 111.006786,108.477243 111.116049,107.445339 L111.137247,107.297488 L115.247681,84.6103335 L115.701882,82.6428677 C116.267385,80.1838797 114.877488,77.7120681 112.522911,76.91201 L112.312676,76.8457979 L91.1187372,70.6970672 C90.317452,70.4646004 89.7505407,69.7619876 89.6828068,68.9417752 L89.6759942,68.7762692 L89.6759942,43.2692308 C89.6759942,41.4091259 88.1756049,39.9038462 86.3280409,39.9038462 C84.5420624,39.9038462 83.0804994,41.3104464 82.9850463,43.0844456 L82.9800877,43.2692308 L82.9800877,86.2996154 C82.9800877,88.4590793 80.0312293,89.0858229 79.1529674,87.1130227 C76.1524019,80.3729871 71.3302213,76.6958337 67.3015743,76.7043441 C64.4837254,76.7102967 63.5551155,78.4984561 65.5610297,81.7029697 L65.6930621,81.9094331 L82.057799,106.547279 C82.668939,107.467378 82.4184785,108.708692 81.4983797,109.319832 C80.6242859,109.900415 79.4602951,109.703404 78.8221051,108.893382 L78.7258267,108.760413 L62.3523797,84.1093399 C58.4831267,78.1827071 61.1421025,72.7173469 67.2931245,72.704353 C71.2551136,72.6959834 75.4179074,74.9301058 78.8016725,78.9716862 L78.98,79.189 L78.9800877,43.2692308 C78.9800877,39.2842222 82.138201,36.036115 86.0854093,35.9077848 L86.3280409,35.9038462 Z" id="Shape"></path>
            <path d="M104.992398,-1.65384615 C110.434979,-1.65384615 114.861974,2.69503136 115.010478,8.11305169 L115.014327,8.39423077 L115.014327,64.7307692 C115.014327,65.8353387 114.118897,66.7307692 113.014327,66.7307692 C111.959966,66.7307692 111.096162,65.9148914 111.019813,64.8800316 L111.014327,64.7307692 L111.014327,8.39423077 C111.014327,5.12846388 108.437982,2.46949848 105.218063,2.35032328 L104.992398,2.34615385 L8.72923977,2.34615385 C5.48043296,2.34615385 2.83025049,4.93089727 2.71146575,8.16739541 L2.70730994,8.39423077 L2.70730994,72.7788462 C2.70730994,76.044613 5.28365589,78.7035784 8.5035744,78.8227536 L8.72923977,78.8269231 L54.1868421,78.8269231 C55.2914116,78.8269231 56.1868421,79.7223536 56.1868421,80.8269231 C56.1868421,81.8812849 55.3709643,82.7450882 54.3361045,82.8214373 L54.1868421,82.8269231 L8.72923977,82.8269231 C3.28665881,82.8269231 -1.14033693,78.4780456 -1.28884107,73.0600252 L-1.29269006,72.7788462 L-1.29269006,8.39423077 C-1.29269006,2.9403184 3.04205855,-1.50099831 8.44864938,-1.64998465 L8.72923977,-1.65384615 L104.992398,-1.65384615 Z" id="Shape"></path>
            <path d="M56.8447749,94.9230769 C57.9493444,94.9230769 58.8447749,95.8185074 58.8447749,96.9230769 C58.8447749,97.9774387 58.0288971,98.841242 56.9940372,98.9175912 L56.8447749,98.9230769 L30.1050088,98.9230769 C29.0004393,98.9230769 28.1050088,98.0276464 28.1050088,96.9230769 C28.1050088,95.8687151 28.9208866,95.0049118 29.9557464,94.9285627 L30.1050088,94.9230769 L56.8447749,94.9230769 Z" id="Shape"></path>
            <path d="M48.822845,78.8269231 C49.8772068,78.8269231 50.7410102,79.6428009 50.8173593,80.6776607 L50.822845,80.8269231 L50.822845,96.9230769 C50.822845,98.0276464 49.9274145,98.9230769 48.822845,98.9230769 C47.7684832,98.9230769 46.9046799,98.1071991 46.8283308,97.0723393 L46.822845,96.9230769 L46.822845,80.8269231 C46.822845,79.7223536 47.7182755,78.8269231 48.822845,78.8269231 Z" id="Shape"></path>
        </g>
    </g>
</svg>