<svg xmlns="http://www.w3.org/2000/svg" width="149" height="134" viewBox="0 0 149 134">
    <g fill="none" fill-rule="evenodd" stroke-linecap="round" stroke-linejoin="round">
        <g stroke="#000" stroke-width="4">
            <g transform="translate(-633 -2591) translate(635 2593)">
                <path d="M28.517 125.28L116.483 125.28M69.358 112.753L69.358 125.28M.242 87.699L144.758 87.699"/>
                <rect width="144.517" height="112.742" x=".242" y=".011" rx="1.5"/>
                <path d="M28.517 75.172L116.483 75.172M34.8 56.357h12.567c1.735 0 3.141 1.402 3.141 3.132v15.658h-18.85V59.49c0-1.73 1.407-3.132 3.142-3.132zM66.217 37.567h12.566c1.735 0 3.142 1.402 3.142 3.131v34.45h-18.85v-34.45c0-1.73 1.407-3.131 3.142-3.131zM97.633 18.776H110.2c1.735 0 3.142 1.402 3.142 3.132v53.24h-18.85v-53.24c0-1.73 1.406-3.132 3.141-3.132z"/>
            </g>
        </g>
    </g>
</svg>
