<svg xmlns="http://www.w3.org/2000/svg" width="87.307" height="82.318" viewBox="0 0 87.307 82.318"><path d="M4.952,2.494h-3.7A1.247,1.247,0,0,1,1.247,0h3.7a1.247,1.247,0,1,1,0,2.494Z" transform="translate(47.034)"/><path d="M81.071,63.609H6.236A6.244,6.244,0,0,1,0,57.373V6.236A6.244,6.244,0,0,1,6.236,0H27.2a1.247,1.247,0,0,1,0,2.494H6.236A3.742,3.742,0,0,0,2.494,6.236V57.373a3.742,3.742,0,0,0,3.742,3.742H81.071a3.742,3.742,0,0,0,3.742-3.742V6.236a3.742,3.742,0,0,0-3.742-3.742H60.716a1.247,1.247,0,0,1,0-2.494H81.071a6.244,6.244,0,0,1,6.236,6.236V57.373a6.244,6.244,0,0,1-6.236,6.236Z" transform="translate(0 0)"/><path d="M4.864,2.494H1.247A1.247,1.247,0,0,1,1.247,0H4.864a1.247,1.247,0,1,1,0,2.494Z" transform="translate(34.686)"/><path d="M28.687,11.849H1.247A1.248,1.248,0,0,1,0,10.6V1.247A1.249,1.249,0,0,1,1.247,0H28.687a1.249,1.249,0,0,1,1.247,1.247V10.6A1.248,1.248,0,0,1,28.687,11.849ZM2.495,2.495v6.86H27.439V2.495Z" transform="translate(28.687 61.115)"/><path d="M41.947,11.849H1.247A1.248,1.248,0,0,1,0,10.6V5.238A5.244,5.244,0,0,1,5.238,0H37.954a5.244,5.244,0,0,1,5.238,5.238V10.6a1.248,1.248,0,0,1-1.244,1.247ZM5.234,2.495A2.744,2.744,0,0,0,2.49,5.238l0,4.117h38.2V5.238a2.759,2.759,0,0,0-.8-1.939,2.726,2.726,0,0,0-1.94-.8Z" transform="translate(22.061 70.469)"/><path d="M86.06,2.494H1.247A1.247,1.247,0,0,1,1.247,0H86.06a1.247,1.247,0,1,1,0,2.494Z" transform="translate(0 46.772)"/><path d="M5.171,2.494H1.247A1.247,1.247,0,0,1,1.247,0H5.171a1.247,1.247,0,0,1,0,2.494Z" transform="translate(9.64 53.528)"/><path d="M65.253,29.207a1.247,1.247,0,0,1-1.226-1.026,31.28,31.28,0,0,0-61.551,0A1.248,1.248,0,1,1,.02,27.739a33.775,33.775,0,0,1,66.463,0,1.247,1.247,0,0,1-1.008,1.448,1.225,1.225,0,0,1-.222.02Z" transform="translate(10.402 20.059)"/><path d="M1.247,4.577A1.247,1.247,0,0,1,0,3.33V1.247a1.247,1.247,0,0,1,2.494,0V3.33A1.247,1.247,0,0,1,1.247,4.577Z" transform="translate(42.406 26.387)"/><path d="M2.7,3.952a1.247,1.247,0,0,1-.882-.365L.35,2.114A1.247,1.247,0,0,1,2.114.35L3.587,1.823A1.247,1.247,0,0,1,2.7,3.952Z" transform="translate(26.875 32.842)"/><path d="M1.247,3.983A1.247,1.247,0,0,1,.365,1.854L1.838.381A1.247,1.247,0,1,1,3.6,2.144L2.129,3.617a1.247,1.247,0,0,1-.882.365Z" transform="translate(56.48 32.811)"/><path d="M13.019,8.38a1.247,1.247,0,0,1-1.247-1.247,4.639,4.639,0,0,0-9.277,0A1.247,1.247,0,1,1,0,7.133a7.133,7.133,0,1,1,14.266,0A1.247,1.247,0,0,1,13.019,8.38Z" transform="translate(36.521 40.886)"/><path d="M1.245,7.525A1.247,1.247,0,0,1,.21,5.585L3.567.555A1.248,1.248,0,0,1,5.643,1.941L2.284,6.963a1.247,1.247,0,0,1-1.039.561Z" transform="translate(44.505 36.254)"/></svg>