<?xml version="1.0" encoding="UTF-8"?>
<svg width="110px" height="124px" viewBox="0 0 110 124" version="1.1" xmlns="http://www.w3.org/2000/svg" xmlns:xlink="http://www.w3.org/1999/xlink">
    <title>phone-hand-hold</title>
    <g id="Page-1" stroke="none" stroke-width="1" fill="none" fill-rule="evenodd">
        <g id="phone-hand-hold" transform="translate(2.000000, 2.000000)" fill="#000000" fill-rule="nonzero">
            <path d="M15.6036371,53.662773 C17.3035246,53.210733 19.0496347,54.1675611 19.5929997,55.8183404 L19.6486339,56.0056335 C20.0969155,57.7041787 19.1323708,59.4405616 17.4827084,59.9771963 L17.3033704,60.0300456 C15.5478889,60.4947074 13.7441615,59.4553121 13.2715017,57.7013736 C12.7980719,55.9445777 13.8399865,54.1393327 15.6036371,53.662773 Z" id="Shape"></path>
            <path d="M86.6065032,6.39114926 C90.3605887,5.38058277 94.2280012,7.51661701 95.3817023,11.2045559 L95.4516301,11.4420485 L107.627811,56.630181 C108.649591,60.3829587 106.499197,64.2479797 102.795511,65.3945277 L102.562023,65.4626216 L90.7655077,68.6242216 C89.6985921,68.9101671 88.6018814,68.2770658 88.3159359,67.2101501 C88.042988,66.1917307 88.607436,65.1461633 89.5872535,64.8045174 L89.7300074,64.7605784 L101.515882,61.6018616 C103.166947,61.1495883 104.160736,59.499348 103.809724,57.8523486 L103.766938,57.6759515 L91.5927338,12.4950238 C91.1396033,10.8549676 89.4798513,9.86245819 87.8232968,10.211221 L87.6458762,10.2537525 L85.5579974,10.8153525 C84.4913409,11.102263 83.394058,10.4701539 83.1071475,9.40349738 C82.8332784,8.38532524 83.3967804,7.33924769 84.3762884,6.99671565 L84.5190026,6.9526475 L86.6065032,6.39114926 Z" id="Shape"></path>
            <path d="M16.655136,25.1103411 C17.7221827,24.824885 18.8186028,25.4584893 19.1040589,26.525536 C19.3765397,27.5440806 18.8116122,28.5893889 17.8316381,28.9305854 L17.688864,28.9744589 L4.46323923,32.5125384 C2.81217449,32.9648117 1.81838513,34.615052 2.1691956,36.2613029 L2.21195889,36.4376169 L14.4072662,81.6193762 C14.8603967,83.2594324 16.5201487,84.2519418 18.179344,83.9024708 L18.3570578,83.8598607 L67.0985881,70.8286607 C68.1656791,70.5433706 69.2620007,71.1771455 69.5472908,72.2442365 C69.8196132,73.2628235 69.254523,74.308044 68.2744959,74.6490879 L68.131715,74.6929393 L19.3934968,87.7232507 C15.6394113,88.7338172 11.7719988,86.597783 10.6185082,82.9106248 L10.5485941,82.6731831 L-1.64868935,37.484219 C-2.67046974,33.7314413 -0.520075536,29.8664203 3.18444311,28.7196493 L3.41798449,28.6515411 L16.655136,25.1103411 Z" id="Shape"></path>
            <path d="M51.1000303,3.4 C45.6730114,3.4 41.2704848,7.78591323 41.2704848,13.2 L41.2704848,34 C41.2704848,39.4140866 45.6730115,43.7999998 51.1000303,43.7999998 C56.5270492,43.7999998 60.9295758,39.4140866 60.9295758,34 L60.9295758,13.2 C60.9295758,7.78591323 56.5270492,3.4 51.1000303,3.4 Z M51.1000303,7.4 C54.3212885,7.4 56.9295758,9.99844467 56.9295758,13.2 L56.9295758,34 C56.9295758,37.2015552 54.3212885,39.7999998 51.1000303,39.7999998 C47.8787721,39.7999998 45.2704848,37.2015552 45.2704848,34 L45.2704848,13.2 C45.2704848,9.99844467 47.8787721,7.4 51.1000303,7.4 Z" id="Shape"></path>
            <path d="M35.4409394,8.6 C30.0139205,8.6 25.6113939,12.9859132 25.6113939,18.4 L25.6113939,39.2 C25.6113939,44.6140868 30.0139205,49 35.4409394,49 C40.8679583,49 45.2704848,44.6140868 45.2704848,39.2 L45.2704848,18.4 C45.2704848,12.9859132 40.8679583,8.6 35.4409394,8.6 Z M35.4409394,12.6 C38.6621976,12.6 41.2704848,15.1984447 41.2704848,18.4 L41.2704848,39.2 C41.2704848,42.4015553 38.6621976,45 35.4409394,45 C32.2196812,45 29.6113939,42.4015553 29.6113939,39.2 L29.6113939,18.4 C29.6113939,15.1984447 32.2196812,12.6 35.4409394,12.6 Z" id="Shape"></path>
            <path d="M66.7591212,-1.79999967 C61.3321024,-1.79999967 56.9295758,2.5859134 56.9295758,8 L56.9295758,28.8 C56.9295758,34.2140868 61.3321023,38.6 66.7591212,38.6 C72.1861401,38.6 76.5886667,34.2140868 76.5886667,28.8 L76.5886667,8 C76.5886667,2.5859134 72.18614,-1.79999967 66.7591212,-1.79999967 Z M66.7591212,2.20000033 C69.9803794,2.20000033 72.5886667,4.79844489 72.5886667,8 L72.5886667,28.8 C72.5886667,32.0015553 69.9803794,34.6 66.7591212,34.6 C63.537863,34.6 60.9295758,32.0015553 60.9295758,28.8 L60.9295758,8 C60.9295758,4.79844489 63.5378631,2.20000033 66.7591212,2.20000033 Z" id="Shape"></path>
            <path d="M73.734167,65.1441328 C74.7328454,64.6722057 75.9250068,65.0992219 76.3969339,66.0979003 C76.868861,67.0965787 76.4418447,68.2887401 75.4431663,68.7606672 C69.765242,71.4437797 66.1479765,77.1428973 66.1492716,83.3995859 C66.1495006,84.5041554 65.2542555,85.3997713 64.149686,85.4 C63.0451166,85.4002287 62.1495007,84.5049836 62.1492716,83.4004141 C62.1476559,75.5947735 66.6585393,68.4877323 73.734167,65.1441328 Z" id="Shape"></path>
            <path d="M27.6113939,81.478 C28.6657557,81.478 29.5295591,82.2938778 29.6059082,83.3287377 L29.6113939,83.478 L29.6113939,86 C29.6113939,88.5443735 30.7696924,90.9464646 32.7518945,92.5378416 L32.9842475,92.7178261 L35.0721263,94.2778261 C38.1108259,96.5482507 39.9377862,100.073715 40.0457207,103.845686 L40.0507879,104.2 L40.0507879,119.8 C40.0507879,120.904569 39.1553574,121.8 38.0507879,121.8 C36.9964261,121.8 36.1326228,120.984122 36.0562736,119.949262 L36.0507879,119.8 L36.0507879,104.2 C36.0507879,101.655626 34.8924894,99.2535354 32.9102873,97.6621584 L32.6779343,97.4821739 L30.5900555,95.9221739 C27.5513559,93.6517493 25.7243956,90.126285 25.6164611,86.3543137 L25.6113939,86 L25.6113939,83.478 C25.6113939,82.3734305 26.5068244,81.478 27.6113939,81.478 Z" id="Shape"></path>
            <path d="M82.4182121,39.8 C87.7532477,39.8 92.0982253,44.0384982 92.24398,49.3256099 L92.2477579,49.6 L92.2477579,78.1996959 C92.2488037,85.0778158 88.2314699,91.3129449 81.9864407,94.1835858 L81.6497647,94.334136 C78.6613693,95.6334566 76.7014412,98.5246987 76.593374,101.751265 L76.5886642,102.0368 L76.5886642,119.8 C76.5886642,120.904569 75.6932349,121.8 74.5886642,121.8 C73.5343036,121.8 72.6705003,120.984122 72.5941512,119.949262 L72.5886642,119.8 L72.5886642,102.037773 C72.5863179,97.2105213 75.3928519,92.8323706 79.7613104,90.797996 L80.0548412,90.6658641 C84.9310673,88.5457354 88.1165839,83.805534 88.2438012,78.5303751 L88.2477578,78.2 L88.2477578,49.6 C88.2477578,46.3984447 85.6394704,43.8 82.4182121,43.8 C79.2718666,43.8 76.7103127,46.2789924 76.5928723,49.3776393 L76.5886642,49.6 L76.5886642,66.9524 C76.5886642,68.0569695 75.6932349,68.9524 74.5886642,68.9524 C73.5343036,68.9524 72.6705003,68.1365222 72.5941512,67.1016623 L72.5886642,66.9524 L72.5886642,49.6 C72.5886642,44.1859134 76.9911931,39.8 82.4182121,39.8 Z" id="Shape"></path>
        </g>
    </g>
</svg>