<?xml version="1.0" encoding="UTF-8"?>
<svg width="126px" height="126px" viewBox="0 0 126 126" version="1.1" xmlns="http://www.w3.org/2000/svg" xmlns:xlink="http://www.w3.org/1999/xlink">
    <title>Group</title>
    <g id="Page-1" stroke="none" stroke-width="1" fill="none" fill-rule="evenodd" stroke-linecap="round" stroke-linejoin="round">
        <g id="Build" transform="translate(-1105.000000, -7810.000000)" stroke="#000000" stroke-width="4">
            <g id="mood-happy-smartphone" transform="translate(1107.000000, 7812.000000)">
                <path d="M78.0214646,21.719697 C78.7445951,21.719697 79.3308081,22.30591 79.3308081,23.0290404 C79.3308081,23.7521708 78.7445951,24.3383838 78.0214646,24.3383838 C77.2983342,24.3383838 76.7121212,23.7521708 76.7121212,23.0290404 C76.7121212,22.30591 77.2983342,21.719697 78.0214646,21.719697" id="Shape"></path>
                <path d="M101.589646,21.719697 C102.312777,21.719697 102.89899,22.30591 102.89899,23.0290404 C102.89899,23.7521708 102.312777,24.3383838 101.589646,24.3383838 C100.866516,24.3383838 100.280303,23.7521708 100.280303,23.0290404 C100.280303,22.30591 100.866516,21.719697 101.589646,21.719697" id="Shape"></path>
                <path d="M100.280303,40.0505051 C100.280303,45.8355483 95.5905988,50.5252525 89.8055556,50.5252525 C84.0205123,50.5252525 79.3308081,45.8355483 79.3308081,40.0505051 L100.280303,40.0505051 Z" id="Shape"></path>
                <path d="M89.4546515,0.770197957 C81.0998399,0.798164227 73.1056855,4.17762008 67.2642428,10.1509949 C61.4228001,16.1243697 58.2227008,24.1919958 58.3813131,32.5453485 C58.1455347,38.3916897 59.5632564,44.1860147 62.471702,49.2630455 L53.1439394,68.8560606 L72.7369545,59.5230606 C84.1900297,66.6230202 98.8767716,65.7225362 109.376684,57.2765793 C119.876597,48.8306224 123.9036,34.6780783 119.423045,21.9695386 C114.94249,9.26099885 102.9299,0.763414809 89.4546515,0.770197957 L89.4546515,0.770197957 Z" id="Shape"></path>
                <line x1="84.5681818" y1="74.0934343" x2="84.5681818" y2="121.229798" id="Shape"></line>
                <path d="M0.77020202,121.229798 L0.77020202,26.9570707 C0.77020202,21.1720274 5.45990621,16.4823232 11.2449495,16.4823232 L50.5252525,16.4823232" id="Shape"></path>
                <line x1="47.9065657" y1="37.4318182" x2="0.77020202" y2="37.4318182" id="Shape"></line>
                <circle id="Oval" cx="40.0505051" cy="85.8775253" r="11.7840909"></circle>
                <path d="M63.6186869,121.229798 C60.8714886,110.456389 51.1686635,102.917274 40.0505051,102.917274 C28.9323466,102.917274 19.2295215,110.456389 16.4823232,121.229798" id="Shape"></path>
                <line x1="34.8131313" y1="26.9570707" x2="47.9065657" y2="26.9570707" id="Shape"></line>
            </g>
        </g>
    </g>
</svg>