<svg xmlns="http://www.w3.org/2000/svg" width="81" height="80.998" viewBox="0 0 81 80.998"><g transform="translate(0 -0.001)"><path d="M1.587,3.164A1.582,1.582,0,0,0,1.587,0H1.578a1.582,1.582,0,1,0,.009,3.164Z" transform="translate(59.755 8.329)"/><path d="M1.587,3.164A1.582,1.582,0,0,0,1.587,0H1.578a1.582,1.582,0,1,0,.009,3.164Z" transform="translate(68.293 8.329)"/><path d="M1.587,3.164A1.582,1.582,0,0,0,1.587,0H1.578a1.582,1.582,0,1,0,.009,3.164Z" transform="translate(51.216 8.329)"/><path d="M1.582,3.164H25.354a1.582,1.582,0,0,0,0-3.164H1.582a1.582,1.582,0,0,0,0,3.164Z" transform="translate(9.534 8.329)"/><path d="M40.5,81a27.051,27.051,0,0,1-19.256-7.978,27.573,27.573,0,0,1-3.507-4.29H5.075A5.081,5.081,0,0,1,0,63.655V5.075A5.081,5.081,0,0,1,5.075,0h70.85A5.081,5.081,0,0,1,81,5.075v58.58a5.081,5.081,0,0,1-5.075,5.075H63.254a27.34,27.34,0,0,1-3.5,4.29A27.055,27.055,0,0,1,40.5,81ZM18.046,39.776a1.582,1.582,0,0,1,1.382,2.348,24.172,24.172,0,0,0,4.054,28.659A24.066,24.066,0,0,0,57.518,36.751a24.292,24.292,0,0,0-17.072-7.032A24,24,0,0,0,28.855,32.7a1.582,1.582,0,1,1-1.531-2.768,27.42,27.42,0,0,1,16.8-3.151A27.2,27.2,0,0,1,67.365,49.385a27.364,27.364,0,0,1-2.324,16.182H75.925a1.913,1.913,0,0,0,1.911-1.912V19.823H3.164V63.655a1.913,1.913,0,0,0,1.911,1.911H15.943a27.1,27.1,0,0,1-2.434-8.171,27.43,27.43,0,0,1,3.15-16.8A1.584,1.584,0,0,1,18.046,39.776ZM5.075,3.164A1.913,1.913,0,0,0,3.164,5.075V16.66H77.836V5.075a1.913,1.913,0,0,0-1.911-1.911Z" transform="translate(0 0.001)"/><path d="M1.582,6.94A1.582,1.582,0,0,0,3.164,5.358V1.582A1.582,1.582,0,0,0,0,1.582V5.358A1.582,1.582,0,0,0,1.582,6.94Z" transform="translate(38.916 55.944)"/><path d="M13.555,36.349A13.571,13.571,0,0,1,0,22.793v-6.05a4.206,4.206,0,0,1,3.413-4.125V8.47A8.479,8.479,0,0,1,11.883,0h3.345A8.479,8.479,0,0,1,23.7,8.47v4.148a4.2,4.2,0,0,1,3.413,4.126v6.05A13.571,13.571,0,0,1,13.555,36.349ZM4.206,15.707a1.053,1.053,0,0,0-1.042,1.037v6.05a10.391,10.391,0,0,0,20.783,0v-6.05a1.051,1.051,0,0,0-1.037-1.037ZM11.883,3.164A5.312,5.312,0,0,0,6.576,8.47v4.073H20.534V8.47a5.312,5.312,0,0,0-5.306-5.305Z" transform="translate(26.942 35.553)"/><path d="M.463.464A1.582,1.582,0,1,0,2.7,2.7l0,0A1.582,1.582,0,0,0,.463.464Z" transform="translate(20.781 34.05)"/></g></svg>