<svg xmlns="http://www.w3.org/2000/svg" width="80" height="80.001" viewBox="0 0 80 80.001"><path d="M34.839,80H6.451V77.42h3.3a7.5,7.5,0,0,0,1.859-4.94v-.221H3.871A3.875,3.875,0,0,1,0,68.387V47.742a3.875,3.875,0,0,1,3.871-3.871H14.194V35.2l3.363-1.121a23.081,23.081,0,0,1,2.354-5.691H0V0H25.807V18.687l2.516,1.259a23,23,0,0,1,5.755-2.389L35.2,14.194H38.71V3.871A3.875,3.875,0,0,1,42.581,0H76.129A3.875,3.875,0,0,1,80,3.871V24.516a3.875,3.875,0,0,1-3.871,3.871H68.387v.222a7.507,7.507,0,0,0,1.859,4.939h3.3v2.58H65.806V44.8l-3.363,1.121a23.081,23.081,0,0,1-2.353,5.691H80V80H54.194V61.313l-2.516-1.259a23,23,0,0,1-5.755,2.389L44.8,65.806H41.29v2.581a3.875,3.875,0,0,1-3.871,3.871H29.677v.221a7.508,7.508,0,0,0,1.859,4.94h3.3V80Zm24.516-22.86-2.581,2.581v17.7H77.42V54.194H61.313l.329.66-1.922,1.921H74.839v7.743H59.355ZM14.194,72.258v.221A10.094,10.094,0,0,1,12.9,77.42H28.391A10.086,10.086,0,0,1,27.1,72.48v-.221ZM2.58,64.517v3.871a1.292,1.292,0,0,0,1.291,1.29H37.419a1.292,1.292,0,0,0,1.291-1.29V64.517ZM57.639,36.129A18.2,18.2,0,0,1,58.064,40,18.074,18.074,0,0,1,41.29,58v5.227h1.651l.988-2.959.706-.162a20.481,20.481,0,0,0,6.3-2.614l.615-.384,2.8,1.4,4.159-4.16-1.4-2.8.384-.616a20.481,20.481,0,0,0,2.614-6.3l.161-.706,2.96-.987V36.129Zm4.3,23.226v2.58H72.258v-2.58ZM3.871,46.452A1.292,1.292,0,0,0,2.58,47.742V61.935H38.71V47.742a1.292,1.292,0,0,0-1.291-1.291ZM38.716,24.581a15.455,15.455,0,0,0-13.7,19.291H37.419a3.875,3.875,0,0,1,3.871,3.871v7.676a15.454,15.454,0,0,0,13.7-19.29H45.161v-2.58h3.3a7.511,7.511,0,0,0,1.859-4.939v-.222H42.581a3.872,3.872,0,0,1-3.865-3.806ZM25.655,21.5,21.5,25.655l1.4,2.8-.384.616a20.481,20.481,0,0,0-2.615,6.3l-.161.706-2.96.987v6.812h5.588A18.162,18.162,0,0,1,21.936,40,18.074,18.074,0,0,1,38.71,22V16.774H37.059l-.988,2.958-.706.163a20.481,20.481,0,0,0-6.3,2.615l-.615.384ZM52.9,28.387v.222a10.078,10.078,0,0,1-1.294,4.939H67.1a10.088,10.088,0,0,1-1.294-4.939v-.222ZM41.29,20.645v3.871a1.292,1.292,0,0,0,1.291,1.291H76.129a1.292,1.292,0,0,0,1.291-1.291V20.645ZM2.58,2.58V25.807H18.687l-.329-.66,1.922-1.921H5.161V15.484H20.645v7.376l2.58-2.58V2.58ZM7.742,18.065v2.58H18.065v-2.58ZM42.581,2.58A1.292,1.292,0,0,0,41.29,3.871V18.065H77.42V3.871A1.292,1.292,0,0,0,76.129,2.58Z" transform="translate(0)"/><path d="M0,0H15.484V2.581H0Z" transform="translate(59.355 67.097)"/><path d="M0,0H2.581V2.581H0Z" transform="translate(59.355 72.258)"/><path d="M0,0H10.323V2.581H0Z" transform="translate(64.516 72.258)"/><path d="M0,0H15.484V2.581H0Z" transform="translate(5.161 10.323)"/><path d="M0,0H2.581V2.581H0Z" transform="translate(18.065 5.161)"/><path d="M0,0H10.323V2.581H0Z" transform="translate(5.161 5.161)"/><path d="M2.565,2.859a13,13,0,0,0,.079-1.426A12.844,12.844,0,0,0,2.564,0L0,.288A10.456,10.456,0,0,1,.063,1.434,10.468,10.468,0,0,1,0,2.578Z" transform="translate(50.259 38.566)"/><path d="M3.425.843.985,0A10.215,10.215,0,0,1,0,2.066L2.191,3.43A12.965,12.965,0,0,0,3.425.843Z" transform="translate(48.773 43.377)"/><path d="M3.462,1.809,1.622,0A10.376,10.376,0,0,1,0,1.342L1.435,3.486A12.955,12.955,0,0,0,3.462,1.809Z" transform="translate(45.734 47.243)"/></svg>