<?xml version="1.0" encoding="UTF-8"?>
<svg width="111px" height="112px" viewBox="0 0 111 112" version="1.1" xmlns="http://www.w3.org/2000/svg" xmlns:xlink="http://www.w3.org/1999/xlink">
    <title>Light</title>
    <g id="Page-1" stroke="none" stroke-width="1" fill="none" fill-rule="evenodd">
        <g id="Light" transform="translate(2.000000, 2.000000)" fill="#000000" fill-rule="nonzero">
            <path d="M49.7016104,-0.808931627 C51.90877,-2.34408642 54.8139349,-2.39525825 57.0673307,-0.962653946 L57.2980603,-0.809160611 L106.146216,33.1518642 C107.859595,34.343578 108.909921,36.26672 108.994473,38.3417255 L109,38.613192 L109,102.347836 C109,105.943558 106.147106,108.87295 102.581363,108.995977 L102.347826,109 L90.7173913,109 C89.6128218,109 88.7173913,108.104569 88.7173913,107 C88.7173913,105.945638 89.5332691,105.081835 90.568129,105.005486 L90.7173913,105 L102.347826,105 C103.756245,105 104.90825,103.902168 104.994782,102.515563 L105,102.347836 L105,38.613192 C105,37.8068087 104.633558,37.0479121 104.010769,36.5468522 L103.862548,36.4358957 L55.014393,2.47487094 C54.1576176,1.87895447 53.0370343,1.84390056 52.1489481,2.36990011 L51.9852777,2.47509992 L3.13778094,36.4356668 C2.4759001,36.8960275 2.06218072,37.6302081 2.0064549,38.4280421 L2,38.613192 L2,102.347836 C2,103.756248 3.09783444,104.90825 4.48444616,104.994782 L4.65217391,105 L16.2826087,105 C17.3871782,105 18.2826087,105.895431 18.2826087,107 C18.2826087,108.054362 17.4667309,108.918165 16.431871,108.994514 L16.2826087,109 L4.65217391,109 C1.05644862,109 -1.87294975,106.147113 -1.99597724,102.581373 L-2,102.347836 L-2,38.613192 C-2,36.5260765 -1.02106521,34.5656262 0.634374936,33.3112039 L0.85411357,33.1516352 L49.7016104,-0.808931627 Z" id="Path"></path>
            <path d="M74.5,33 C67.5964406,33 62,38.5964406 62,45.5 C62,52.4035594 67.5964406,58 74.5,58 C81.4035594,58 87,52.4035594 87,45.5 C87,38.5964406 81.4035594,33 74.5,33 Z M74.5,37 C79.1944204,37 83,40.8055796 83,45.5 C83,50.1944204 79.1944204,54 74.5,54 C69.8055796,54 66,50.1944204 66,45.5 C66,40.8055796 69.8055796,37 74.5,37 Z" id="Oval"></path>
            <path d="M74,58 C65.1602449,58 58,65.2113895 58,74.1 L58,85.85 L58.0054857,85.9992623 C58.0818349,87.0341222 58.9456382,87.85 60,87.85 L65.208,87.85 L67.3453945,107.219316 C67.4572118,108.232859 68.3136401,109 69.3333333,109 L78.6666667,109 L78.8262293,108.993701 C79.7744476,108.918566 80.5486733,108.179515 80.6546055,107.219316 L82.791,87.85 L88,87.85 C89.1045695,87.85 90,86.9545695 90,85.85 L90,74.1 C90,65.2113895 82.8397551,58 74,58 Z M74.3002267,62.0037144 C80.7858863,62.164358 86,67.5154808 86,74.1 L86,83.85 L81,83.85 L80.8404373,83.8562992 C79.892219,83.9314342 79.1179934,84.670485 79.0120612,85.6306845 L76.874,105 L71.125,105 L68.9879388,85.6306845 L68.9641803,85.4727748 C68.7855189,84.538514 67.9660252,83.85 67,83.85 L62,83.85 L62,74.1 C62,67.4141805 67.3757821,62 74,62 L74.3002267,62.0037144 Z" id="Shape"></path>
            <g id="_Group_" transform="translate(18.074074, 34.515152)">
                <path d="M14.4259259,-1.51515152 C7.52236655,-1.51515152 1.92592593,4.08128911 1.92592593,10.9848485 C1.92592593,17.8884079 7.52236655,23.4848485 14.4259259,23.4848485 C21.3294853,23.4848485 26.9259259,17.8884079 26.9259259,10.9848485 C26.9259259,4.08128911 21.3294853,-1.51515152 14.4259259,-1.51515152 Z M14.4259259,2.48484848 C19.1203463,2.48484848 22.9259259,6.29042811 22.9259259,10.9848485 C22.9259259,15.6792689 19.1203463,19.4848485 14.4259259,19.4848485 C9.73150555,19.4848485 5.92592593,15.6792689 5.92592593,10.9848485 C5.92592593,6.29042811 9.73150555,2.48484848 14.4259259,2.48484848 Z" id="Oval"></path>
                <path d="M14.4259259,23.4848485 C5.84558853,23.4848485 -1.07407407,30.7120516 -1.07407407,39.5848485 L-1.07407407,51.3348485 L-1.06858834,51.4841108 C-0.992239196,52.5189707 -0.128435869,53.3348485 0.925925926,53.3348485 L5.877,53.334 L7.9371481,72.6964206 C8.04533235,73.7133526 8.90325568,74.4848485 9.92592593,74.4848485 L18.9259259,74.4848485 L19.0859458,74.4785139 C20.0368271,74.4029585 20.8122134,73.6598298 20.9147038,72.6964206 L22.974,53.334 L27.9259259,53.3348485 C29.0304954,53.3348485 29.9259259,52.439418 29.9259259,51.3348485 L29.9259259,39.5848485 C29.9259259,30.7120516 23.0062633,23.4848485 14.4259259,23.4848485 Z M14.7173019,27.4886667 C20.9150888,27.6512605 25.9259259,32.9863174 25.9259259,39.5848485 L25.925,49.334 L21.1759259,49.3348485 L21.0159061,49.3411831 C20.0650248,49.4167385 19.2896384,50.1598672 19.1871481,51.1232764 L17.127,70.484 L11.724,70.484 L9.66470375,51.1232764 L9.6414768,50.9648245 C9.46575542,50.0272714 8.64477142,49.3348485 7.67592593,49.3348485 L2.925,49.334 L2.92592593,39.5848485 C2.92592593,32.8832154 8.09457508,27.4848485 14.4259259,27.4848485 L14.7173019,27.4886667 Z" id="Shape"></path>
            </g>
        </g>
    </g>
</svg>