<svg xmlns="http://www.w3.org/2000/svg" width="87.999" height="72.562" viewBox="0 0 87.999 72.562"><g transform="translate(0 -0.067)"><path d="M1.719,3.438H20.281a1.719,1.719,0,0,0,0-3.438H1.719a1.719,1.719,0,0,0,0,3.438Z" transform="translate(55.84 33.963)"/><path d="M1.719,3.438H20.281a1.719,1.719,0,0,0,0-3.438H1.719a1.719,1.719,0,0,0,0,3.438Z" transform="translate(55.84 41.648)"/><path d="M1.719,3.438H20.281a1.719,1.719,0,0,0,0-3.438H1.719a1.719,1.719,0,0,0,0,3.438Z" transform="translate(55.84 49.333)"/><path d="M81.909,72.562H6.09A6.119,6.119,0,0,1,0,66.428V6.134A6.119,6.119,0,0,1,6.09,0H81.909A6.119,6.119,0,0,1,88,6.134V66.428A6.119,6.119,0,0,1,81.909,72.562ZM3.437,16.406V66.428a2.678,2.678,0,0,0,2.653,2.7H81.909a2.678,2.678,0,0,0,2.653-2.7V16.406ZM6.09,3.437a2.678,2.678,0,0,0-2.653,2.7v6.835H84.561V6.134a2.678,2.678,0,0,0-2.652-2.7Z" transform="translate(0 0.067)"/><path d="M4.089,0H1.719a1.719,1.719,0,0,0,0,3.438h2.37A1.719,1.719,0,0,0,4.089,0Z" transform="translate(10.159 6.551)"/><path d="M4.089,0H1.719a1.719,1.719,0,0,0,0,3.438h2.37A1.719,1.719,0,0,0,4.089,0Z" transform="translate(19.966 6.551)"/><path d="M4.089,0H1.719a1.719,1.719,0,0,0,0,3.438h2.37A1.719,1.719,0,0,0,4.089,0Z" transform="translate(29.774 6.551)"/><path d="M10.13,0H1.719a1.719,1.719,0,0,0,0,3.438H10.13A1.719,1.719,0,1,0,10.13,0Z" transform="translate(65.992 6.551)"/><path d="M28.467,41.265H12.8a1.73,1.73,0,0,1-1.215-.5L.5,29.682A1.73,1.73,0,0,1,0,28.467V12.8a1.73,1.73,0,0,1,.5-1.215L11.583.5A1.73,1.73,0,0,1,12.8,0H28.467a1.73,1.73,0,0,1,1.215.5l11.08,11.08a1.73,1.73,0,0,1,.5,1.215V28.467a1.73,1.73,0,0,1-.5,1.215l-11.08,11.08A1.73,1.73,0,0,1,28.467,41.265ZM13.51,3.437h0L3.438,13.51V27.755L13.51,37.828H27.755L37.828,27.755V13.51L27.755,3.437Z" transform="translate(8.772 22.199)"/><path d="M1.719,7.787A1.719,1.719,0,0,0,3.438,6.069V1.719A1.719,1.719,0,0,0,0,1.719v4.35A1.719,1.719,0,0,0,1.719,7.787Z" transform="translate(27.686 36.324)"/><circle cx="1.719" cy="1.719" r="1.719" transform="translate(27.686 47.62)"/></g></svg>