<svg xmlns="http://www.w3.org/2000/svg" width="121.762" height="121.766" viewBox="0 0 121.762 121.766"><g transform="translate(-0.002)"><path d="M2.378,0A2.379,2.379,0,0,0,0,2.378,2.377,2.377,0,0,0,4.059,4.059,2.376,2.376,0,0,0,4.059.7,2.394,2.394,0,0,0,2.378,0Z" transform="translate(24.26 10.464)"/><path d="M2.378,0A2.379,2.379,0,0,0,0,2.378,2.377,2.377,0,0,0,4.059,4.059,2.376,2.376,0,0,0,4.059.7,2.394,2.394,0,0,0,2.378,0Z" transform="translate(12.844 10.464)"/><path d="M2.378,0A2.379,2.379,0,0,0,0,2.378,2.377,2.377,0,0,0,4.059,4.059,2.376,2.376,0,0,0,4.059.7,2.394,2.394,0,0,0,2.378,0Z" transform="translate(35.675 10.464)"/><path d="M22.275,0H2.378a2.378,2.378,0,0,0,0,4.756h19.9a2.378,2.378,0,1,0,0-4.756Z" transform="translate(36.131 85.619)"/><path d="M2.378,0A2.378,2.378,0,0,0,.7,4.06a2.377,2.377,0,0,0,3.362,0A2.376,2.376,0,0,0,4.059.7,2.4,2.4,0,0,0,2.378,0Z" transform="translate(68.422 85.619)"/><path d="M2.378,0A2.379,2.379,0,0,0,0,2.378,2.379,2.379,0,0,0,2.378,4.756,2.379,2.379,0,0,0,4.756,2.378,2.379,2.379,0,0,0,2.378,0Z" transform="translate(80.879 85.619)"/><path d="M22.275,0H2.378a2.378,2.378,0,0,0,0,4.756h19.9a2.378,2.378,0,1,0,0-4.756Z" transform="translate(36.131 43.763)"/><path d="M2.378,0A2.379,2.379,0,0,0,0,2.378,2.379,2.379,0,0,0,2.378,4.756,2.379,2.379,0,0,0,4.756,2.378,2.379,2.379,0,0,0,2.378,0Z" transform="translate(68.422 43.763)"/><path d="M2.378,0A2.379,2.379,0,0,0,0,2.378,2.379,2.379,0,0,0,2.378,4.756,2.379,2.379,0,0,0,4.756,2.378,2.379,2.379,0,0,0,2.378,0Z" transform="translate(80.879 43.763)"/><path d="M22.275,0H2.378a2.378,2.378,0,0,0,0,4.756h19.9a2.378,2.378,0,1,0,0-4.756Z" transform="translate(36.131 64.691)"/><path d="M2.378,0A2.378,2.378,0,0,0,.7,4.06a2.377,2.377,0,0,0,3.362,0A2.376,2.376,0,0,0,4.059.7,2.4,2.4,0,0,0,2.378,0Z" transform="translate(68.422 64.691)"/><path d="M2.378,0A2.379,2.379,0,0,0,0,2.378,2.379,2.379,0,0,0,2.378,4.756,2.379,2.379,0,0,0,4.756,2.378,2.379,2.379,0,0,0,2.378,0Z" transform="translate(80.879 64.691)"/><path d="M60.881,121.766a8.009,8.009,0,0,1-4.844-1.615,8.167,8.167,0,0,1-2.884-4.091H27.587a2.378,2.378,0,0,1,0-4.757H53.153a8.087,8.087,0,0,1,5.35-5.351v-5.114H32.343A7.142,7.142,0,0,1,25.209,93.7V91.31H9.988A10,10,0,0,1,0,81.321V9.988A10,10,0,0,1,9.988,0H111.774a10,10,0,0,1,9.988,9.988V81.321a10,10,0,0,1-9.988,9.988H96.554V93.7a7.142,7.142,0,0,1-7.134,7.134H63.259v5.114A8.091,8.091,0,0,1,68.61,111.3H94.175a2.378,2.378,0,1,1,0,4.757H68.61a8.168,8.168,0,0,1-2.884,4.091A8.009,8.009,0,0,1,60.881,121.766Zm0-11.415a3.33,3.33,0,1,0,3.329,3.329A3.333,3.333,0,0,0,60.881,110.352ZM32.343,79.911a2.381,2.381,0,0,0-2.379,2.379V93.7a2.381,2.381,0,0,0,2.379,2.379H89.42A2.381,2.381,0,0,0,91.8,93.7V82.29a2.381,2.381,0,0,0-2.378-2.379ZM4.757,25.684V81.321a5.238,5.238,0,0,0,5.232,5.233H25.209V82.29a7.116,7.116,0,0,1,1.823-4.757,7.117,7.117,0,0,1-1.823-4.756V61.361a7.115,7.115,0,0,1,1.823-4.756,7.117,7.117,0,0,1-1.823-4.757V40.433A7.142,7.142,0,0,1,32.343,33.3H89.42a7.142,7.142,0,0,1,7.134,7.134V51.849a7.12,7.12,0,0,1-1.822,4.757,7.116,7.116,0,0,1,1.822,4.756V72.777a7.12,7.12,0,0,1-1.822,4.756,7.117,7.117,0,0,1,1.822,4.757v4.263h15.22a5.238,5.238,0,0,0,5.232-5.232V25.684H71.583a2.378,2.378,0,1,1,0-4.756h45.422V9.988a5.238,5.238,0,0,0-5.232-5.232H9.988A5.238,5.238,0,0,0,4.757,9.988v10.94H50.18a2.378,2.378,0,0,1,0,4.756Zm27.587,33.3a2.381,2.381,0,0,0-2.379,2.378V72.777a2.381,2.381,0,0,0,2.379,2.378H89.42A2.38,2.38,0,0,0,91.8,72.777V61.361a2.38,2.38,0,0,0-2.378-2.378Zm0-20.928a2.381,2.381,0,0,0-2.379,2.378V51.849a2.381,2.381,0,0,0,2.379,2.378H89.42A2.38,2.38,0,0,0,91.8,51.849V40.433a2.38,2.38,0,0,0-2.378-2.378Z" transform="translate(0.002)"/><path d="M2.378,0A2.379,2.379,0,0,0,0,2.378,2.377,2.377,0,0,0,4.059,4.059,2.376,2.376,0,0,0,4.059.7,2.394,2.394,0,0,0,2.378,0Z" transform="translate(58.505 20.928)"/></g></svg>