<svg xmlns="http://www.w3.org/2000/svg" width="122" height="122" viewBox="0 0 122 122"><circle cx="1.968" cy="1.968" r="1.968" transform="translate(11.806 110.194)"/><path d="M14.252,122a10.317,10.317,0,0,1-7.294-17.612L25.581,85.766l2.952,2.951,3.8-3.8c-.5-.77-.954-1.537-1.348-2.277H0V0H122V82.645H83.149A29.74,29.74,0,0,1,72.486,94.023a29.381,29.381,0,0,1-31.472-.416l-3.8,3.8,2.952,2.951L21.547,118.979A10.255,10.255,0,0,1,14.252,122ZM25.581,91.331h0L9.741,107.173a6.38,6.38,0,1,0,9.023,9.022l15.841-15.841-9.024-9.023ZM34.717,88.1l-3.4,3.4,3.121,3.12,3.4-3.4A29.987,29.987,0,0,1,34.717,88.1ZM57.065,43.29A25.581,25.581,0,1,0,82.645,68.871,25.61,25.61,0,0,0,57.065,43.29ZM85.986,74.774a28.718,28.718,0,0,1-1.127,3.936h33.206V19.678H3.936V78.71H29.27a29.382,29.382,0,0,1-1.722-9.839A29.08,29.08,0,0,1,30.3,56.456a29.58,29.58,0,0,1,7.416-9.822L29.248,35.14a5.722,5.722,0,0,1-1.7.28,5.789,5.789,0,0,1-1.564-.237L18.568,45.776a5.84,5.84,0,0,1,1.11,3.417,5.9,5.9,0,1,1-5.9-5.9,5.833,5.833,0,0,1,1.564.237l7.414-10.593a5.851,5.851,0,0,1-1.108-3.417,5.9,5.9,0,0,1,11.806,0,5.844,5.844,0,0,1-1.021,3.309l8.41,11.413A29.284,29.284,0,0,1,66.406,40.9l1.316-.329-2.52-4.2L75.722,25.846l4.2,2.521,1.186-4.754H95.989l1.186,4.752,4.2-2.521L111.9,36.364l-2.52,4.2,4.754,1.187v14.88l-4.752,1.184,2.521,4.2L101.376,72.541l-4.2-2.521L95.99,74.774Zm-.068-12.087h0a29.668,29.668,0,0,1,.663,6.184c0,.519-.036,1.038-.07,1.539v.009c-.01.14-.019.28-.028.42h6.433l1.2-4.825,2.4-.976,4.246,2.551,6.175-6.177-2.55-4.249.916-2.241,1.051-.4,3.835-.958V44.827l-4.813-1.2-.989-2.4,2.55-4.249L100.766,30.8,96.52,33.35l-2.247-.914-.4-1.052-.958-3.836H84.182l-1.205,4.825-2.4.977L76.331,30.8l-6.175,6.177,2.551,4.251-.878,2.127a29.322,29.322,0,0,1,3.42,2.317,13.879,13.879,0,1,1,10.67,17.017Zm-1.348-9.16-1.769.934a29.807,29.807,0,0,1,1.737,3.7,9.83,9.83,0,1,0,4.01-18.8A9.78,9.78,0,0,0,78.739,48.9c.663.72,1.3,1.48,1.883,2.259l2.11-1.116-.008-.054a5.4,5.4,0,0,1-.078-.8,5.954,5.954,0,1,1,1.924,4.333Zm3.979-6.3a1.968,1.968,0,1,0,1.967,1.967A1.97,1.97,0,0,0,88.548,47.226Zm-74.774,0a1.968,1.968,0,1,0,1.967,1.967A1.97,1.97,0,0,0,13.775,47.226ZM27.548,27.548a1.968,1.968,0,1,0,1.968,1.968A1.97,1.97,0,0,0,27.548,27.548ZM3.936,3.936V15.742H118.065V3.936Z"/><path d="M0,0H3.935V3.935H0Z" transform="translate(7.871 7.871)"/><path d="M0,0H3.935V3.935H0Z" transform="translate(15.742 7.871)"/><path d="M0,0H3.935V3.935H0Z" transform="translate(23.613 7.871)"/><path d="M21.645,43.29A21.645,21.645,0,1,1,43.29,21.645,21.67,21.67,0,0,1,21.645,43.29ZM10.539,35.42a17.64,17.64,0,0,0,22.214,0ZM9.194,9.069A17.665,17.665,0,0,0,6.93,31.484H36.36a17.616,17.616,0,0,0,.68-18.555L25.476,20.622a5.714,5.714,0,0,1,.1,1.023,5.9,5.9,0,1,1-10.7-3.412ZM19.678,19.678a1.968,1.968,0,1,0,1.967,1.967A1.97,1.97,0,0,0,19.678,19.678Zm0-3.936A5.882,5.882,0,0,1,23.516,17.2l11.2-7.454A17.593,17.593,0,0,0,12.308,6.626l5.8,9.355A5.725,5.725,0,0,1,19.678,15.742Z" transform="translate(35.419 47.226)"/><path d="M0,0H15.742V3.935H0Z" transform="translate(7.871 59.032)"/><path d="M0,0H15.742V3.935H0Z" transform="translate(7.871 66.903)"/></svg>