<svg xmlns="http://www.w3.org/2000/svg" width="122" height="122" viewBox="0 0 122 122"><path d="M82.213,122H39.787a2.386,2.386,0,0,1-2.383-2.383v-4.766a7.157,7.157,0,0,1,7.149-7.149h4.533v-5.719H7.149A7.156,7.156,0,0,1,0,94.836V26.211a7.156,7.156,0,0,1,7.149-7.148h5.719V7.149A7.157,7.157,0,0,1,20.016,0h81.968a7.157,7.157,0,0,1,7.149,7.149V19.063h5.719A7.156,7.156,0,0,1,122,26.211V94.836a7.156,7.156,0,0,1-7.149,7.148H72.914V107.7h4.533a7.156,7.156,0,0,1,7.148,7.149v4.766A2.385,2.385,0,0,1,82.213,122Zm-37.661-9.533a2.385,2.385,0,0,0-2.382,2.383v2.383H79.83v-2.383a2.385,2.385,0,0,0-2.382-2.383Zm9.3-10.484V107.7h14.3v-5.719ZM4.765,85.781v9.055a2.385,2.385,0,0,0,2.383,2.382h107.7a2.385,2.385,0,0,0,2.382-2.382V85.781ZM109.133,23.828V81.015h8.1v-54.8a2.385,2.385,0,0,0-2.382-2.382ZM77.77,51.891a2.365,2.365,0,0,1,1.684.7l7.234,7.234a2.385,2.385,0,0,1,0,3.37L84.5,65.386a26.647,26.647,0,0,1,2.237,5.394h3.1a2.386,2.386,0,0,1,2.383,2.383v7.853h12.153V23.828H17.633V41.7a2.383,2.383,0,0,1-4.766,0V23.828H7.149a2.385,2.385,0,0,0-2.383,2.382v54.8h8.1V63.142a2.383,2.383,0,1,1,4.766,0V81.015H29.786V73.163a2.385,2.385,0,0,1,2.382-2.383h3.1A26.617,26.617,0,0,1,37.5,65.386l-2.193-2.193a2.385,2.385,0,0,1,0-3.37l7.234-7.234a2.382,2.382,0,0,1,3.37,0l2.193,2.193A26.55,26.55,0,0,1,53.5,52.546v-3.1a2.385,2.385,0,0,1,2.383-2.382h10.23A2.385,2.385,0,0,1,68.5,49.446v3.1a26.549,26.549,0,0,1,5.394,2.236l2.193-2.193A2.368,2.368,0,0,1,77.77,51.891ZM61,66.362A11.906,11.906,0,0,1,72.594,81.015H87.449V75.546H84.876a2.4,2.4,0,0,1-2.331-1.886A21.823,21.823,0,0,0,79.5,66.31a2.394,2.394,0,0,1,.314-2.981l1.822-1.822-3.865-3.865-1.822,1.822a2.382,2.382,0,0,1-2.981.314,21.822,21.822,0,0,0-7.349-3.046A2.4,2.4,0,0,1,63.733,54.4V51.828H58.268V54.4a2.4,2.4,0,0,1-1.886,2.331,21.823,21.823,0,0,0-7.349,3.046,2.382,2.382,0,0,1-2.981-.314L44.23,57.643l-3.865,3.865,1.822,1.822A2.394,2.394,0,0,1,42.5,66.31a21.839,21.839,0,0,0-3.046,7.349,2.4,2.4,0,0,1-2.331,1.886H34.551v5.469H49.406A11.906,11.906,0,0,1,61,66.362Zm0,4.766a7.158,7.158,0,0,0-7.151,7.15,7.071,7.071,0,0,0,.553,2.737H67.6a7.071,7.071,0,0,0,.552-2.737A7.158,7.158,0,0,0,61,71.129ZM20.016,4.765a2.386,2.386,0,0,0-2.383,2.383V19.063h86.735V7.149a2.386,2.386,0,0,0-2.383-2.383Z"/><path d="M2.383,4.766H28.117a2.383,2.383,0,0,0,0-4.766H2.383a2.383,2.383,0,0,0,0,4.766Z" transform="translate(65.766 9.531)"/><path d="M2.383,4.766A2.384,2.384,0,0,0,4.766,2.383,2.384,2.384,0,0,0,2.383,0,2.384,2.384,0,0,0,0,2.383,2.384,2.384,0,0,0,2.383,4.766Z" transform="translate(36.219 9.531)"/><path d="M2.383,4.766A2.384,2.384,0,0,0,4.766,2.383,2.384,2.384,0,0,0,2.383,0,2.384,2.384,0,0,0,0,2.383,2.384,2.384,0,0,0,2.383,4.766Z" transform="translate(25.734 9.531)"/><path d="M2.383,4.766A2.384,2.384,0,0,0,4.766,2.383,2.384,2.384,0,0,0,2.383,0,2.384,2.384,0,0,0,0,2.383,2.384,2.384,0,0,0,2.383,4.766Z" transform="translate(46.703 9.531)"/><path d="M2.383,4.766H8.053A2.383,2.383,0,0,0,8.053,0H2.383a2.383,2.383,0,0,0,0,4.766Z" transform="translate(24.305 30.5)"/><path d="M2.383,4.766H24.242a2.383,2.383,0,0,0,0-4.766H2.383a2.383,2.383,0,0,0,0,4.766Z" transform="translate(40.46 30.5)"/><path d="M2.383,4.766H16.2A2.383,2.383,0,0,0,16.2,0H2.383a2.383,2.383,0,0,0,0,4.766Z" transform="translate(24.305 41.937)"/><path d="M2.383,4.766H22.509a2.383,2.383,0,0,0,0-4.766H2.383a2.383,2.383,0,0,0,0,4.766Z" transform="translate(72.803 30.5)"/><path d="M18.691,0H2.383a2.383,2.383,0,0,0,0,4.766H18.691a2.383,2.383,0,0,0,0-4.766Z" transform="translate(76.622 41.937)"/><path d="M2.383,4.766A2.384,2.384,0,0,0,4.766,2.383,2.384,2.384,0,0,0,2.383,0,2.384,2.384,0,0,0,0,2.383,2.384,2.384,0,0,0,2.383,4.766Z" transform="translate(12.867 50.037)"/></svg>