<svg xmlns="http://www.w3.org/2000/svg" xmlns:xlink="http://www.w3.org/1999/xlink" width="82.839" height="73.821" viewBox="0 0 82.839 73.821"><defs><clipPath id="a"><path d="M0,0H82.839V73.821H0Z" transform="translate(0 0.101)" fill="none"/></clipPath></defs><g transform="translate(0 -0.101)"><path d="M0,0H82.839V73.821H0Z" transform="translate(0 0.101)" fill="none"/><g clip-path="url(#a)"><path d="M82.839,47.94a.8.8,0,0,0-.178.141,1.175,1.175,0,0,1-1.488.478,1.231,1.231,0,0,1-.764-1.3c.007-2.27,0-4.54,0-6.81q0-11.31,0-22.62V16.99H12.123a8.1,8.1,0,0,1-.97-.021,1.122,1.122,0,0,1-1.062-1.132,1.135,1.135,0,0,1,.952-1.232,3.793,3.793,0,0,1,.884-.045q33.734,0,67.467-.006h.967c.016-.254.044-.485.044-.716q.007-4.378,0-8.756c0-1.79-.832-2.63-2.622-2.63q-21.963,0-43.927,0-14.278,0-28.556.012a3.222,3.222,0,0,0-1.771.365,2.469,2.469,0,0,0-1.041,1.6c-.1,3.342-.047,6.688-.047,10.125.981,0,1.915-.006,2.849,0,.969.008,1.5.43,1.513,1.193.018.8-.514,1.232-1.538,1.24-.912.007-1.823,0-2.84,0v.93q0,25.336,0,50.671c0,2.007.784,2.79,2.79,2.79H77.378c.216,0,.432.006.647,0a2.245,2.245,0,0,0,2.384-2.468q.012-7.661,0-15.323c0-.662.07-1.276.758-1.551a1.27,1.27,0,0,1,1.6.585c.012.017.05.015.076.023v17.35c-1.239,3.073-2.377,3.829-5.757,3.829H5.255C1.85,73.821,0,71.969,0,68.568Q0,45.424,0,22.28,0,13.565,0,4.851A4.346,4.346,0,0,1,2.389.657,6.842,6.842,0,0,1,5.339.032Q33.164-.017,60.989.014C66.57.015,72.151.02,77.733,0a4.7,4.7,0,0,1,4.11,1.831,12.745,12.745,0,0,1,1,2Z" transform="translate(0 0.101)"/></g><path d="M23.864,48.135c-.712,0-1.424-.01-2.115-.031a2.6,2.6,0,0,1-2.531-2.579c0-.039,0-.078-.006-.118a1.562,1.562,0,0,1,.006-.372c.138-.776-.219-1.053-.925-1.292-1.209-.411-2.377-.893-3.613-1.4-.5-.206-1.016-.419-1.537-.628l-.213.208c-.206.2-.462.454-.727.689a2.752,2.752,0,0,1-1.829.749,2.66,2.66,0,0,1-1.839-.786C7.46,41.553,6.447,40.515,5.6,39.634A2.827,2.827,0,0,1,4.721,37.6a2.649,2.649,0,0,1,.914-1.868,1.4,1.4,0,0,0,.311-2.047A25.875,25.875,0,0,1,4.529,30.22c-.09-.253-.179-.506-.27-.757-.146-.406-.306-.64-.691-.64a1.171,1.171,0,0,0-.156.011,2.1,2.1,0,0,1-.289.018c-.1,0-.2,0-.292-.009l-.15-.006a2.63,2.63,0,0,1-2.668-2.7c-.023-1.5-.011-2.97,0-4.082a2.536,2.536,0,0,1,2.632-2.733l.13,0,.146,0c.874,0,1.257-.31,1.518-1.23a17.6,17.6,0,0,1,1.51-3.679,1.384,1.384,0,0,0-.248-2,4.607,4.607,0,0,1-.916-1.992,1.4,1.4,0,0,1,.261-1.151l.477-.512A43.058,43.058,0,0,1,9.229,5.1,1.621,1.621,0,0,1,10.3,4.719a3.091,3.091,0,0,1,2.031.924c.509.488.727.687,1.011.687a2.523,2.523,0,0,0,.9-.312l.163-.075c1.25-.57,2.58-1.1,4.064-1.618.561-.2.846-.416.75-1.014a2.081,2.081,0,0,1-.009-.423c0-.05,0-.1.006-.147A2.59,2.59,0,0,1,21.856.028C22.583.009,23.33,0,24.079,0c.63,0,1.278.007,1.926.02a2.593,2.593,0,0,1,2.7,2.744c0,.08-.005.164-.012.246a1.071,1.071,0,0,0,.031.482,1.391,1.391,0,0,0,.541.715c1.549.688,3.208,1.383,4.932,2.066a.687.687,0,0,0,.252.042,1.349,1.349,0,0,0,.573-.14,1.546,1.546,0,0,0,.426-.383,3.153,3.153,0,0,1,.217-.232,2.745,2.745,0,0,1,1.882-.786,2.664,2.664,0,0,1,1.854.783c.857.817,1.7,1.678,2.516,2.511l.307.313a2.987,2.987,0,0,1,.973,2.122,2.794,2.794,0,0,1-.978,1.96c-.657.619-.718,1.048-.272,1.916A32.742,32.742,0,0,1,43.635,18.6c.18.519.4.712.811.712a1.583,1.583,0,0,0,.16-.009,3.285,3.285,0,0,1,.338-.017,5.693,5.693,0,0,1,.636.041A2.575,2.575,0,0,1,47.9,21.845c.03,1.3.03,2.672,0,4.327a2.626,2.626,0,0,1-2.7,2.667c-1.264.039-1.272.059-1.664,1.117l-.063.169c-.461,1.235-1.031,2.552-1.742,4.028-.243.506-.286.843.177,1.179a2.076,2.076,0,0,1,.306.293c.033.036.066.072.1.107a2.649,2.649,0,0,1-.009,3.921c-.931.968-1.879,1.92-2.818,2.829a2.609,2.609,0,0,1-3.9-.012,4.686,4.686,0,0,1-.52-.63c-.045-.062-.083-.115-.114-.154l-1.261.48-.04.015c-1.568.6-3.05,1.161-4.495,1.737a.9.9,0,0,0-.427.569,2.349,2.349,0,0,0-.03.628c0,.114.01.232.005.347A2.594,2.594,0,0,1,26.14,48.1C25.373,48.124,24.607,48.135,23.864,48.135ZM13.2,39.175a4.1,4.1,0,0,1,1.793.523,41.062,41.062,0,0,0,4.491,1.853,2.8,2.8,0,0,1,2.173,2.867c.006.275,0,.553,0,.822,0,.12,0,.236,0,.352h4.6c0-.156,0-.3,0-.447,0-.293,0-.569,0-.843A2.81,2.81,0,0,1,28.3,41.576c1.67-.624,3.33-1.312,4.935-2.044a3.482,3.482,0,0,1,1.446-.356,2.676,2.676,0,0,1,1.849.795c.227.208.451.426.649.618l.27.261,1.812-1.826L39.282,39l1.567-1.579c-.1-.073-.206-.145-.32-.222a4.585,4.585,0,0,1-.781-.613,2.656,2.656,0,0,1-.435-3.1c.778-1.775,1.5-3.518,2.138-5.179a2.709,2.709,0,0,1,2.623-1.929c.153,0,.316,0,.513,0h.8V21.732h-.073c-.137,0-.268,0-.4,0-.143,0-.277,0-.412,0-.187,0-.341,0-.485-.014A2.762,2.762,0,0,1,41.4,19.672c-.639-1.723-1.315-3.364-2.011-4.877a2.813,2.813,0,0,1,.495-3.438l.746-.79-1.376-1.4L37.274,7.158c-.058.079-.117.168-.179.261a4.1,4.1,0,0,1-.5.652,2.654,2.654,0,0,1-1.915.865,3.578,3.578,0,0,1-1.506-.377c-1.545-.716-3.178-1.4-4.855-2.027a2.781,2.781,0,0,1-2.052-2.714c-.009-.289-.007-.583,0-.867,0-.135,0-.27,0-.405h-4.6c0,.151,0,.294,0,.431,0,.27,0,.524,0,.776a2.814,2.814,0,0,1-2.066,2.789c-1.57.588-3.184,1.26-4.934,2.053a3.452,3.452,0,0,1-1.415.342,2.674,2.674,0,0,1-1.877-.809c-.227-.213-.454-.427-.665-.626l-.268-.253L8.294,9.391l-.054.054L7.2,10.489c.106.111.214.222.318.33.229.235.465.477.683.728a2.673,2.673,0,0,1,.42,3.038c-.793,1.866-1.5,3.55-2.17,5.252a2.647,2.647,0,0,1-2.324,1.872c-.362.036-.719.052-1.1.069-.17.008-.342.015-.515.025V26.39h.765c.195,0,.353,0,.5,0a2.716,2.716,0,0,1,2.692,1.95C7.1,29.981,7.8,31.7,8.575,33.446A2.7,2.7,0,0,1,8.1,36.672a3.867,3.867,0,0,1-.75.553c-.11.068-.213.132-.306.2l2.176,2.189,1.245,1.253.173-.164c.149-.141.317-.3.479-.461A2.942,2.942,0,0,1,13.2,39.175Z" transform="translate(17.113 20.629)"/><path d="M21.844,2.577H2.193c-.274,0-.549.007-.822-.006C.5,2.53.012,2.078,0,1.322-.012.537.5.036,1.408.015,2.449-.009,3.491,0,4.532,0L41.778.009c.192,0,.385-.009.575.006a1.245,1.245,0,0,1,1.284,1.345,1.189,1.189,0,0,1-1.321,1.2c-3.042.019-6.084.014-9.126.015q-5.673,0-11.346,0" transform="translate(6.845 6.876)"/><path d="M3.862,7.736H3.823a3.855,3.855,0,0,1-2.672-6.6A3.809,3.809,0,0,1,3.852,0h.029a3.813,3.813,0,0,1,2.7,1.16A3.861,3.861,0,0,1,3.862,7.736ZM3.851,2.265a1.639,1.639,0,0,0-1.6,1.609A1.628,1.628,0,0,0,3.819,5.467h.035a1.6,1.6,0,0,0,1.6-1.6,1.636,1.636,0,0,0-1.562-1.6Z" transform="translate(66.742 4.298)"/><path d="M3.85,7.736A3.813,3.813,0,0,1,1.142,6.6,3.835,3.835,0,0,1,0,3.886,3.924,3.924,0,0,1,3.84,0h.021A3.873,3.873,0,0,1,7.7,3.857,3.873,3.873,0,0,1,3.867,7.736Zm.005-5.471a1.654,1.654,0,0,0-1.6,1.622,1.626,1.626,0,0,0,1.6,1.586h.048A1.6,1.6,0,0,0,3.88,2.264H3.855Z" transform="translate(55.619 4.298)"/><path d="M15.406,30.944h-.013A15.27,15.27,0,0,1,4.509,26.4,15.479,15.479,0,0,1,15.407,0a15.252,15.252,0,0,1,10.88,4.55A15.469,15.469,0,0,1,15.406,30.944Zm.03-28.492a13.025,13.025,0,0,0-9.215,22.2,12.862,12.862,0,0,0,9.154,3.838h.031a13.021,13.021,0,0,0,.063-26.041Z" transform="translate(25.67 29.225)"/><path d="M11.623,9.381c1.008-2.858,1.906-5.467,2.862-8.051.15-.406.572-.994.857-.987A3.08,3.08,0,0,1,16.948,1c.182.133.212.743.1,1.048-1.339,3.65-2.722,7.282-4.082,10.924a1.1,1.1,0,0,1-1.174.776,1.176,1.176,0,0,1-1.246-.918C9.979,10.84,9.372,8.858,8.78,6.872c-.07-.233-.151-.462-.276-.846-.767,2.292-1.5,4.43-2.192,6.583a1.263,1.263,0,0,1-1.27,1.016,1.116,1.116,0,0,1-1.205-.845C2.6,9.119,1.343,5.467.105,1.806-.183.953.12.434,1.017.129S2.387.046,2.67.937c.771,2.421,1.529,4.847,2.3,7.27.08.252.184.495.349.934.707-2.3,1.352-4.392,2-6.488.065-.211.133-.422.185-.637C7.651,1.4,7.932.955,8.628.982c.655.026.887.467,1.038,1.05.526,2.036,1.067,4.067,1.6,6.1.09.341.191.678.353,1.249" transform="translate(32.515 38.68)"/></g></svg>