<?xml version="1.0" encoding="UTF-8"?>
<svg width="132px" height="132px" viewBox="0 0 132 132" version="1.1" xmlns="http://www.w3.org/2000/svg" xmlns:xlink="http://www.w3.org/1999/xlink">
    <title>browser-page-account</title>
    <g id="Page-1" stroke="none" stroke-width="1" fill="none" fill-rule="evenodd" stroke-linecap="round" stroke-linejoin="round">
        <g id="Home" transform="translate(-179.000000, -2595.000000)" stroke="#000000" stroke-width="4">
            <g id="browser-page-account" transform="translate(181.000000, 2597.000000)">
                <rect id="Rectangle-path" x="0.389244558" y="0.389244558" width="127.221511" height="127.221511" rx="2"></rect>
                <line x1="0.389244558" y1="28.0460948" x2="127.610755" y2="28.0460948" id="Shape"></line>
                <rect id="Rectangle-path" x="72.2970551" y="44.6402049" width="38.7195903" height="27.6568502" rx="0.5"></rect>
                <rect id="Rectangle-path" x="72.2970551" y="83.3597951" width="38.7195903" height="27.6568502" rx="0.5"></rect>
                <rect id="Rectangle-path" x="16.9833547" y="44.6402049" width="38.7195903" height="44.2509603" rx="0.5"></rect>
                <circle id="Oval" cx="36.3431498" cy="64" r="8.29705506"></circle>
                <path d="M22.5147247,88.8911652 C21.821447,80.5123194 27.9766449,73.126082 36.3431498,72.2970551 C44.7096548,73.126082 50.8648526,80.5123194 50.1715749,88.8911652" id="Shape"></path>
                <line x1="19.7490397" y1="99.9539052" x2="41.8745198" y2="99.9539052" id="Shape"></line>
                <line x1="19.7490397" y1="111.016645" x2="41.8745198" y2="111.016645" id="Shape"></line>
                <path d="M19.7490397,12.8348271 C20.5127625,12.8348271 21.1318822,13.4539468 21.1318822,14.2176697 C21.1318822,14.9813925 20.5127625,15.6005122 19.7490397,15.6005122 C18.9853169,15.6005122 18.3661972,14.9813925 18.3661972,14.2176697 C18.3661972,13.4539468 18.9853169,12.8348271 19.7490397,12.8348271" id="Shape"></path>
                <path d="M36.3431498,12.8348271 C37.1068726,12.8348271 37.7259923,13.4539468 37.7259923,14.2176697 C37.7259923,14.9813925 37.1068726,15.6005122 36.3431498,15.6005122 C35.579427,15.6005122 34.9603073,14.9813925 34.9603073,14.2176697 C34.9603073,13.4539468 35.579427,12.8348271 36.3431498,12.8348271" id="Shape"></path>
                <path d="M52.9372599,12.8348271 C53.7009828,12.8348271 54.3201024,13.4539468 54.3201024,14.2176697 C54.3201024,14.9813925 53.7009828,15.6005122 52.9372599,15.6005122 C52.1735371,15.6005122 51.5544174,14.9813925 51.5544174,14.2176697 C51.5544174,13.4539468 52.1735371,12.8348271 52.9372599,12.8348271" id="Shape"></path>
            </g>
        </g>
    </g>
</svg>