<?xml version="1.0" encoding="UTF-8"?>
<svg width="286px" height="143px" viewBox="0 0 286 143" version="1.1" xmlns="http://www.w3.org/2000/svg" xmlns:xlink="http://www.w3.org/1999/xlink">
    <title>Artboard Copy</title>
    <defs>
        <polygon id="path-1" points="0.177989817 0.0777646346 23.0958597 0.0777646346 23.0958597 25.2084703 0.177989817 25.2084703"></polygon>
        <polygon id="path-3" points="0.167671315 0.0777646346 23.0855223 0.0777646346 23.0855223 25.2084703 0.167671315 25.2084703"></polygon>
        <path d="M91.5801514,120.466667 L34.9505218,120.466667 L34.9505218,32.4467352 C34.9505218,16.8013706 47.6273738,4.11851852 63.2653366,4.11851852 L63.2653366,4.11851852 C78.9030974,4.11851852 91.5801514,16.8013706 91.5801514,32.4467352 L91.5801514,120.466667 Z" id="path-5"></path>
        <filter x="-7.1%" y="-3.4%" width="114.1%" height="106.9%" filterUnits="objectBoundingBox" id="filter-6">
            <feGaussianBlur stdDeviation="3" in="SourceAlpha" result="shadowBlurInner1"></feGaussianBlur>
            <feOffset dx="0" dy="2" in="shadowBlurInner1" result="shadowOffsetInner1"></feOffset>
            <feComposite in="shadowOffsetInner1" in2="SourceAlpha" operator="arithmetic" k2="-1" k3="1" result="shadowInnerInner1"></feComposite>
            <feColorMatrix values="0 0 0 0 0.999901831   0 0 0 0 1   0 0 0 0 0.999879897  0 0 0 0.5 0" type="matrix" in="shadowInnerInner1"></feColorMatrix>
        </filter>
        <path d="M193.505012,129.831606 C193.146916,91.6173591 162.075363,60.7481481 123.792079,60.7481481 C98.8743129,60.7481481 77.0133675,73.8276518 64.6852146,93.4959508 C63.5084437,95.3735335 61.5832037,96.6506853 59.3979162,97.0129621 C48.7287015,98.7807517 39.5473465,104.952576 33.7794947,113.598578 C31.573831,116.904884 27.9646365,119.006493 24.0070307,119.359284 L7.63351343,120.81828 C3.86292401,121.15432 0.972744015,124.314504 0.972744015,128.101557 L0.972744015,131.623211 C0.972744015,132.616192 1.77749956,133.421072 2.77007848,133.421072 L38.5055422,133.421072 C41.0626433,133.421072 43.6169201,133.595651 46.1502155,133.943598 L50.5345092,134.545644 C52.163186,134.769468 53.8051778,134.881481 55.4489853,134.881481 L193.513485,134.881481 L193.513485,130.123647 C193.513485,130.02556 193.510257,129.92828 193.505012,129.831606" id="path-7"></path>
        <filter x="-2.1%" y="-5.4%" width="104.2%" height="110.8%" filterUnits="objectBoundingBox" id="filter-8">
            <feGaussianBlur stdDeviation="3" in="SourceAlpha" result="shadowBlurInner1"></feGaussianBlur>
            <feOffset dx="0" dy="2" in="shadowBlurInner1" result="shadowOffsetInner1"></feOffset>
            <feComposite in="shadowOffsetInner1" in2="SourceAlpha" operator="arithmetic" k2="-1" k3="1" result="shadowInnerInner1"></feComposite>
            <feColorMatrix values="0 0 0 0 0.999901831   0 0 0 0 1   0 0 0 0 0.999879897  0 0 0 0.5 0" type="matrix" in="shadowInnerInner1"></feColorMatrix>
        </filter>
        <linearGradient x1="50%" y1="0%" x2="50%" y2="100%" id="linearGradient-9">
            <stop stop-color="#8A78F1" offset="0%"></stop>
            <stop stop-color="#9B89FF" offset="100%"></stop>
        </linearGradient>
    </defs>
    <g id="Artboard-Copy" stroke="none" stroke-width="1" fill="none" fill-rule="evenodd">
        <g id="Group" transform="translate(40.500000, 0.000000)">
            <ellipse id="Oval" fill="#3E3D3D" opacity="0.149716332" cx="99.6823204" cy="128.188889" rx="94.0745856" ry="7.72222222"></ellipse>
            <g id="Group-17" transform="translate(103.812155, 69.000000) scale(-1, 1) translate(-103.812155, -69.000000) translate(0.812155, 0.000000)">
                <g id="Group-3" transform="translate(35.980151, 0.000000)">
                    <mask id="mask-2" fill="white">
                        <use xlink:href="#path-1"></use>
                    </mask>
                    <g id="Clip-2"></g>
                    <path d="M1.80043696,25.2084703 L0.18425644,2.62470558 C0.0521480491,0.78142519 2.03418292,-0.495625242 3.72971027,0.338107107 C7.67680633,2.27844413 14.4452141,4.90732633 23.0958597,5.55450311 C10.2750062,14.0077774 1.80043696,25.2084703 1.80043696,25.2084703" id="Fill-1" fill="#9B89FF" mask="url(#mask-2)"></path>
                </g>
                <g id="Group-6" transform="translate(67.898670, 0.000000)">
                    <mask id="mask-4" fill="white">
                        <use xlink:href="#path-3"></use>
                    </mask>
                    <g id="Clip-5"></g>
                    <path d="M21.4628895,25.2084703 L23.0792746,2.62470558 C23.2111784,0.78142519 21.2291436,-0.495625242 19.5336162,0.338107107 C15.5867247,2.27844413 8.8181124,4.90732633 0.167671315,5.55450311 C12.9883203,14.0077774 21.4628895,25.2084703 21.4628895,25.2084703" id="Fill-4" fill="#9B89FF" mask="url(#mask-4)"></path>
                </g>
                <g id="Fill-7">
                    <use fill="#B898FF" fill-rule="evenodd" xlink:href="#path-5"></use>
                    <use fill="black" fill-opacity="1" filter="url(#filter-6)" xlink:href="#path-5"></use>
                </g>
                <polygon id="Fill-9" fill="#C0DE81" points="34.9505218 60.7481481 93.6394107 60.7481481 93.6394107 54.5703704 34.9505218 54.5703704"></polygon>
                <g id="Fill-11">
                    <use fill="#9B89FF" fill-rule="evenodd" xlink:href="#path-7"></use>
                    <use fill="black" fill-opacity="1" filter="url(#filter-8)" xlink:href="#path-7"></use>
                </g>
                <path d="M155.356236,85.4592593 C137.951544,85.4002566 123.234806,96.9757732 118.494558,112.872172 C117.149069,117.383678 113.181328,120.608117 108.512829,121.107217 L87.0763056,123.398548 C84.3679954,123.688224 82.3134848,125.980161 82.3134848,128.711767 L82.3134848,132.454915 C82.3134848,133.795146 83.396567,134.881481 84.7327849,134.881481 L194.208939,134.881481 C195.239822,131.403955 193.55655,127.721451 193.55655,123.908159 C193.556751,102.706829 176.493873,85.5314497 155.356236,85.4592593" id="Fill-12" fill="#B898FF"></path>
                <path d="M71.881243,21.6424937 C67.6611118,21.3750051 63.9610552,23.7838315 62.2357692,27.3706286 C60.5104831,23.7836274 56.8098292,21.3748009 52.5894989,21.6424937 C47.6258918,21.9573543 43.5895388,26.0364528 43.2168054,31.1220026 C42.7735871,37.1682652 47.4259856,42.2148148 53.2276456,42.2148148 C55.7360303,42.2148148 58.0289783,41.2710498 59.7883121,39.7112443 C61.1976109,38.4616031 63.2739274,38.4616031 64.6832263,39.7112443 C66.4425601,41.2710498 68.7353089,42.2148148 71.2438927,42.2148148 C77.0457518,42.2148148 81.6983495,37.1678569 81.2545338,31.1211859 C80.8814022,26.0358403 76.8448501,21.9571501 71.881243,21.6424937" id="Fill-13" fill="#FFFFFF"></path>
                <path d="M61.2224782,23.7856445 L60.5602845,23.8761431 C59.9717139,23.9565614 59.5683419,24.5573467 59.6803321,25.1865808 L59.9735804,26.8357163 C60.1564977,27.8641298 60.5239914,28.844158 61.0551151,29.7202473 L61.222893,29.9971192 C61.9437778,31.1861454 63.5572658,31.1861454 64.2781506,29.9971192 L64.4459285,29.7202473 C64.9770522,28.844158 65.3445459,27.8641298 65.5274632,26.8357163 L65.8207115,25.1865808 C65.9327017,24.5573467 65.5293297,23.9565614 64.9407591,23.8761431 L64.2785654,23.7856445 C63.2640174,23.6467605 62.2372335,23.6467605 61.2224782,23.7856445" id="Fill-14" fill="#4F3931"></path>
                <path d="M68.9282996,66.4111111 C68.9282996,68.9701042 66.8539594,71.0444444 64.2949662,71.0444444 C61.7359731,71.0444444 59.6616329,68.9701042 59.6616329,66.4111111 C59.6616329,63.852118 61.7359731,61.7777778 64.2949662,61.7777778 C66.8539594,61.7777778 68.9282996,63.852118 68.9282996,66.4111111" id="Fill-15" fill="#C0DE81"></path>
                <path d="M187.912364,102.8783 C190.384252,108.658048 192.084447,114.838348 192.889163,121.293904 C192.897875,121.330992 192.900508,121.357455 192.898888,121.371889 C192.771657,122.251381 189.403682,125.139852 182.892209,125.139852 C174.038106,125.139852 165.324605,123.368238 156.993608,119.873926 C150.236588,117.039985 143.694523,113.067536 137.549144,108.067243 C126.899827,99.4020316 121.081642,90.5581956 121.024105,90.4699858 C119.093759,87.4929045 115.091047,86.6232359 112.077212,88.5283674 C109.059933,90.4359047 108.176812,94.4027402 110.104524,97.388442 C110.374586,97.8068372 116.860328,107.751091 128.951326,117.681311 C136.081125,123.536839 143.723697,128.211157 151.666924,131.574958 C154.019887,132.571128 156.399998,133.45082 158.8028,134.21584 C166.632978,136.70897 174.706271,137.97037 182.892209,137.97037 C194.885758,137.97037 204.491902,131.757392 205.73362,123.197231 C206.680761,116.667299 202.440605,111.872293 199.828723,109.595277 C196.908083,107.049021 192.91388,104.799871 187.912364,102.8783 Z" id="Fill-16" fill="url(#linearGradient-9)"></path>
            </g>
        </g>
    </g>
</svg>