<?xml version="1.0" encoding="UTF-8"?>
<svg width="191px" height="18px" viewBox="0 0 191 18" version="1.1" xmlns="http://www.w3.org/2000/svg" xmlns:xlink="http://www.w3.org/1999/xlink">
    <title>Coricraft</title>
    <defs>
        <polygon id="path-1" points="0 18 191 18 191 0 0 0"></polygon>
    </defs>
    <g id="Page-1" stroke="none" stroke-width="1" fill="none" fill-rule="evenodd">
        <g id="Home" transform="translate(-68.000000, -844.000000)">
            <g id="Coricraft" transform="translate(68.000000, 844.000000)">
                <path d="M36,0 C28.2631125,0 22,4.01862056 22,9 C22,13.9813794 28.2631125,18 36,18 C43.7368875,18 50,13.9813794 50,9 C50,4.01862056 43.7360256,0 36,0 M36,13.3384002 C32.4077813,13.3384002 29.4602315,11.3718412 29.4602315,8.99828995 C29.4602315,6.57685731 32.3612411,4.65817975 36,4.65817975 C39.5922187,4.65817975 42.5397685,6.62473874 42.5397685,8.99828995 C42.4940901,11.4188676 39.5922187,13.3384002 36,13.3384002" id="Fill-1" fill="#020203"></path>
                <path d="M0,9 C0,13.9787166 4.9523562,17.9982796 13.4268884,17.9982796 C15.6592169,18.0273449 17.8811504,17.6879645 20,16.9929614 L20,11.2388827 C18.4034997,12.6579542 16.3115038,13.4102331 14.1640679,13.3375698 C10.6003119,13.3375698 7.68364518,11.3713863 7.68364518,8.99828836 C7.68364518,6.57731808 10.5994456,4.65900688 14.1640679,4.65900688 C16.3106376,4.58805331 18.4009009,5.34118707 19.996535,6.76025863 L19.996535,1.00703477 C17.8785516,0.312886509 15.6583507,-0.027348721 13.4268884,0.00171660017 C4.9523562,0.00171660017 0,4.01956982 0,9" id="Fill-3" fill="#020203"></path>
                <path d="M85,9 C85,13.9787175 89.9523562,17.9982796 98.4268884,17.9982796 C100.659217,18.0273449 102.88115,17.6879646 105,16.9929616 L105,11.2388841 C103.404366,12.6579554 101.314103,13.411089 99.1675329,13.3401354 C95.6037769,13.3401354 92.6871102,11.3739523 92.6871102,9.00085486 C92.6871102,6.5798851 95.6029106,4.66157431 99.1675329,4.66157431 C101.314103,4.59062075 103.404366,5.34375435 105,6.76282561 L105,1.00703838 C102.88115,0.31203541 100.659217,-0.0273448857 98.4268884,0.00172042929 C89.9566875,0.00172042929 85,4.01957279 85,9" id="Fill-5" fill="#020203"></path>
                <mask id="mask-2" fill="white">
                    <use xlink:href="#path-1"></use>
                </mask>
                <g id="Clip-8"></g>
                <polygon id="Fill-7" fill="#020203" mask="url(#mask-2)" points="76 18 83 18 83 0 76 0"></polygon>
                <polygon id="Fill-9" fill="#020203" mask="url(#mask-2)" points="191 0 173 0 173 5.05127471 178.418218 5.05127471 178.418218 18 185.535377 18 185.535377 5.05127471 191 5.05127471"></polygon>
                <polygon id="Fill-10" fill="#020203" mask="url(#mask-2)" points="158.522882 0 156 0 156 18 163.242465 18 163.242465 11.2970496 169.831691 11.2970496 169.831691 7.07161272 163.242465 7.07161272 163.242465 5.05127471 171 5.05127471 171 0"></polygon>
                <path d="M70.7800116,5.98535325 L70.7800116,5.24784607 C70.7800116,2.34778863 67.6958518,0 64.8375072,0 L52,0 L52,18 L59.0308316,18 L59.0308316,12.0155083 L59.5300019,12.0155083 L64.9733359,17.9551982 L74,17.9551982 L66.8333398,10.7705342 C69.0108431,10.033027 70.7800116,8.14531878 70.7800116,5.98190695 L70.7800116,5.98535325 Z M63.7941733,6.12320505 C63.6574957,7.26134406 62.7016014,8.11430213 61.5716766,8.10482481 L59.0316805,8.10482481 L59.0316805,3.86674325 L61.5716766,3.86674325 C62.7016014,3.85640437 63.6591935,4.71022401 63.7941733,5.84836301 L63.7941733,6.12320505 Z" id="Fill-11" fill="#020203" mask="url(#mask-2)"></path>
                <path d="M143.664226,0 L137.708815,0 L127.892269,16.3416292 L122.262538,10.8634058 C124.44912,10.0811716 126.267354,8.19278262 126.267354,5.98391883 L126.267354,5.24734374 C126.267354,2.34756389 123.104603,0 120.171743,0 L107,0 L107,17.9991385 L114.211978,17.9991385 L114.211978,12.0608787 L114.724009,12.0608787 L120.307588,18 L135.429056,18 L137.432771,14.316263 L145.435436,14.316263 L147.43828,18 L156,18 L145.107144,0 L143.664226,0 Z M119.050151,6.16827797 C118.910823,7.30630803 117.92943,8.15918445 116.770393,8.14970805 L114.164955,8.14970805 L114.164955,3.91289365 L116.770393,3.91289365 C117.92943,3.90255576 118.911694,4.75629367 119.050151,5.89432373 L119.050151,6.16827797 Z M139.523565,10.4964105 L141.432362,6.9513736 L143.339417,10.4964105 L139.523565,10.4964105 Z" id="Fill-12" fill="#020203" mask="url(#mask-2)"></path>
            </g>
        </g>
    </g>
</svg>