<?xml version="1.0" encoding="UTF-8"?>
<svg width="129px" height="58px" viewBox="0 0 129 58" version="1.1" xmlns="http://www.w3.org/2000/svg" xmlns:xlink="http://www.w3.org/1999/xlink">
    <title>Flash logo</title>
    <g id="Page-1" stroke="none" stroke-width="1" fill="none" fill-rule="evenodd">
        <g id="Home" transform="translate(-377.000000, -824.000000)" fill="#000200">
            <g id="Flash-logo" transform="translate(377.000000, 824.000000)">
                <path d="M93.706294,30.6948935 L94.9984699,30.6948935 L94.348169,28.3464676 L93.706294,30.6948935 Z M101.375993,37.1566759 C101.392544,37.1994074 101.402775,37.2448472 101.416618,37.2935972 C101.451225,37.4175787 101.458447,37.5433657 101.445808,37.6709583 C101.42715,37.8623472 101.326641,38.0251481 101.181595,38.1485278 C101.000738,38.3013981 100.755183,38.3444306 100.524975,38.3444306 L97.8596736,38.3444306 C97.6610625,38.3444306 97.4780995,38.2797315 97.3201134,38.1608657 C97.1627292,38.0416991 97.0525903,37.883713 96.9978218,37.6938287 L96.0697662,34.4775324 L92.6148356,34.4775324 L91.6867801,37.6938287 C91.6311088,37.8873241 91.5191644,38.0477176 91.3572662,38.1668843 C91.2013866,38.281537 91.0190255,38.3444306 90.8249282,38.3444306 L88.2727755,38.3444306 C88.2216181,38.3495463 88.1683542,38.346838 88.1129838,38.3441296 C87.9887014,38.3378102 87.8671273,38.3032037 87.7527755,38.2544537 C87.5749282,38.1789213 87.4491412,38.0347778 87.3760162,37.8575324 C87.2860394,37.6375556 87.3209468,37.3868843 87.3925671,37.1675093 L92.0457847,22.8834583 C92.1077755,22.6935741 92.2293495,22.5367917 92.3936551,22.4251481 C92.544419,22.3225324 92.7174514,22.2623472 92.9004144,22.2623472 L95.871456,22.2623472 C96.0718727,22.2623472 96.2584468,22.3264444 96.415831,22.450125 C96.5602755,22.5635741 96.6692106,22.7083194 96.7260856,22.8834583 L101.375993,37.1566759 Z M102.592637,35.0264213 L104.078007,33.3003102 C104.233586,33.1197546 104.444535,33.0138287 104.681062,32.9906574 C104.941664,32.9647778 105.17759,33.0541528 105.370484,33.2295926 C105.67141,33.5034352 105.995206,33.752 106.346086,33.9587361 C106.684928,34.1579491 107.043933,34.3192454 107.419488,34.4357037 C107.760437,34.5413287 108.114025,34.6069306 108.471826,34.6054259 C108.79803,34.6042222 109.192243,34.5759352 109.498285,34.4552639 C109.663794,34.389963 109.84435,34.2900556 109.942451,34.1356806 C110.032729,33.9924398 110.066734,33.8359583 110.066433,33.6677407 C110.066433,33.5211898 110.041757,33.3665139 109.952683,33.2461435 C109.842243,33.0956806 109.636109,32.968088 109.47391,32.8820231 C109.13266,32.7011667 108.757706,32.5488981 108.402613,32.395125 L106.436363,31.5429028 C106.028308,31.3659583 105.6359,31.1598241 105.261248,30.9190833 C104.85259,30.656375 104.484257,30.3343843 104.157451,29.9753796 C103.802961,29.5859815 103.530623,29.1388056 103.331109,28.6525093 C103.105715,28.1030185 103.011826,27.5104954 103.010021,26.9182731 C103.007613,26.2267454 103.153262,25.5568843 103.456896,24.9348704 C103.753007,24.3291065 104.166479,23.8097083 104.682266,23.3751713 C105.217012,22.9249861 105.8309,22.5918611 106.489326,22.3619537 C107.20553,22.1118843 107.955437,22.0017454 108.712868,21.9999272 C109.345715,21.9987361 109.971039,22.0835972 110.581016,22.2530185 C111.178956,22.4197315 111.751016,22.6586667 112.289072,22.9680185 C112.820206,23.2731574 113.311618,23.6414907 113.741039,24.0787361 C113.902937,24.2433426 113.995021,24.452787 113.998331,24.6838981 C114.00134,24.8984583 113.93935,25.0997778 113.805437,25.2682963 L112.516271,26.8848704 C112.36641,27.0726481 112.159373,27.1885046 111.92134,27.2179954 C111.672775,27.2492917 111.436549,27.1761667 111.243354,27.0169769 C110.877127,26.7163519 110.475391,26.4385972 110.037243,26.2538287 C109.61715,26.0765833 109.168169,26.0010509 108.713771,26.0010509 C108.438123,26.0010509 108.122451,26.0260278 107.863956,26.1289444 C107.720113,26.1867222 107.560322,26.2733889 107.470947,26.4045926 C107.392104,26.5204491 107.360808,26.646537 107.360808,26.7861667 C107.360808,26.9155648 107.40053,27.0238981 107.486595,27.1210972 C107.625623,27.2775787 107.843794,27.4060741 108.027961,27.499963 C108.366502,27.6723935 108.727613,27.8195463 109.078192,27.9657963 L111.025785,28.7776944 C111.486803,28.9699861 111.92766,29.2053102 112.342637,29.4839676 C112.752498,29.758713 113.12384,30.0855185 113.439812,30.4643843 C113.768123,30.8579954 114.014581,31.3045694 114.188516,31.7860509 C114.383215,32.3256111 114.460554,32.8991759 114.460554,33.4709352 C114.460854,34.1720926 114.317914,34.8524861 114.024211,35.4898472 C113.732312,36.1232963 113.31553,36.6700787 112.789512,37.1292917 C112.230692,37.6164907 111.580993,37.9706806 110.883447,38.2153333 C110.095623,38.4915833 109.26266,38.6047315 108.429998,38.6065545 C107.713794,38.6080417 107.003609,38.5123472 106.311479,38.3290833 C105.623262,38.1473241 104.962729,37.8810046 104.342521,37.5310278 C103.720206,37.1795463 103.13972,36.7594537 102.639882,36.2466759 C102.472266,36.0748472 102.383493,35.8587824 102.383493,35.6192454 C102.383493,35.3989676 102.44759,35.194338 102.592336,35.0264213 L102.592637,35.0264213 Z M120.548586,28.0079259 L124.543076,28.0079259 L124.543076,23.1594074 C124.543076,22.9839676 124.596942,22.8169537 124.696248,22.6725093 C124.782613,22.5470231 124.89516,22.4468148 125.028771,22.3739907 C125.156965,22.3041759 125.293586,22.2623472 125.440437,22.2623472 L127.974535,22.2623472 C128.152081,22.2623472 128.315785,22.3147083 128.461734,22.4152176 C128.584812,22.5000787 128.685924,22.6105185 128.758447,22.7414213 C128.829766,22.8699167 128.871896,23.0119537 128.871896,23.1594074 L128.871896,37.4470694 C128.871896,37.6225093 128.818331,37.7898241 128.718725,37.9342685 C128.632961,38.0588519 128.521317,38.1623704 128.387405,38.2339907 C128.260113,38.3016991 128.119882,38.3444306 127.974535,38.3444306 L125.440437,38.3444306 C125.264095,38.3444306 125.094674,38.2908657 124.95053,38.1891528 C124.827451,38.1024861 124.724535,37.989338 124.653516,37.8566296 C124.58641,37.7302407 124.543076,37.591213 124.543076,37.4470694 L124.543076,32.009037 L120.548586,32.009037 L120.548586,37.4470694 C120.548586,37.6225093 120.49472,37.7895231 120.395414,37.9339676 C120.308447,38.0603565 120.195299,38.1617685 120.060484,38.2339907 C119.934095,38.3010972 119.795067,38.3444306 119.650924,38.3444306 L117.116826,38.3444306 C116.941086,38.3444306 116.774373,38.2908657 116.629928,38.1912593 C116.505345,38.1054954 116.40634,37.9938519 116.332914,37.8614444 C116.262498,37.7344537 116.219465,37.5936204 116.219465,37.4470694 L116.219465,23.1594074 C116.219465,22.9839676 116.273331,22.8166528 116.372637,22.6725093 C116.458701,22.5479259 116.570345,22.4492222 116.70215,22.3754954 C116.829442,22.3047778 116.970275,22.2623472 117.116826,22.2623472 L119.650924,22.2623472 C119.826664,22.2623472 119.993678,22.3156111 120.137822,22.4152176 C120.261201,22.5000787 120.362613,22.6108194 120.435137,22.7411204 C120.506456,22.8699167 120.548586,23.0119537 120.548586,23.1594074 L120.548586,28.0079259 Z M80.2859005,34.4089213 L85.3309236,34.4089213 C85.5063634,34.4089213 85.6736782,34.4624861 85.8178218,34.5620926 C85.9424051,34.6478565 86.0414097,34.7598009 86.1145347,34.8916065 C86.1855532,35.0188981 86.2282847,35.1597315 86.2282847,35.3059815 L86.2282847,37.4470694 C86.2282847,37.6225093 86.1747199,37.7895231 86.0751134,37.9339676 C85.9890486,38.0588519 85.8774051,38.1578565 85.7452986,38.2309815 C85.6180069,38.3016991 85.4771736,38.3444306 85.3309236,38.3444306 L76.8544421,38.3444306 C76.6790023,38.3444306 76.5119884,38.2908657 76.367544,38.1912593 C76.2429606,38.1054954 76.143956,37.9938519 76.0705301,37.8614444 C75.9998125,37.7344537 75.957081,37.5936204 75.957081,37.4470694 L75.957081,23.1594074 C75.957081,22.9839676 76.0106458,22.8166528 76.1102523,22.6725093 C76.1960162,22.5479259 76.3079606,22.4492222 76.4397662,22.3754954 C76.5670579,22.3047778 76.7078912,22.2623472 76.8544421,22.2623472 L79.3885394,22.2623472 C79.5639792,22.2623472 79.731294,22.3156111 79.8757384,22.4152176 C80.0003218,22.5009815 80.0990255,22.6129259 80.1724514,22.7450324 C80.243169,22.8723241 80.2859005,23.0131574 80.2859005,23.1594074 L80.2859005,34.4089213 Z M68.3286088,26.1978565 L68.3286088,28.4445694 L72.6309468,28.4445694 C72.8063866,28.4445694 72.9737014,28.4984352 73.1178449,28.5977407 C73.2409236,28.6826019 73.3423356,28.7933426 73.4148588,28.9239444 C73.4864792,29.0527407 73.5283079,29.1944769 73.5283079,29.3422315 L73.5283079,31.4830185 C73.5283079,31.6584583 73.4747431,31.8257731 73.3751366,31.9699167 C73.288169,32.0960046 73.1750208,32.1977176 73.040206,32.2696389 C72.9138171,32.3370463 72.7747894,32.3803796 72.6309468,32.3803796 L68.3286088,32.3803796 L68.3286088,37.4470694 C68.3286088,37.6225093 68.2753449,37.7895231 68.1757384,37.9339676 C68.0890718,38.0603565 67.9759236,38.1617685 67.8405069,38.2339907 C67.714419,38.3010972 67.5753912,38.3444306 67.4315486,38.3444306 L64.8974514,38.3444306 C64.7217106,38.3444306 64.5546968,38.2908657 64.4102523,38.1912593 C64.285669,38.1054954 64.1866644,37.9938519 64.1135394,37.8614444 C64.0425208,37.7344537 64.0000903,37.5936204 64.0000903,37.4470694 L64.0000903,23.1594074 C64.0000903,22.9818611 64.0524514,22.8181574 64.1529606,22.6725093 C64.2390255,22.5479259 64.350669,22.4492222 64.4827755,22.3754954 C64.6100671,22.3047778 64.7509005,22.2623472 64.8974514,22.2623472 L73.5268032,22.2623472 C73.7022431,22.2623472 73.8692569,22.3156111 74.0137014,22.4152176 C74.1367801,22.5000787 74.2381921,22.6108194 74.3107153,22.7414213 C74.3820347,22.8699167 74.4238634,23.0119537 74.4238634,23.1594074 L74.4238634,25.3004954 C74.4238634,25.476838 74.3705995,25.6462593 74.2688866,25.7904028 C74.1822199,25.9131806 74.0690718,26.0163981 73.9360625,26.0871157 C73.8096736,26.1545231 73.6706458,26.1978565 73.5268032,26.1978565 L68.3286088,26.1978565 Z" id="Fill-1"></path>
                <path d="M32.1513791,3.19152273 C32.1513791,5.98356818 33.6655882,8.82396818 35.8341791,9.32911364 C37.6228064,10.05075 34.7689064,9.74344091 33.3960791,9.83745 C22.8373609,10.5605591 13.6396882,7.62075 6.86047909,8.34385909 C-3.11233909,9.40741364 0.726079091,20.9008227 0.726079091,27.7426227 C0.726079091,29.5746955 0.23517,30.7806136 0.23517,33.8802136 C0.23517,36.4987227 2.27514273,34.98795 1.49827909,41.77305 C1.31590636,43.3658045 1.61020636,44.2410955 1.70814273,45.4192773 C3.04194273,45.7302682 3.66417,45.8846591 5.14524273,45.1738227 C5.14524273,43.2825955 4.65433364,41.4927409 4.65433364,39.5271409 C4.65433364,36.8153591 5.26576091,32.4840682 6.12755182,30.6885682 C8.93628818,31.4389227 6.50653364,34.3595864 7.94980636,33.9909136 C8.82436091,33.7673045 8.08087909,33.2673136 9.56440636,33.14385 C9.66553364,33.5770773 9.75070636,34.0512955 9.83759727,34.5206045 C10.2099518,36.5298955 10.5786245,35.2059136 11.1448882,34.3316045 C12.9637064,37.0475591 15.4567882,41.9210591 15.4567882,46.4013409 C17.25057,46.8723682 17.9348973,46.7049682 19.6302518,46.4013409 C19.2497973,41.8277864 15.7022427,39.8440227 15.7022427,34.1259136 C17.9965064,34.1259136 18.7061155,34.6168227 21.10347,34.6168227 L24.0418064,39.0438409 C25.7398609,41.9767773 26.55747,44.00865 27.0405245,47.3387318 C27.2884336,49.0505318 27.0972245,50.33475 27.2395882,50.6486864 C27.6796882,51.6197045 28.7142791,51.1661045 28.7142791,56.7128864 C31.0605791,57.3599045 31.5006791,57.4224955 34.3609609,56.9583409 C34.3609609,54.7048227 33.4090882,52.9748591 32.7112609,51.2429318 C29.6671336,43.6853864 31.72527,42.9166227 32.6228973,38.5254409 C33.3001064,35.2132773 34.4949791,28.2644591 38.15397,27.1098409 C39.6210518,26.6469136 39.8674882,27.0060136 41.7263155,27.0060136 C43.8033518,27.0060136 42.7621336,26.0443227 44.46657,27.1937864 C47.9785336,29.5624227 54.0019882,27.7733045 54.0019882,23.5689136 C54.0019882,22.4201864 49.5828245,18.7175045 49.5828245,15.46695 C49.5828245,12.0151227 50.0737336,12.27285 50.0737336,11.2932409 C50.0737336,10.1761773 48.0664064,11.00655 47.6186973,9.32935909 C51.3989427,8.44842273 52.8505609,1.72345909 50.0737336,0.981940909 C50.0737336,2.85868636 49.7678973,4.14756818 48.7995791,5.10901364 C45.8290882,8.05888636 35.8739427,6.00909545 35.2436155,5.50051364 C33.9667609,4.47083182 34.59267,0.520731818 32.6425336,-0.000122727273 C32.4388064,0.873695455 32.1513791,2.14564091 32.1513791,3.19152273" id="Fill-1"></path>
            </g>
        </g>
    </g>
</svg>