<?xml version="1.0" encoding="UTF-8"?>
<svg width="197px" height="33px" viewBox="0 0 197 33" version="1.1" xmlns="http://www.w3.org/2000/svg" xmlns:xlink="http://www.w3.org/1999/xlink">
    <title>Hertex</title>
    <defs>
        <polygon id="path-1" points="0 0 27 0 27 29 0 29"></polygon>
        <polygon id="path-3" points="0 0.229737705 13.5408689 0.229737705 13.5408689 19.3936721 0 19.3936721"></polygon>
        <polygon id="path-5" points="1.63075382e-14 0.200088605 14.4590164 0.200088605 14.4590164 19.5081967 1.63075382e-14 19.5081967"></polygon>
    </defs>
    <g id="Page-1" stroke="none" stroke-width="1" fill="none" fill-rule="evenodd">
        <g id="Home" transform="translate(-1125.000000, -835.000000)">
            <g id="Hertex" transform="translate(1125.000000, 835.000000)">
                <g id="Group-3" transform="translate(0.000000, 2.000000)">
                    <mask id="mask-2" fill="white">
                        <use xlink:href="#path-1"></use>
                    </mask>
                    <g id="Clip-2"></g>
                    <path d="M0,0.271028037 L0,0 L7.59716599,0 L7.59716599,0.271028037 C7.54251012,0.271028037 7.54251012,0.325233645 7.48785425,0.325233645 C7.26923077,0.379439252 7.05060729,0.379439252 6.88663968,0.43364486 C5.84817814,0.596261682 5.46558704,1.02990654 5.46558704,2.05981308 L5.46558704,9.32336449 L5.46558704,13.2803738 L5.46558704,13.6598131 L21.4797571,13.6598131 L21.4797571,13.2803738 L21.4797571,3.46915888 C21.4797571,2.76448598 21.3704453,2.05981308 21.2611336,1.40934579 C21.1518219,0.813084112 20.7692308,0.487850467 20.1133603,0.43364486 C19.8947368,0.43364486 19.6761134,0.379439252 19.402834,0.379439252 L19.402834,0.108411215 L19.7307692,0.108411215 L26.6174089,0.108411215 C26.8360324,0.108411215 27,0.108411215 26.8906883,0.43364486 C26.6720648,0.43364486 26.3987854,0.487850467 26.1801619,0.542056075 C25.4149798,0.65046729 24.9777328,1.02990654 24.9230769,1.78878505 C24.9777328,2.43925234 24.9230769,3.30654206 24.9230769,4.11962617 L24.9230769,24.8261682 C24.9230769,25.5850467 24.9777328,26.3981308 25.0323887,27.1570093 C25.0870445,28.2411215 25.7975709,28.5663551 26.6174089,28.6205607 L27,28.6205607 L27,29 L19.5121457,29 L19.5121457,28.728972 C19.8947368,28.6205607 20.3319838,28.5663551 20.659919,28.4579439 C21.2064777,28.2953271 21.3157895,27.8074766 21.3704453,27.3196262 C21.4251012,26.6691589 21.534413,26.0728972 21.534413,25.4224299 L21.534413,14.7981308 L21.534413,14.5271028 L5.52024291,14.5271028 L5.52024291,14.8523364 L5.52024291,26.5065421 C5.52024291,26.7233645 5.52024291,26.9401869 5.57489879,27.211215 C5.7388664,28.1869159 6.2854251,28.5663551 7.2145749,28.6205607 L7.65182186,28.6205607 L7.65182186,29 L0.0546558704,29 L0.0546558704,28.6747664 C0.655870445,28.6747664 1.25708502,28.6747664 1.69433198,28.1327103 C2.02226721,27.753271 2.13157895,27.2654206 2.13157895,26.7233645 L2.13157895,3.68598131 C2.13157895,2.98130841 2.07692308,2.22242991 2.02226721,1.51775701 C1.96761134,0.86728972 1.58502024,0.542056075 0.983805668,0.43364486 C0.601214575,0.379439252 0.327935223,0.325233645 0,0.271028037" id="Fill-1" fill="#000000" mask="url(#mask-2)"></path>
                </g>
                <g id="Group-6" transform="translate(57.000000, 7.000000)">
                    <path d="M55.5410984,8.72085246 C57.1476557,8.72085246 58.639459,8.8367541 60.1312623,8.72085246 C61.3935574,8.60609836 62.5410984,8.26298361 63.0001148,6.88478689 C63.229623,6.19740984 63.229623,5.39413115 63.1148689,4.70445902 C63.0001148,3.78642623 62.4263443,3.09904918 61.5083115,2.86839344 C60.8197869,2.63888525 60.1312623,2.52527869 59.4427377,2.52527869 C58.1804426,2.40937705 56.8033934,2.52527869 55.5410984,2.52527869 L55.5410984,8.72085246 Z M53.0165082,0.230196721 L56.4591311,0.230196721 C58.1804426,0.230196721 59.9017541,0.230196721 61.6230656,0.459704918 C64.0329016,0.803967213 65.5247049,2.52527869 65.7542131,4.58970492 C65.9837213,7.45855738 64.9509344,9.29462295 62.4263443,10.2138033 C62.3115902,10.2138033 62.3115902,10.3274098 62.082082,10.4421639 C63.344377,13.426918 64.7214262,16.409377 66.0984754,19.3941311 L63.5738852,19.3941311 C63.4591311,19.3941311 63.229623,19.164623 63.1148689,19.0487213 C61.9673279,16.5252787 60.934541,14.0006885 59.787,11.5897049 C59.5574918,11.1318361 59.3279836,10.9011803 58.8689672,10.9011803 L55.5410984,10.9011803 L55.5410984,19.3941311 L53.0165082,19.3941311 L53.0165082,0.230196721 Z" id="Fill-4" fill="#000000"></path>
                    <g id="Group-8">
                        <mask id="mask-4" fill="white">
                            <use xlink:href="#path-3"></use>
                        </mask>
                        <g id="Clip-7"></g>
                        <polygon id="Fill-6" fill="#000000" mask="url(#mask-4)" points="2.52447541 8.26252459 11.0162787 8.26252459 11.0162787 0.229737705 13.5408689 0.229737705 13.5408689 19.3936721 11.0162787 19.3936721 11.0162787 10.5576066 2.52447541 10.5576066 2.52447541 19.3936721 -0.000114754098 19.3936721 -0.000114754098 0.229737705 2.52447541 0.229737705"></polygon>
                    </g>
                    <g id="Group-11" transform="translate(125.081967, 0.000000)">
                        <mask id="mask-6" fill="white">
                            <use xlink:href="#path-5"></use>
                        </mask>
                        <g id="Clip-10"></g>
                        <path d="M0.344262295,0.229737705 L2.98360656,0.229737705 C3.21311475,0.229737705 3.32786885,0.459245902 3.55737705,0.687606557 C4.70491803,2.63957377 5.96721311,4.704 7.1147541,6.77072131 C7.3442623,6.42531148 7.57377049,6.08219672 7.80327869,5.73793443 C8.72131148,4.13022951 9.63934426,2.40891803 10.6721311,0.803508197 C10.9016393,0.344491803 11.1311475,0.113836066 11.704918,0.229737705 L14,0.229737705 C13.4262295,1.26137705 12.852459,2.18055738 12.3934426,3.09859016 C11.2459016,5.04940984 10.2131148,7.11498361 8.95081967,9.06580328 C8.72131148,9.41006557 8.83606557,9.63957377 8.95081967,9.86793443 C10.6721311,12.8526885 12.3934426,15.721541 14.1147541,18.7051475 C14.2295082,18.9346557 14.3442623,19.1641639 14.4590164,19.5084262 L11.704918,19.5084262 C11.5901639,19.5084262 11.3606557,19.278918 11.3606557,19.1641639 C9.98360656,16.869082 8.60655738,14.574 7.2295082,12.0494098 C6.6557377,12.9674426 6.19672131,13.7707213 5.73770492,14.574 C4.93442623,16.0658033 4.01639344,17.5576066 3.21311475,19.0482623 C3.09836066,19.1641639 2.98360656,19.3936721 2.75409836,19.3936721 L1.63075382e-14,19.3936721 C0.459016393,18.4744918 0.918032787,17.7871148 1.37704918,16.9838361 C2.75409836,14.574 4.01639344,12.278918 5.39344262,9.86793443 C5.62295082,9.52481967 5.62295082,9.18055738 5.39344262,8.83629508 C3.67213115,6.08219672 2.06557377,3.21334426 0.459016393,0.459245902 C0.459016393,0.459245902 0.344262295,0.344491803 0.344262295,0.229737705" id="Fill-9" fill="#000000" mask="url(#mask-6)"></path>
                    </g>
                    <polygon id="Fill-12" fill="#000000" points="30.5243607 10.5576066 30.5243607 17.3269508 40.1637049 17.3269508 40.1637049 19.3936721 27.9997705 19.3936721 27.9997705 0.229737705 39.7046885 0.229737705 39.7046885 2.40891803 30.5243607 2.40891803 30.5243607 8.26252459 37.0653443 8.26252459 37.0653443 10.5576066"></polygon>
                    <polygon id="Fill-14" fill="#000000" points="105.00023 2.40937705 105.00023 8.26298361 111.541213 8.26298361 111.541213 10.5580656 105.00023 10.5580656 105.00023 17.3274098 114.754328 17.3274098 114.754328 19.3941311 102.589246 19.3941311 102.589246 0.230196721 114.180557 0.230196721 114.180557 2.40937705"></polygon>
                    <polygon id="Fill-16" fill="#000000" points="82.2791475 2.40937705 76.6561967 2.40937705 76.6561967 0.230196721 90.4266885 0.230196721 90.4266885 2.29462295 84.8025902 2.29462295 84.8025902 19.3941311 82.2791475 19.3941311"></polygon>
                </g>
                <path d="M57.9598993,16.7724798 L57.3486564,16.7724798 L25.5640267,16.7724798 C25.3020654,16.7724798 24.8654634,16.9714798 25.0401042,16.2724798 L25.6513471,16.2724798 L57.4351036,16.2724798 C57.6979381,16.1714798 58.1345401,16.0724798 57.9598993,16.7724798" id="Fill-18" fill="#000000" transform="translate(41.500000, 16.500000) rotate(90.000000) translate(-41.500000, -16.500000) "></path>
            </g>
        </g>
    </g>
</svg>