<?xml version="1.0"?>
<svg xmlns="http://www.w3.org/2000/svg" width="149" height="793" viewBox="0 0 149 793">
  <svg width="132" height="132" id="icon-build" y="0">
    <g transform="translate(2 2)" stroke="#000" stroke-width="4" fill="none" fill-rule="evenodd" stroke-linecap="round" stroke-linejoin="round">
      <rect x=".389" y=".389" width="127.222" height="127.222" rx="2" />
      <path d="M.389 28.046h127.222" />
      <rect x="72.297" y="44.64" width="38.72" height="27.657" rx=".5" />
      <rect x="72.297" y="83.36" width="38.72" height="27.657" rx=".5" />
      <rect x="16.983" y="44.64" width="38.72" height="44.251" rx=".5" />
      <circle cx="36.343" cy="64" r="8.297" />
      <path d="M22.515 88.891c-.694-8.379 5.462-15.765 13.828-16.594 8.367.83 14.522 8.215 13.829 16.594M19.749 99.954h22.126M19.749 111.017h22.126M19.749 12.835a1.383 1.383 0 110 2.766 1.383 1.383 0 010-2.766M36.343 12.835a1.383 1.383 0 110 2.766 1.383 1.383 0 010-2.766M52.937 12.835a1.383 1.383 0 110 2.766 1.383 1.383 0 010-2.766" />
    </g>
  </svg>
  <svg width="110" height="124" id="icon-call" y="132">
    <g stroke="#000" stroke-width="4" fill="none" fill-rule="evenodd" stroke-linecap="round" stroke-linejoin="round">
      <path d="M19.715 58.516a1.3 1.3 0 01-2.512.665 1.294 1.294 0 01.915-1.585 1.305 1.305 0 011.597.92M92.248 68.692l11.796-3.161c2.773-.76 4.407-3.61 3.654-6.375L95.521 13.962c-.763-2.76-3.62-4.386-6.395-3.64l-2.088.562" />
      <path d="M19.172 29.042L5.935 32.584c-2.773.76-4.407 3.61-3.654 6.375L14.48 84.152c.763 2.76 3.62 4.387 6.395 3.64l48.741-13.031M60.93 36c0 4.308-3.506 7.8-7.83 7.8s-7.83-3.492-7.83-7.8V15.2c0-4.308 3.506-7.8 7.83-7.8s7.83 3.492 7.83 7.8V36z" />
      <path d="M45.27 41.2c0 4.308-3.505 7.8-7.83 7.8-4.323 0-7.829-3.492-7.829-7.8V20.4c0-4.308 3.506-7.8 7.83-7.8s7.83 3.492 7.83 7.8v20.8zM76.589 30.8c0 4.308-3.506 7.8-7.83 7.8s-7.83-3.492-7.83-7.8V10c0-4.308 3.506-7.8 7.83-7.8s7.83 3.492 7.83 7.8v20.8zM66.15 85.4c-.002-7.031 4.062-13.434 10.439-16.448M29.611 85.478V88c0 3.273 1.547 6.356 4.176 8.32l2.088 1.56a10.387 10.387 0 014.176 8.32v15.6" />
      <path d="M76.589 68.952V51.6c0-4.308 3.505-7.8 7.83-7.8 4.323 0 7.829 3.492 7.829 7.8v28.6a15.598 15.598 0 01-9.396 14.3 10.399 10.399 0 00-6.263 9.537V121.8" />
    </g>
  </svg>
  <svg width="122" height="112" id="icon-drive" y="256">
    <g stroke="#000" stroke-width="4" fill="none" fill-rule="evenodd" stroke-linecap="round" stroke-linejoin="round">
      <path d="M82.392 109.654L66.027 85.016C59.53 75.063 75.595 71.71 82.98 88.3V45.27c0-2.964 2.394-5.366 5.348-5.366 2.954 0 5.348 2.402 5.348 5.365v25.507l21.194 6.149c3.502 1.017 5.6 4.602 4.781 8.166l-.455 1.97-4.09 22.593" />
      <path d="M56.187 82.827H10.729c-4.43 0-8.022-3.603-8.022-8.048V10.394c0-4.445 3.592-8.048 8.022-8.048h96.263c4.43 0 8.022 3.603 8.022 8.048v56.337M32.105 98.923h26.74M50.823 82.827v16.096" />
    </g>
  </svg>
  <svg width="136" height="136" id="icon-group" y="368">
    <g transform="translate(2 2)" stroke="#000" stroke-width="4" fill="none" fill-rule="evenodd" stroke-linecap="round" stroke-linejoin="round">
      <path d="M84.417 23.5a1.417 1.417 0 110 2.833 1.417 1.417 0 010-2.833M109.917 23.5a1.417 1.417 0 110 2.833 1.417 1.417 0 010-2.833M108.5 43.333c0 6.26-5.074 11.334-11.333 11.334-6.26 0-11.334-5.074-11.334-11.334H108.5z" />
      <path d="M96.787.833a33.74 33.74 0 00-33.62 34.38 33.66 33.66 0 004.425 18.088L57.5 74.5l21.199-10.098A34.363 34.363 0 1096.787.833h0zM91.5 80.167v51M.833 131.167v-102c0-6.26 5.074-11.334 11.334-11.334h42.5M51.833 40.5h-51" />
      <circle cx="43.333" cy="92.917" r="12.75" />
      <path d="M68.833 131.167a26.316 26.316 0 00-51 0M37.667 29.167h14.166" />
    </g>
  </svg>
  <svg width="149" height="134" id="icon-grow" y="504">
    <g transform="translate(2 2)" stroke="#000" stroke-width="4" fill="none" fill-rule="evenodd" stroke-linecap="round" stroke-linejoin="round">
      <path d="M28.517 125.28h87.966M69.358 112.753v12.527M.242 87.699h144.516" />
      <rect x=".242" y=".011" width="144.517" height="112.742" rx="1.5" />
      <path d="M28.517 75.172h87.966M34.8 56.357h12.567a3.137 3.137 0 013.141 3.132v15.658h-18.85V59.49a3.137 3.137 0 013.142-3.132zM66.217 37.567h12.566a3.137 3.137 0 013.142 3.131v34.45h-18.85v-34.45a3.137 3.137 0 013.142-3.131zM97.633 18.776H110.2a3.137 3.137 0 013.142 3.132v53.24h-18.85v-53.24a3.137 3.137 0 013.141-3.132z" />
    </g>
  </svg>
  <svg width="52" height="17" id="icon-right-arrow" y="638">
    <g stroke="#343D42" stroke-width="3" fill="none" fill-rule="evenodd">
      <path fill="#D8D8D8" d="M0 8.5h49" />
      <path d="M42 2l7 6.5-7 6.5" />
    </g>
  </svg>
  <svg width="111" height="111" id="icon-store" y="655">
    <g transform="translate(2 2)" stroke="#000" stroke-width="4" fill="none" fill-rule="evenodd" stroke-linecap="round" stroke-linejoin="round">
      <path d="M16.283 107H4.653A4.652 4.652 0 010 102.348V38.613c0-1.523.745-2.95 1.996-3.82L50.844.834a4.652 4.652 0 015.312 0l48.848 33.96a4.652 4.652 0 011.996 3.82v63.735a4.652 4.652 0 01-4.652 4.652h-11.63" />
      <circle cx="74.5" cy="45.5" r="10.5" />
      <path d="M74 60c-7.732 0-14 6.313-14 14.1v11.75h7L69.333 107h9.334L81 85.85h7V74.1C88 66.313 81.732 60 74 60z" />
      <g transform="translate(18.074 34.515)">
        <circle cx="14.426" cy="10.985" r="10.5" />
        <path d="M14.426 25.485c-7.456 0-13.5 6.313-13.5 14.1v11.75h6.75l2.25 21.15h9l2.25-21.15h6.75v-11.75c0-7.787-6.044-14.1-13.5-14.1z" />
      </g>
    </g>
  </svg>
  <svg width="27" height="27" id="icon-target" y="766">
    <g transform="translate(1 1)" stroke="#000" stroke-width="1.5" fill="none" fill-rule="evenodd" stroke-linecap="round" stroke-linejoin="round">
      <circle cx="10.873" cy="10.874" r="10.848" />
      <circle cx="10.873" cy="10.874" r="2.17" />
      <path d="M24.975 24.976l-6.432-6.432M10.017 5.247a1.152 1.152 0 001.712 0l.553-.612a1.153 1.153 0 012.007.831l-.043.825a1.153 1.153 0 001.21 1.21l.824-.043a1.153 1.153 0 01.831 2.007l-.611.553a1.152 1.152 0 000 1.712l.611.553a1.153 1.153 0 01-.83 2.007l-.825-.042a1.153 1.153 0 00-1.21 1.21l.043.824a1.153 1.153 0 01-2.007.83l-.553-.611a1.152 1.152 0 00-1.712 0l-.553.611a1.153 1.153 0 01-2.007-.83l.042-.825a1.153 1.153 0 00-1.21-1.21l-.824.043a1.153 1.153 0 01-.83-2.007l.611-.553a1.152 1.152 0 000-1.712l-.612-.555a1.153 1.153 0 01.831-2.007l.825.042A1.153 1.153 0 007.5 6.291l-.043-.825a1.153 1.153 0 012.006-.83l.554.611z" />
    </g>
  </svg>
</svg>