<?xml version="1.0" encoding="UTF-8"?>
<svg width="104px" height="51px" viewBox="0 0 104 51" version="1.1" xmlns="http://www.w3.org/2000/svg" xmlns:xlink="http://www.w3.org/1999/xlink">
    <title>KIA</title>
    <g id="Page-1" stroke="none" stroke-width="1" fill="none" fill-rule="evenodd">
        <g id="Home" transform="translate(-910.000000, -827.000000)">
            <g id="KIA" transform="translate(910.000000, 827.000000)">
                <path d="M52,50.6613826 C23.3279912,50.6613826 0,39.2961107 0,25.3286743 C0,11.3613821 23.3279912,0 52,0 C80.6728903,0 104,11.3613821 104,25.3286743 C104,39.2961107 80.6728903,50.6613826 52,50.6613826" id="Fill-1" fill="#231F20"></path>
                <path d="M47.4827684,12.0903531 L48.3964689,12.0903531 C48.715678,12.0903531 48.9659605,12.3400706 48.9659605,12.6597034 L48.9659605,38.6348446 C48.9659605,38.9783475 49.2341808,39.2434605 49.5754237,39.2434605 L56.3775424,39.2434605 C56.7200565,39.2434605 56.989548,38.9783475 56.989548,38.6348446 L56.989548,10.9588559 C56.989548,10.623404 56.7152542,10.348404 56.3775424,10.348404 L47.4827684,10.348404 C47.3946328,10.348404 47.3946328,10.4320198 47.3946328,10.4985452 L47.3946328,11.9421893 C47.3946328,12.0046186 47.3946328,12.0903531 47.4827684,12.0903531" id="Fill-3" fill="#FEFEFE"></path>
                <path d="M62.8194915,39.243404 L69.4975989,39.243404 C69.8214689,39.243404 70.1658192,38.9860593 70.2987288,38.642839 L75.995339,20.7121893 C75.995339,20.7082345 76.0607345,20.4624718 76.2731638,20.4624718 C76.4761299,20.4624718 76.5443503,20.7102119 76.5463277,20.7121893 L82.3038136,38.642839 C82.4423729,38.9919915 82.7805085,39.243404 83.1090395,39.243404 L89.7847458,39.243404 C90.0189266,39.243404 90.1529661,39.128291 90.225565,39.0311158 C90.354096,38.8554096 90.3682203,38.632952 90.3262712,38.4982062 L81.0329096,10.7520198 C80.8884181,10.3932627 80.525565,10.3483475 80.2257062,10.3483475 L69.5641243,10.3483475 C69.4860169,10.3483475 69.4121469,10.4205226 69.4121469,10.4984887 L69.4121469,11.9421328 C69.4121469,12.0161441 69.4879944,12.0902966 69.5641243,12.0902966 L70.3492938,12.0902966 C70.6896893,12.0902966 70.9180791,12.2893079 70.9180791,12.587613 C70.9180791,12.6850706 70.8963277,12.7887429 70.8512712,12.9154379 L62.2782486,38.5003249 C62.2286723,38.6816808 62.2669492,38.8784322 62.380791,39.0288559 C62.4872881,39.1692514 62.6429379,39.243404 62.8194915,39.243404" id="Fill-5" fill="#FEFEFE"></path>
                <path d="M17.3799576,12.0903531 C17.6997316,12.0903531 17.9518503,12.3400706 17.9518503,12.6597034 L17.9518503,38.6348446 C17.9518503,38.9783475 18.2176695,39.2434605 18.5582062,39.2434605 L25.1710593,39.2434605 C25.5045339,39.2434605 25.7757203,38.9702966 25.7757203,38.6348446 L25.7757203,27.7112571 C25.7757203,27.4732627 25.8847599,27.3365395 26.0781215,27.3365395 C26.3050989,27.3365395 26.4118785,27.4906356 26.4956356,27.6136582 C26.5049576,27.6272175 26.5128672,27.6409181 26.5230367,27.6526412 L34.3117373,38.5800424 C34.563291,38.9585734 35.0189407,39.2434605 35.3728955,39.2434605 L43.2243079,39.2434605 C43.4094774,39.2434605 43.6123023,39.1108333 43.7082062,38.9275 C43.8104661,38.7304661 43.7841949,38.5061723 43.6356073,38.2954379 C43.6118785,38.2601271 33.7908333,24.371709 33.6913983,24.2313136 C33.662161,24.1883757 33.6495904,24.1609746 33.6309463,24.1299011 C33.6094774,24.0906356 33.5889972,24.0457203 33.5813701,24.0050424 C33.5748729,23.9756638 33.5639972,23.9502401 33.5639972,23.9112571 C33.5639972,23.7941667 33.6214831,23.6752401 33.6837712,23.5485452 L33.6913983,23.532726 L42.002274,11.228065 C42.1083475,11.0564548 42.1083475,10.8301836 42.003404,10.6427542 C41.8998729,10.4595621 41.7203531,10.348404 41.5233192,10.348404 L34.0699294,10.348404 C33.7161158,10.348404 33.2573588,10.633291 33.001709,11.0116808 L26.5219068,20.1738277 C26.3200706,20.4741102 26.1219068,20.4897881 26.0840537,20.4897881 L26.0781215,20.4897881 C25.8967655,20.4897881 25.7757203,20.3688842 25.7757203,20.1835734 L25.7757203,10.9588559 C25.7757203,10.623404 25.5045339,10.348404 25.1710593,10.348404 L16.4651271,10.348404 C16.3860311,10.348404 16.3142797,10.4204379 16.3142797,10.4985452 L16.3142797,11.9421893 C16.3142797,12.0180367 16.3873023,12.0903531 16.4651271,12.0903531 L17.3799576,12.0903531 Z" id="Fill-7" fill="#FEFEFE"></path>
            </g>
        </g>
    </g>
</svg>