<svg id="Page-1" xmlns="http://www.w3.org/2000/svg" width="155" height="81" viewBox="0 0 155 81">
  <g id="Home" transform="translate(2.5 2.5)">
    <g id="Group-2" transform="translate(0)">
      <rect id="Rectangle" width="150" height="76" fill="#fff" stroke="#000" stroke-width="5" opacity="0.794"/>
      <path id="Liftr" d="M58.036,60.637V53.187H45.811V27.21H37.025V60.637Zm7.258-26.359a4.564,4.564,0,0,0,3.295-1.289,4.5,4.5,0,0,0,0-6.4,4.855,4.855,0,0,0-6.59,0,4.5,4.5,0,0,0,0,6.4A4.564,4.564,0,0,0,65.294,34.277ZM69.4,60.637V36H61.14v24.64Zm14.087,0V42.825h5.778V36H83.488V35.71a1.457,1.457,0,0,1,1.671-1.624h4.107V27.21H83.2a8.538,8.538,0,0,0-5.9,1.862,6.513,6.513,0,0,0-2.077,5.109V36H71.359v6.829h3.868V60.637Zm21.727,0V53.808h-3.056a1.914,1.914,0,0,1-2.244-2.244V42.825h5.3V36h-5.3V29.072H91.653V53.235a7.363,7.363,0,0,0,1.934,5.515,7.5,7.5,0,0,0,5.467,1.886Zm11.126,0V48.794q0-5.492,5.014-5.491h3.1V36h-1.194a8.565,8.565,0,0,0-4.2.907,7.428,7.428,0,0,0-2.722,2.722L115.673,36H108.08v24.64Z" transform="translate(-7.05 -5.505)"/>
    </g>
  </g>
</svg>
