<?xml version="1.0" encoding="UTF-8"?>
<svg width="178px" height="93px" viewBox="0 0 178 93" version="1.1" xmlns="http://www.w3.org/2000/svg" xmlns:xlink="http://www.w3.org/1999/xlink">
    <title>Group 9</title>
    <g id="Page-1" stroke="none" stroke-width="1" fill="none" fill-rule="evenodd">
        <g id="Home" transform="translate(-126.000000, -5579.000000)">
            <g id="Group-9" transform="translate(126.000000, 5579.000000)">
                <rect id="Rectangle" fill="#000000" x="0" y="0" width="178" height="93"></rect>
                <path d="M64.225,67 L64.225,58.42 L50.145,58.42 L50.145,28.5 L40.025,28.5 L40.025,67 L64.225,67 Z M72.585,36.64 C74.0883331,36.64 75.3533331,36.145 76.38,35.155 C77.4066669,34.165 77.92,32.9366669 77.92,31.47 C77.92,30.0033331 77.4066669,28.775 76.38,27.785 C75.3533331,26.795 74.0883331,26.3 72.585,26.3 C71.0816669,26.3 69.8166669,26.795 68.79,27.785 C67.7633331,28.775 67.25,30.0033331 67.25,31.47 C67.25,32.9366669 67.7633331,34.165 68.79,35.155 C69.8166669,36.145 71.0816669,36.64 72.585,36.64 Z M77.315,67 L77.315,38.62 L67.8,38.62 L67.8,67 L77.315,67 Z M93.54,67 L93.54,46.485 L100.195,46.485 L100.195,38.62 L93.54,38.62 L93.54,38.29 C93.54,37.0433331 94.1816669,36.42 95.465,36.42 L100.195,36.42 L100.195,28.5 L93.21,28.5 C90.2766669,28.5 88.0125,29.215 86.4175,30.645 C84.8225,32.075 84.025,34.0366669 84.025,36.53 L84.025,38.62 L79.57,38.62 L79.57,46.485 L84.025,46.485 L84.025,67 L93.54,67 Z M118.565,67 L118.565,59.135 L115.045,59.135 C114.128333,59.135 113.468333,58.9333331 113.065,58.53 C112.661667,58.1266669 112.46,57.4666669 112.46,56.55 L112.46,46.485 L118.565,46.485 L118.565,38.62 L112.46,38.62 L112.46,30.645 L102.945,30.645 L102.945,58.475 C102.945,61.2616669 103.6875,63.3791669 105.1725,64.8275 C106.6575,66.2758331 108.756667,67 111.47,67 L118.565,67 Z M131.38,67 L131.38,53.36 C131.38,49.1433331 133.305,47.035 137.155,47.035 L140.73,47.035 L140.73,38.62 L139.355,38.62 C137.375,38.62 135.761667,38.9683331 134.515,39.665 C133.268333,40.3616669 132.223333,41.4066669 131.38,42.8 L130.61,38.62 L121.865,38.62 L121.865,67 L131.38,67 Z" id="Liftr" fill="#FFFFFF" fill-rule="nonzero"></path>
            </g>
        </g>
    </g>
</svg>