<?xml version="1.0" encoding="UTF-8"?>
<svg width="149px" height="134px" viewBox="0 0 149 134" version="1.1" xmlns="http://www.w3.org/2000/svg" xmlns:xlink="http://www.w3.org/1999/xlink">
    <title>monitor-graph</title>
    <g id="Page-1" stroke="none" stroke-width="1" fill="none" fill-rule="evenodd" stroke-linecap="round" stroke-linejoin="round">
        <g id="Home" transform="translate(-633.000000, -2591.000000)" stroke="#000000" stroke-width="4">
            <g id="monitor-graph" transform="translate(635.000000, 2593.000000)">
                <line x1="28.5166667" y1="125.279804" x2="116.483333" y2="125.279804" id="Shape"></line>
                <line x1="69.3583333" y1="112.752912" x2="69.3583333" y2="125.279804" id="Shape"></line>
                <line x1="0.241666667" y1="87.6991279" x2="144.758333" y2="87.6991279" id="Shape"></line>
                <rect id="Rectangle-path" x="0.241666667" y="0.0108830918" width="144.516667" height="112.742029" rx="1.5"></rect>
                <line x1="28.5166667" y1="75.1722357" x2="116.483333" y2="75.1722357" id="Shape"></line>
                <path d="M34.8,56.3568438 L47.3666667,56.3568438 C49.1017613,56.3568438 50.5083333,57.758964 50.5083333,59.4885668 L50.5083333,75.147182 L31.6583333,75.147182 L31.6583333,59.4885668 C31.6583333,57.758964 33.0649054,56.3568438 34.8,56.3568438 Z" id="Shape"></path>
                <path d="M66.2166667,37.5665056 L78.7833333,37.5665056 C80.5184279,37.5665056 81.925,38.9686258 81.925,40.6982287 L81.925,75.147182 L63.075,75.147182 L63.075,40.6982287 C63.075,38.9686258 64.4815721,37.5665056 66.2166667,37.5665056 Z" id="Shape"></path>
                <path d="M97.6333333,18.7761675 L110.2,18.7761675 C111.935095,18.7761675 113.341667,20.1782876 113.341667,21.9078905 L113.341667,75.147182 L94.4916667,75.147182 L94.4916667,21.9078905 C94.4916667,20.1782876 95.8982387,18.7761675 97.6333333,18.7761675 Z" id="Shape"></path>
            </g>
        </g>
    </g>
</svg>