<?xml version="1.0" encoding="UTF-8"?>
<svg width="136px" height="136px" viewBox="0 0 136 136" version="1.1" xmlns="http://www.w3.org/2000/svg" xmlns:xlink="http://www.w3.org/1999/xlink">
    <title>mood-happy-smartphone</title>
    <g id="Page-1" stroke="none" stroke-width="1" fill="none" fill-rule="evenodd" stroke-linecap="round" stroke-linejoin="round">
        <g id="Home" transform="translate(-1065.000000, -2574.000000)" stroke="#000000" stroke-width="4">
            <g id="mood-happy-smartphone" transform="translate(1067.000000, 2576.000000)">
                <path d="M84.4166667,23.5 C85.1990701,23.5 85.8333333,24.1342633 85.8333333,24.9166667 C85.8333333,25.6990701 85.1990701,26.3333333 84.4166667,26.3333333 C83.6342633,26.3333333 83,25.6990701 83,24.9166667 C83,24.1342633 83.6342633,23.5 84.4166667,23.5" id="Shape"></path>
                <path d="M109.916667,23.5 C110.69907,23.5 111.333333,24.1342633 111.333333,24.9166667 C111.333333,25.6990701 110.69907,26.3333333 109.916667,26.3333333 C109.134263,26.3333333 108.5,25.6990701 108.5,24.9166667 C108.5,24.1342633 109.134263,23.5 109.916667,23.5" id="Shape"></path>
                <path d="M108.5,43.3333333 C108.5,49.5925605 103.425894,54.6666667 97.1666667,54.6666667 C90.9074395,54.6666667 85.8333333,49.5925605 85.8333333,43.3333333 L108.5,43.3333333 Z" id="Shape"></path>
                <path d="M96.787,0.833328937 C87.7473678,0.863587524 79.0979548,4.52004796 72.7777053,10.9830436 C66.4574559,17.4460393 62.9950534,26.1749463 63.1666667,35.213 C62.9115621,41.5385496 64.4454905,47.8078192 67.5923333,53.301 L57.5,74.5 L78.699,64.402 C91.0908518,72.0839235 106.981425,71.1096293 118.341986,61.9713809 C129.702548,52.8331325 134.059633,37.5205438 129.211819,23.7703204 C124.364005,10.0200971 111.366777,0.825989794 96.787,0.833328937 L96.787,0.833328937 Z" id="Shape"></path>
                <line x1="91.5" y1="80.1666667" x2="91.5" y2="131.166667" id="Shape"></line>
                <path d="M0.833333333,131.166667 L0.833333333,29.1666667 C0.833333333,22.9074395 5.9074395,17.8333333 12.1666667,17.8333333 L54.6666667,17.8333333" id="Shape"></path>
                <line x1="51.8333333" y1="40.5" x2="0.833333333" y2="40.5" id="Shape"></line>
                <circle id="Oval" cx="43.3333333" cy="92.9166667" r="12.75"></circle>
                <path d="M68.8333333,131.166667 C65.8609549,119.510191 55.3628163,111.353117 43.3333333,111.353117 C31.3038504,111.353117 20.8057118,119.510191 17.8333333,131.166667" id="Shape"></path>
                <line x1="37.6666667" y1="29.1666667" x2="51.8333333" y2="29.1666667" id="Shape"></line>
            </g>
        </g>
    </g>
</svg>