<?xml version="1.0" encoding="UTF-8"?>
<svg width="193px" height="43px" viewBox="0 0 193 43" version="1.1" xmlns="http://www.w3.org/2000/svg" xmlns:xlink="http://www.w3.org/1999/xlink">
    <title>Motorhappy</title>
    <g id="Page-1" stroke="none" stroke-width="1" fill="none" fill-rule="evenodd">
        <g id="Home" transform="translate(-605.000000, -835.000000)" fill="#000000">
            <g id="Motorhappy" transform="translate(605.000000, 835.000000)">
                <path d="M52.5,42.9998012 C44.00625,43.0298007 35.8714286,39.6633347 30,33.686912 L32.8660714,31 C43.2950893,41.5598251 60.5397321,41.8872109 71.3839286,31.7304227 C71.6383929,31.4930353 71.8888393,31.247822 72.1339286,31 L75,33.6738687 C69.13125,39.6568131 60.9964286,43.0284964 52.5,42.9998012" id="Fill-1"></path>
                <polygon id="Fill-3" points="112 0 112 24 107.937277 24 107.937277 13.7960089 97.0627227 13.7560976 97.0627227 24 93 24 93 0 97.0627227 0 97.0627227 9.89800443 107.937277 9.93791574 107.937277 0"></polygon>
                <path d="M125.634698,19.9057508 C126.432133,19.2816381 126.902025,18.3553651 126.921373,17.3723545 L126.921373,16.4355257 L123.231339,16.4355257 C122.331633,16.3840661 121.437456,16.6004603 120.673191,17.05568 C120.106556,17.4224947 119.76934,18.0373711 119.77625,18.6918318 C119.733407,19.3053887 120.054039,19.8899171 120.604089,20.2079111 C121.237061,20.5575726 121.961248,20.7264657 122.690963,20.6974372 C123.737164,20.7475773 124.770926,20.4691676 125.634698,19.9057508 M127.501828,7.72697588 C128.546647,8.18747344 129.435296,8.92506122 130.057212,9.85133424 C130.699859,10.8501785 131.026019,12.0047211 130.998378,13.1764169 L130.998378,23.7309154 L126.852272,23.7309154 L126.852272,22.358659 C126.284255,22.8785331 125.616732,23.29021 124.888399,23.5738976 C124.121369,23.8536268 123.305968,23.9974498 122.485039,23.9961303 C120.810012,24.0502289 119.169536,23.5356327 117.853838,22.5447053 C116.669434,21.636905 115.986708,20.2606902 116.001911,18.8105847 C115.977034,17.893548 116.195396,16.9857477 116.637647,16.1716302 C117.077134,15.3667491 117.734983,14.6911768 118.544856,14.2188039 C119.114255,13.8836567 119.748609,13.663304 120.411986,13.5722601 C121.328276,13.4521876 122.251475,13.3862138 123.176057,13.3743385 L125.855824,13.3743385 C126.602123,13.3743385 126.947632,13.0576639 126.866092,12.4111201 C126.657405,11.0916429 125.484056,10.3923199 123.561645,10.3923199 C122.737952,10.3778057 121.921169,10.5546156 121.184544,10.906916 C120.435481,11.3119956 119.823239,11.9110382 119.415538,12.6354312 L116.321161,11.0652533 C117.068842,9.72334495 118.218696,8.62553988 119.622844,7.91170269 C120.985531,7.28890943 122.480893,6.9775128 123.991458,7.00126339 C125.197975,6.99334653 126.392054,7.24140825 127.488008,7.72697588" id="Fill-6"></path>
                <path d="M147.470874,19.8460765 C148.491583,18.805668 149.049588,17.4098659 149.017821,15.9665875 C149.042682,14.9533083 148.820309,13.948168 148.368656,13.0366238 C147.973632,12.2566566 147.360378,11.6014841 146.600717,11.1511378 C145.888017,10.7333467 145.071726,10.512243 144.238861,10.5135994 C142.981967,10.4932525 141.773415,10.9842927 140.896352,11.8700641 C139.912936,12.894195 139.382554,14.2601549 139.419847,15.6681652 L139.419847,16.3463976 C139.436421,17.2606548 139.686419,18.1572779 140.150503,18.9508098 C140.566245,19.6439632 141.162924,20.2150348 141.877005,20.6056967 C142.552413,20.9787245 143.313456,21.1740554 144.08831,21.1740554 C145.354873,21.18762 146.574474,20.6992927 147.470874,19.8175907 M148.93633,8.13978625 C150.233278,8.89669354 151.282992,10.0035687 151.959781,11.3274783 C152.734636,12.8575704 153.086842,14.5599336 152.981871,16.2650097 C152.930766,17.8819156 152.486019,19.4635534 151.684922,20.8769896 C150.280239,23.3172696 147.631094,24.8093807 144.778911,24.7700432 C143.76649,24.7713997 142.767881,24.5733559 141.836951,24.1867634 C140.900496,23.8042404 140.057962,23.2304558 139.364599,22.5047472 L139.364599,32 L135,32 L135,7.58363573 L139.364599,7.58363573 L139.364599,9.30634588 C140.059343,8.5602903 140.912926,7.9729411 141.863193,7.58363573 C142.796886,7.20382562 143.795495,7.00578178 144.805154,7.00035592 C146.260941,6.98679127 147.693248,7.36117552 148.94876,8.08552766" id="Fill-8"></path>
                <path d="M168.484298,19.8461509 C169.504862,18.8057488 170.061408,17.4099552 170.031026,15.9666857 C170.061408,14.9534127 169.837685,13.9469221 169.380572,13.0367399 C168.615494,11.4781715 167.001098,10.4933842 165.237552,10.513731 C163.982217,10.4947406 162.772456,10.9857778 161.895517,11.8701874 C160.920526,12.8997378 160.391601,14.26162 160.419221,15.6682652 L160.419221,16.3464934 C160.439936,17.260745 160.691279,18.1560062 161.149773,18.9508897 C161.569599,19.641326 162.164813,20.2123941 162.876031,20.6057665 C163.556867,20.978792 164.321945,21.1741217 165.100833,21.1741217 C166.364454,21.1876862 167.579739,20.6993619 168.470488,19.8176653 M169.934355,8.13993237 C171.23112,8.89683503 172.280685,10.0037034 172.958759,11.3276049 C173.739028,12.8549747 174.092566,14.5600404 173.979323,16.2651061 C173.93375,17.8833585 173.489066,19.4663431 172.682558,20.8770577 C171.28498,23.3227486 168.632066,24.81892 165.777526,24.7700875 C164.772153,24.771444 163.775066,24.5734013 162.849792,24.1868113 C161.909327,23.8042906 161.06277,23.2305095 160.36398,22.5048054 L160.36398,32 L156,32 L156,7.58378526 L160.36398,7.58378526 L160.36398,9.30648485 C161.058627,8.56043385 161.912089,7.97308824 162.863602,7.58378526 C163.799925,7.20533393 164.803916,7.0072913 165.817575,7.00050902 C167.274537,6.98423154 168.70664,7.3586135 169.960594,8.08567411" id="Fill-10"></path>
                <polygon id="Fill-12" points="193 8 183.407273 32 179.242886 32 182.356198 24.2329663 175 8 179.204302 8 184.285387 19.4157957 188.822308 8"></polygon>
                <polygon id="Fill-14" points="24 0 24 24 20 24 20 10.1108647 13.9866667 24 10.0133333 24 3.97333333 10.1108647 3.97333333 24 0 24 0 0 3.97333333 0 11.9866667 19.1973392 20 0"></polygon>
                <path d="M39.770858,13.1814401 C38.9894473,12.2724371 37.8098045,11.7635003 36.5822644,11.8041628 C35.3273543,11.7569418 34.1217101,12.2763721 33.325246,13.207674 C32.4836215,14.1625863 32.040229,15.3811488 32.0799154,16.6311919 C32.0730729,17.4405063 32.2646622,18.2406389 32.6409984,18.966005 C33.0009126,19.6625138 33.5496792,20.2580223 34.2284527,20.6843224 C34.9250168,21.1276745 35.7461139,21.3559091 36.5822644,21.3401688 C37.802962,21.3913248 38.9798679,20.9086219 39.784543,20.0284761 C40.6042716,19.0801222 41.0271366,17.8746766 40.9751338,16.6443089 C41.0161886,15.3942657 40.5892181,14.1691447 39.770858,13.194557 M43.8763434,20.8286086 C43.1551465,22.0891453 42.0972998,23.1450579 40.8109143,23.8848526 C39.5204234,24.6246473 38.0438172,25.010285 36.5412095,24.9997914 C35.0331279,25.0089733 33.5537846,24.6075953 32.2715047,23.8455018 C29.6289406,22.3095097 28.0113794,19.5667602 28.0017999,16.6049581 C27.9703245,15.0938881 28.3521346,13.6011818 29.110281,12.2763721 C29.8410574,10.992225 30.912589,9.91401357 32.2167649,9.15454349 C33.5113613,8.38851495 35.005758,7.98844868 36.5275246,8.00025391 C38.0356062,7.98844868 39.5176864,8.38851495 40.7972294,9.15454349 C42.0822463,9.91401357 43.1387246,10.9804197 43.8626585,12.2501383 C44.6208048,13.561831 45.0135629,15.0401087 44.9985094,16.5393734 C45.0272478,18.0386382 44.6399637,19.5195393 43.8763434,20.8286086" id="Fill-17"></path>
                <path d="M53.7989418,10.6959278 L53.7989418,18.7893031 C53.7989418,19.3918556 53.9179894,19.775298 54.1693122,19.9396305 C54.5330688,20.1313518 54.9391534,20.2162569 55.3465608,20.1861293 L57,20.1861293 L57,23.9931654 L53.3227513,23.9931654 C52.3042328,24.0616373 51.3174603,23.6124618 50.6772487,22.7880604 C50.0529101,21.8075432 49.7566138,20.6448908 49.8306878,19.4740218 L49.8306878,10.6959278 L47,10.6959278 L47,7.28602854 L49.8306878,7.28602854 L49.8306878,2 L53.7989418,2 L53.7989418,7.28602854 L57,7.28602854 L57,10.6959278 L53.7989418,10.6959278 Z" id="Fill-19"></path>
                <path d="M70.7617786,13.1357088 C69.9808841,12.2231884 68.8033883,11.7122824 67.5752916,11.7531022 C66.3212106,11.7056985 65.1163629,12.2271388 64.320425,13.1620442 C63.4793565,14.1206515 63.036257,15.3439292 63.0759171,16.5988093 C63.0690792,17.4112553 63.2605419,18.2144839 63.6366295,18.9426567 C63.9963059,19.6418607 64.5447099,20.2396735 65.223035,20.6676231 C65.9191388,21.1126908 66.7396934,21.3418085 67.5752916,21.3260072 C68.7951827,21.3773612 69.971311,20.8927905 70.7754545,20.009239 C71.5946415,19.0572156 72.0172271,17.8471056 71.9652587,16.611977 C72.0062864,15.3570968 71.579598,14.1272353 70.7617786,13.1488765 M74.8645516,20.8124676 C74.1438311,22.0778819 73.0866833,23.1378803 71.8011478,23.8805376 C70.5115094,24.6231949 69.0358787,25.0103248 67.5342638,24.9997906 C66.0271785,25.009008 64.5488127,24.6060769 63.2673799,23.8410346 C60.6265617,22.299099 59.0100691,19.5457366 59.000496,16.5724739 C58.9840849,15.0753084 59.3752159,13.5992113 60.1355965,12.2929772 C60.8563169,11.0012275 61.9244055,9.91884404 63.2263522,9.15906877 C64.5200932,8.39007612 66.0135026,7.98714504 67.5342638,8.00031272 C69.0427167,7.98846181 70.5224502,8.39007612 71.8011478,9.15906877 C73.0853157,9.92147757 74.141096,10.9920101 74.8645516,12.2666418 C75.6235646,13.58341 76.0133281,15.0660911 75.9996521,16.5724739 C76.0119605,18.0564717 75.6208294,19.5194012 74.8645516,20.8124676" id="Fill-21"></path>
                <path d="M89.1690141,8.02351628 L90,8.02351628 L90,11.5477406 C89.5760563,11.452456 89.1408451,11.4041611 88.7042254,11.4041611 C87.5042254,11.3858874 86.3577465,11.8649208 85.5774648,12.7094294 C84.715493,13.5891802 84.2169014,14.7208478 84.1690141,15.9073367 L84.1690141,24 L80,24 L80,8.07572701 L84.2253521,8.07572701 L84.2253521,9.96836601 C85.4126761,8.58739217 87.271831,7.85644194 89.1690141,8.02351628" id="Fill-23"></path>
                <polygon id="Fill-25" points="24 0 24 24 20 24 20 10.1108647 13.9866667 24 10.0133333 24 3.97333333 10.1108647 3.97333333 24 0 24 0 0 3.97333333 0 11.9866667 19.1973392 20 0"></polygon>
                <path d="M53.7989418,10.6959278 L53.7989418,18.7893031 C53.7989418,19.3918556 53.9179894,19.775298 54.1693122,19.9396305 C54.5330688,20.1313518 54.9391534,20.2162569 55.3465608,20.1861293 L57,20.1861293 L57,23.9931654 L53.3227513,23.9931654 C52.3042328,24.0616373 51.3174603,23.6124618 50.6772487,22.7880604 C50.0529101,21.8075432 49.7566138,20.6448908 49.8306878,19.4740218 L49.8306878,10.6959278 L47,10.6959278 L47,7.28602854 L49.8306878,7.28602854 L49.8306878,2 L53.7989418,2 L53.7989418,7.28602854 L57,7.28602854 L57,10.6959278 L53.7989418,10.6959278 Z" id="Fill-28"></path>
                <path d="M89.1690141,8.02351628 L90,8.02351628 L90,11.5477406 C89.5760563,11.452456 89.1408451,11.4041611 88.7042254,11.4041611 C87.5042254,11.3858874 86.3577465,11.8649208 85.5774648,12.7094294 C84.715493,13.5891802 84.2169014,14.7208478 84.1690141,15.9073367 L84.1690141,24 L80,24 L80,8.07572701 L84.2253521,8.07572701 L84.2253521,9.96836601 C85.4126761,8.58739217 87.271831,7.85644194 89.1690141,8.02351628" id="Fill-30"></path>
            </g>
        </g>
    </g>
</svg>